G04 #@! TF.FileFunction,Soldermask,Bot*
%FSLAX46Y46*%
G04 Gerber Fmt 4.6, Leading zero omitted, Abs format (unit mm)*
G04 Created by KiCad (PCBNEW 4.0.2+dfsg1-stable) date Seg 16 Out 2017 09:01:32 BRST*
%MOMM*%
G01*
G04 APERTURE LIST*
%ADD10C,0.100000*%
%ADD11R,2.940000X5.480000*%
%ADD12C,17.400000*%
%ADD13R,2.432000X2.127200*%
%ADD14O,2.432000X2.127200*%
%ADD15C,2.127200*%
%ADD16R,2.127200X2.127200*%
%ADD17R,1.200100X1.200100*%
%ADD18R,2.400000X2.400000*%
%ADD19C,2.400000*%
%ADD20R,1.200000X1.300000*%
%ADD21R,1.300000X1.200000*%
%ADD22C,1.162000*%
%ADD23C,3.900000*%
%ADD24R,0.800000X1.750000*%
%ADD25R,2.100000X1.300000*%
%ADD26R,1.300000X2.100000*%
%ADD27R,1.400000X2.000000*%
%ADD28R,2.000000X1.400000*%
%ADD29R,2.100000X2.100000*%
%ADD30O,2.100000X2.100000*%
G04 APERTURE END LIST*
D10*
D11*
X61930000Y-47500000D03*
D12*
X50500000Y-47500000D03*
D11*
X39070000Y-47500000D03*
D13*
X73027600Y-47297400D03*
D14*
X73027600Y-49837400D03*
X73027600Y-52377400D03*
X73027600Y-54917400D03*
X73027600Y-57457400D03*
D15*
X56308000Y-33000000D03*
D16*
X51228000Y-33000000D03*
D15*
X58848000Y-33000000D03*
X53768000Y-33000000D03*
D17*
X48750000Y-61750000D03*
X48750000Y-63650000D03*
X46751020Y-62700000D03*
D18*
X74460000Y-43000000D03*
D19*
X77000000Y-43000000D03*
D20*
X34300000Y-54500000D03*
X36200000Y-54500000D03*
X35250000Y-56500000D03*
X33350000Y-50250000D03*
X35250000Y-50250000D03*
X34300000Y-52250000D03*
D21*
X37000000Y-40200000D03*
X37000000Y-38300000D03*
X39000000Y-39250000D03*
D22*
X60937200Y-53241000D03*
X59997400Y-54536400D03*
X58930600Y-55806400D03*
X73053000Y-60607000D03*
D23*
X43000000Y-75000000D03*
X67000000Y-75000000D03*
X37000000Y-34000000D03*
X73000000Y-34000000D03*
D24*
X69175000Y-57125000D03*
X69175000Y-62875000D03*
X68525000Y-57125000D03*
X68525000Y-62875000D03*
X67875000Y-57125000D03*
X67875000Y-62875000D03*
X67225000Y-57125000D03*
X67225000Y-62875000D03*
X66575000Y-57125000D03*
X66575000Y-62875000D03*
X65925000Y-57125000D03*
X65925000Y-62875000D03*
X65275000Y-57125000D03*
X65275000Y-62875000D03*
X64625000Y-57125000D03*
X64625000Y-62875000D03*
X63975000Y-57125000D03*
X63975000Y-62875000D03*
X63325000Y-57125000D03*
X63325000Y-62875000D03*
D25*
X62588200Y-37490800D03*
X62588200Y-40390800D03*
X67566600Y-37516200D03*
X67566600Y-40416200D03*
D26*
X72300000Y-62750000D03*
X75200000Y-62750000D03*
X72300000Y-66000000D03*
X75200000Y-66000000D03*
D25*
X57250000Y-61750000D03*
X57250000Y-64650000D03*
X38750000Y-61700000D03*
X38750000Y-58800000D03*
X35500000Y-67000000D03*
X35500000Y-64100000D03*
X38500000Y-64100000D03*
X38500000Y-67000000D03*
X41500000Y-67000000D03*
X41500000Y-64100000D03*
X39500000Y-52800000D03*
X39500000Y-55700000D03*
D26*
X32550000Y-47500000D03*
X35450000Y-47500000D03*
X40450000Y-42750000D03*
X37550000Y-42750000D03*
X35450000Y-44000000D03*
X32550000Y-44000000D03*
X32550000Y-59250000D03*
X35450000Y-59250000D03*
D27*
X72250000Y-69000000D03*
X75250000Y-69000000D03*
D28*
X65966400Y-51921600D03*
X65966400Y-48921600D03*
X68379400Y-51921600D03*
X68379400Y-48921600D03*
X51250000Y-61750000D03*
X51250000Y-64750000D03*
X54250000Y-61750000D03*
X54250000Y-64750000D03*
X41750000Y-58750000D03*
X41750000Y-61750000D03*
X34250000Y-41250000D03*
X34250000Y-38250000D03*
D29*
X32250000Y-61960000D03*
D30*
X32250000Y-64500000D03*
X32250000Y-67040000D03*
M02*
