G04 #@! TF.FileFunction,Paste,Bot*
%FSLAX46Y46*%
G04 Gerber Fmt 4.6, Leading zero omitted, Abs format (unit mm)*
G04 Created by KiCad (PCBNEW 4.0.2+dfsg1-stable) date Seg 16 Out 2017 09:01:32 BRST*
%MOMM*%
G01*
G04 APERTURE LIST*
%ADD10C,0.100000*%
%ADD11R,2.540000X5.080000*%
%ADD12C,17.000000*%
%ADD13R,0.800100X0.800100*%
%ADD14R,0.800000X0.900000*%
%ADD15R,0.900000X0.800000*%
%ADD16R,0.400000X1.350000*%
%ADD17R,1.700000X0.900000*%
%ADD18R,0.900000X1.700000*%
%ADD19R,1.000000X1.600000*%
%ADD20R,1.600000X1.000000*%
G04 APERTURE END LIST*
D10*
D11*
X61930000Y-47500000D03*
D12*
X50500000Y-47500000D03*
D11*
X39070000Y-47500000D03*
D13*
X48750000Y-61750000D03*
X48750000Y-63650000D03*
X46751020Y-62700000D03*
D14*
X34300000Y-54500000D03*
X36200000Y-54500000D03*
X35250000Y-56500000D03*
X33350000Y-50250000D03*
X35250000Y-50250000D03*
X34300000Y-52250000D03*
D15*
X37000000Y-40200000D03*
X37000000Y-38300000D03*
X39000000Y-39250000D03*
D16*
X69175000Y-57125000D03*
X69175000Y-62875000D03*
X68525000Y-57125000D03*
X68525000Y-62875000D03*
X67875000Y-57125000D03*
X67875000Y-62875000D03*
X67225000Y-57125000D03*
X67225000Y-62875000D03*
X66575000Y-57125000D03*
X66575000Y-62875000D03*
X65925000Y-57125000D03*
X65925000Y-62875000D03*
X65275000Y-57125000D03*
X65275000Y-62875000D03*
X64625000Y-57125000D03*
X64625000Y-62875000D03*
X63975000Y-57125000D03*
X63975000Y-62875000D03*
X63325000Y-57125000D03*
X63325000Y-62875000D03*
D17*
X62588200Y-37490800D03*
X62588200Y-40390800D03*
X67566600Y-37516200D03*
X67566600Y-40416200D03*
D18*
X72300000Y-62750000D03*
X75200000Y-62750000D03*
X72300000Y-66000000D03*
X75200000Y-66000000D03*
D17*
X57250000Y-61750000D03*
X57250000Y-64650000D03*
X38750000Y-61700000D03*
X38750000Y-58800000D03*
X35500000Y-67000000D03*
X35500000Y-64100000D03*
X38500000Y-64100000D03*
X38500000Y-67000000D03*
X41500000Y-67000000D03*
X41500000Y-64100000D03*
X39500000Y-52800000D03*
X39500000Y-55700000D03*
D18*
X32550000Y-47500000D03*
X35450000Y-47500000D03*
X40450000Y-42750000D03*
X37550000Y-42750000D03*
X35450000Y-44000000D03*
X32550000Y-44000000D03*
X32550000Y-59250000D03*
X35450000Y-59250000D03*
D19*
X72250000Y-69000000D03*
X75250000Y-69000000D03*
D20*
X65966400Y-51921600D03*
X65966400Y-48921600D03*
X68379400Y-51921600D03*
X68379400Y-48921600D03*
X51250000Y-61750000D03*
X51250000Y-64750000D03*
X54250000Y-61750000D03*
X54250000Y-64750000D03*
X41750000Y-58750000D03*
X41750000Y-61750000D03*
X34250000Y-41250000D03*
X34250000Y-38250000D03*
M02*
