G04 #@! TF.FileFunction,Copper,L2,Bot,Signal*
%FSLAX46Y46*%
G04 Gerber Fmt 4.6, Leading zero omitted, Abs format (unit mm)*
G04 Created by KiCad (PCBNEW 4.0.2+dfsg1-stable) date Seg 16 Out 2017 09:01:32 BRST*
%MOMM*%
G01*
G04 APERTURE LIST*
%ADD10C,0.100000*%
%ADD11R,2.540000X5.080000*%
%ADD12C,17.000000*%
%ADD13R,2.032000X1.727200*%
%ADD14O,2.032000X1.727200*%
%ADD15C,1.727200*%
%ADD16R,1.727200X1.727200*%
%ADD17R,0.800100X0.800100*%
%ADD18R,2.000000X2.000000*%
%ADD19C,2.000000*%
%ADD20R,0.800000X0.900000*%
%ADD21R,0.900000X0.800000*%
%ADD22C,0.762000*%
%ADD23R,0.400000X1.350000*%
%ADD24R,1.700000X0.900000*%
%ADD25R,0.900000X1.700000*%
%ADD26R,1.000000X1.600000*%
%ADD27R,1.600000X1.000000*%
%ADD28R,1.700000X1.700000*%
%ADD29O,1.700000X1.700000*%
%ADD30C,0.381000*%
%ADD31C,0.508000*%
%ADD32C,0.254000*%
G04 APERTURE END LIST*
D10*
D11*
X61930000Y-47500000D03*
D12*
X50500000Y-47500000D03*
D11*
X39070000Y-47500000D03*
D13*
X73027600Y-47297400D03*
D14*
X73027600Y-49837400D03*
X73027600Y-52377400D03*
X73027600Y-54917400D03*
X73027600Y-57457400D03*
D15*
X56308000Y-33000000D03*
D16*
X51228000Y-33000000D03*
D15*
X58848000Y-33000000D03*
X53768000Y-33000000D03*
D17*
X48750000Y-61750000D03*
X48750000Y-63650000D03*
X46751020Y-62700000D03*
D18*
X74460000Y-43000000D03*
D19*
X77000000Y-43000000D03*
D20*
X34300000Y-54500000D03*
X36200000Y-54500000D03*
X35250000Y-56500000D03*
X33350000Y-50250000D03*
X35250000Y-50250000D03*
X34300000Y-52250000D03*
D21*
X37000000Y-40200000D03*
X37000000Y-38300000D03*
X39000000Y-39250000D03*
D22*
X60937200Y-53241000D03*
X59997400Y-54536400D03*
X58930600Y-55806400D03*
X73053000Y-60607000D03*
D23*
X69175000Y-57125000D03*
X69175000Y-62875000D03*
X68525000Y-57125000D03*
X68525000Y-62875000D03*
X67875000Y-57125000D03*
X67875000Y-62875000D03*
X67225000Y-57125000D03*
X67225000Y-62875000D03*
X66575000Y-57125000D03*
X66575000Y-62875000D03*
X65925000Y-57125000D03*
X65925000Y-62875000D03*
X65275000Y-57125000D03*
X65275000Y-62875000D03*
X64625000Y-57125000D03*
X64625000Y-62875000D03*
X63975000Y-57125000D03*
X63975000Y-62875000D03*
X63325000Y-57125000D03*
X63325000Y-62875000D03*
D24*
X62588200Y-37490800D03*
X62588200Y-40390800D03*
X67566600Y-37516200D03*
X67566600Y-40416200D03*
D25*
X72300000Y-62750000D03*
X75200000Y-62750000D03*
X72300000Y-66000000D03*
X75200000Y-66000000D03*
D24*
X57250000Y-61750000D03*
X57250000Y-64650000D03*
X38750000Y-61700000D03*
X38750000Y-58800000D03*
X35500000Y-67000000D03*
X35500000Y-64100000D03*
X38500000Y-64100000D03*
X38500000Y-67000000D03*
X41500000Y-67000000D03*
X41500000Y-64100000D03*
X39500000Y-52800000D03*
X39500000Y-55700000D03*
D25*
X32550000Y-47500000D03*
X35450000Y-47500000D03*
X40450000Y-42750000D03*
X37550000Y-42750000D03*
X35450000Y-44000000D03*
X32550000Y-44000000D03*
X32550000Y-59250000D03*
X35450000Y-59250000D03*
D26*
X72250000Y-69000000D03*
X75250000Y-69000000D03*
D27*
X65966400Y-51921600D03*
X65966400Y-48921600D03*
X68379400Y-51921600D03*
X68379400Y-48921600D03*
X51250000Y-61750000D03*
X51250000Y-64750000D03*
X54250000Y-61750000D03*
X54250000Y-64750000D03*
X41750000Y-58750000D03*
X41750000Y-61750000D03*
X34250000Y-41250000D03*
X34250000Y-38250000D03*
D28*
X32250000Y-61960000D03*
D29*
X32250000Y-64500000D03*
X32250000Y-67040000D03*
D22*
X36959600Y-50726400D03*
X31219200Y-56619200D03*
X67579740Y-44506347D03*
X65633022Y-43583047D03*
X65425000Y-46150000D03*
X64391600Y-32895600D03*
X69333235Y-32992684D03*
X77277181Y-32645407D03*
X77233772Y-37377048D03*
X54942800Y-57000200D03*
X48415000Y-57101800D03*
X43106400Y-54688800D03*
X61597600Y-62385000D03*
X61149686Y-64545425D03*
X44274800Y-61394400D03*
X44299943Y-64084947D03*
X78590200Y-45189200D03*
X78361600Y-51463000D03*
X78463200Y-58092400D03*
X78488600Y-65153600D03*
X49761200Y-37061200D03*
X44097000Y-38153400D03*
X59667200Y-42242800D03*
X55857200Y-38585200D03*
X32448024Y-33970921D03*
X44808200Y-34064000D03*
X68198051Y-47369920D03*
X77904400Y-70995600D03*
X32159000Y-70970200D03*
X77904400Y-77015400D03*
X55146000Y-71000000D03*
X55164908Y-77007313D03*
X32159000Y-77015400D03*
X60530800Y-59700200D03*
X59032200Y-57584400D03*
X66271200Y-53520400D03*
X42039600Y-78666400D03*
X42038728Y-69315737D03*
X44046200Y-78691800D03*
X43970000Y-69293800D03*
X66093400Y-78615600D03*
X66093400Y-69395400D03*
X67973000Y-78615600D03*
X67922200Y-69420800D03*
X32195289Y-51285200D03*
X40744200Y-39245600D03*
D30*
X61930000Y-47500000D02*
X61930000Y-49232678D01*
X61930000Y-49232678D02*
X56829228Y-54333450D01*
X56829228Y-54333450D02*
X56829228Y-58259774D01*
X39554444Y-56585444D02*
X39500000Y-56531000D01*
X56829228Y-58259774D02*
X56389779Y-58699223D01*
X56389779Y-58699223D02*
X46845779Y-58699223D01*
X46845779Y-58699223D02*
X44732000Y-56585444D01*
X44732000Y-56585444D02*
X39554444Y-56585444D01*
X39500000Y-56531000D02*
X39500000Y-55700000D01*
X37550000Y-42750000D02*
X37550000Y-44132677D01*
X37550000Y-44132677D02*
X39070000Y-45652677D01*
X39070000Y-45652677D02*
X39070000Y-47500000D01*
X39500000Y-55700000D02*
X40731000Y-55700000D01*
X40731000Y-55700000D02*
X41506200Y-54924800D01*
X41506200Y-54924800D02*
X41506200Y-51618056D01*
X41506200Y-51618056D02*
X41124138Y-51235994D01*
X41124138Y-51235994D02*
X39631638Y-51235994D01*
X39631638Y-51235994D02*
X39070000Y-50674356D01*
X39070000Y-50674356D02*
X39070000Y-47500000D01*
X36200000Y-54500000D02*
X36200000Y-54550000D01*
X36200000Y-54550000D02*
X37350000Y-55700000D01*
X37350000Y-55700000D02*
X39500000Y-55700000D01*
X35250000Y-50250000D02*
X36483200Y-50250000D01*
X36483200Y-50250000D02*
X36959600Y-50726400D01*
X65633022Y-44121862D02*
X65633022Y-43583047D01*
X65633022Y-44221980D02*
X65633022Y-44121862D01*
X65944496Y-44533454D02*
X65633022Y-44221980D01*
X65944496Y-45116365D02*
X65944496Y-44533454D01*
X68198051Y-47369920D02*
X65944496Y-45116365D01*
X65425000Y-46150000D02*
X65944496Y-45630504D01*
X65944496Y-45630504D02*
X65944496Y-44533454D01*
X69333235Y-32992684D02*
X64488684Y-32992684D01*
X64488684Y-32992684D02*
X64391600Y-32895600D01*
X69714234Y-33373683D02*
X69333235Y-32992684D01*
X74460000Y-38596953D02*
X69714234Y-33851187D01*
X74460000Y-43000000D02*
X74460000Y-38596953D01*
X69714234Y-33851187D02*
X69714234Y-33373683D01*
X43106400Y-54688800D02*
X46002000Y-54688800D01*
X46002000Y-54688800D02*
X48415000Y-57101800D01*
X44299943Y-64084947D02*
X44299943Y-61419543D01*
X44299943Y-61419543D02*
X44274800Y-61394400D01*
X44284890Y-64100000D02*
X44299943Y-64084947D01*
X41500000Y-64100000D02*
X44284890Y-64100000D01*
X78463200Y-58092400D02*
X78463200Y-51564600D01*
X78463200Y-51564600D02*
X78361600Y-51463000D01*
X77904400Y-70995600D02*
X77904400Y-65737800D01*
X77904400Y-65737800D02*
X78488600Y-65153600D01*
X44808200Y-34064000D02*
X44808200Y-37442200D01*
X44808200Y-37442200D02*
X44097000Y-38153400D01*
X55857200Y-38585200D02*
X59514800Y-42242800D01*
X59514800Y-42242800D02*
X59667200Y-42242800D01*
X32829023Y-34351920D02*
X32448024Y-33970921D01*
X34250000Y-35772897D02*
X32829023Y-34351920D01*
X34250000Y-38250000D02*
X34250000Y-35772897D01*
X37000000Y-38300000D02*
X40572200Y-38300000D01*
X40572200Y-38300000D02*
X44808200Y-34064000D01*
X68198051Y-47369920D02*
X68198051Y-48740251D01*
X68198051Y-48740251D02*
X68379400Y-48921600D01*
X65966400Y-48921600D02*
X68379400Y-48921600D01*
X65966400Y-48921600D02*
X65966400Y-49223957D01*
X65966400Y-49223957D02*
X64239200Y-50951157D01*
X64239200Y-50951157D02*
X64239200Y-52987000D01*
X64239200Y-52987000D02*
X65925000Y-54672800D01*
X65925000Y-56069000D02*
X65925000Y-57125000D01*
X65925000Y-54672800D02*
X65925000Y-56069000D01*
X43245600Y-64100000D02*
X44645600Y-62700000D01*
X44645600Y-62700000D02*
X46751020Y-62700000D01*
X41500000Y-64100000D02*
X43245600Y-64100000D01*
X41500000Y-64100000D02*
X41500000Y-62000000D01*
X41500000Y-62000000D02*
X41750000Y-61750000D01*
X51250000Y-64750000D02*
X49850000Y-64750000D01*
X49850000Y-64750000D02*
X48750000Y-63650000D01*
X51250000Y-64750000D02*
X54250000Y-64750000D01*
X73027600Y-52377400D02*
X74424600Y-52377400D01*
X74805600Y-52758400D02*
X74805600Y-58160730D01*
X74424600Y-52377400D02*
X74805600Y-52758400D01*
X74805600Y-58160730D02*
X74008807Y-58957523D01*
X67805230Y-58957523D02*
X67281299Y-59481454D01*
X74008807Y-58957523D02*
X67805230Y-58957523D01*
X67281299Y-59481454D02*
X67281299Y-62818701D01*
X67281299Y-62818701D02*
X67225000Y-62875000D01*
X67225000Y-62875000D02*
X67225000Y-66198965D01*
X67225000Y-66198965D02*
X70026035Y-69000000D01*
X70026035Y-69000000D02*
X72250000Y-69000000D01*
X35029200Y-68963600D02*
X35500000Y-68492800D01*
X35500000Y-68492800D02*
X35500000Y-67000000D01*
X31270000Y-68963600D02*
X35029200Y-68963600D01*
X30762000Y-68455600D02*
X31270000Y-68963600D01*
X30762000Y-62217000D02*
X30762000Y-68455600D01*
X32250000Y-61960000D02*
X31019000Y-61960000D01*
X31019000Y-61960000D02*
X30762000Y-62217000D01*
X32250000Y-61960000D02*
X33481000Y-61960000D01*
X35450000Y-59991000D02*
X35450000Y-59250000D01*
X33481000Y-61960000D02*
X35450000Y-59991000D01*
X58481000Y-61750000D02*
X60530800Y-59700200D01*
X60530800Y-59700200D02*
X61022945Y-59208055D01*
X57736800Y-57584400D02*
X57736800Y-58770363D01*
X57736800Y-54460200D02*
X57736800Y-57584400D01*
X57736800Y-57584400D02*
X59032200Y-57584400D01*
X68797600Y-37516200D02*
X69598600Y-38317200D01*
X71610496Y-43487400D02*
X71610496Y-44550741D01*
X69598600Y-38317200D02*
X69598600Y-41475504D01*
X69598600Y-41475504D02*
X71610496Y-43487400D01*
X65966400Y-51921600D02*
X65966400Y-53215600D01*
X65966400Y-53215600D02*
X66271200Y-53520400D01*
X62588200Y-40390800D02*
X62588200Y-41221800D01*
X56947875Y-59559288D02*
X46338135Y-59559288D01*
X62588200Y-41221800D02*
X63931303Y-42564903D01*
X63931303Y-42564903D02*
X63931303Y-50189458D01*
X63931303Y-50189458D02*
X63064161Y-51056600D01*
X63064161Y-51056600D02*
X61140400Y-51056600D01*
X36934200Y-58596800D02*
X36281000Y-59250000D01*
X36281000Y-59250000D02*
X35450000Y-59250000D01*
X61140400Y-51056600D02*
X57736800Y-54460200D01*
X57736800Y-58770363D02*
X56947875Y-59559288D01*
X46338135Y-59559288D02*
X44083847Y-57305000D01*
X44083847Y-57305000D02*
X37518400Y-57305000D01*
X37518400Y-57305000D02*
X36934200Y-57889200D01*
X36934200Y-57889200D02*
X36934200Y-58596800D01*
X66575000Y-57125000D02*
X66575000Y-54643980D01*
X66575000Y-54643980D02*
X68379400Y-52839580D01*
X68379400Y-52839580D02*
X68379400Y-51921600D01*
X65966400Y-51921600D02*
X68379400Y-51921600D01*
X67566600Y-37516200D02*
X68797600Y-37516200D01*
X73027600Y-45967845D02*
X73027600Y-47297400D01*
X71610496Y-44550741D02*
X73027600Y-45967845D01*
X57250000Y-61750000D02*
X58481000Y-61750000D01*
X61022945Y-59208055D02*
X66000266Y-59208055D01*
X66000266Y-59208055D02*
X66575000Y-58633321D01*
X66575000Y-58633321D02*
X66575000Y-57125000D01*
X51228000Y-33000000D02*
X51228000Y-34244600D01*
X55443763Y-34799390D02*
X61035173Y-40390800D01*
X51228000Y-34244600D02*
X51782790Y-34799390D01*
X51782790Y-34799390D02*
X55443763Y-34799390D01*
X61035173Y-40390800D02*
X62588200Y-40390800D01*
X51228000Y-33000000D02*
X51228000Y-31755400D01*
X51228000Y-31755400D02*
X51662600Y-31320800D01*
X51662600Y-31320800D02*
X60059142Y-31320800D01*
X60059142Y-31320800D02*
X60606655Y-31868313D01*
X60606655Y-31868313D02*
X60606655Y-34533653D01*
X60606655Y-34533653D02*
X61252017Y-35179015D01*
X61252017Y-35179015D02*
X64820486Y-35179015D01*
X64820486Y-35179015D02*
X67157671Y-37516200D01*
X67157671Y-37516200D02*
X67566600Y-37516200D01*
X57250000Y-64650000D02*
X58606274Y-64650000D01*
X58606274Y-64650000D02*
X59251759Y-64004515D01*
X59251759Y-64004515D02*
X59251759Y-62470764D01*
X59251759Y-62470764D02*
X61702274Y-60020249D01*
X61702274Y-60020249D02*
X65920266Y-60020249D01*
X65920266Y-60020249D02*
X66575000Y-60674983D01*
X66575000Y-60674983D02*
X66575000Y-62875000D01*
X54250000Y-61750000D02*
X55343506Y-61750000D01*
X55679400Y-64315400D02*
X56014000Y-64650000D01*
X55343506Y-61750000D02*
X55679400Y-62085894D01*
X55679400Y-62085894D02*
X55679400Y-64315400D01*
X56014000Y-64650000D02*
X57250000Y-64650000D01*
X48750000Y-61750000D02*
X51250000Y-61750000D01*
X51250000Y-61750000D02*
X54250000Y-61750000D01*
D31*
X61168000Y-57125000D02*
X61599800Y-57125000D01*
X61599800Y-57125000D02*
X63317799Y-57125000D01*
X57965400Y-60327600D02*
X61168000Y-57125000D01*
X45925800Y-60327600D02*
X57965400Y-60327600D01*
X41750000Y-58750000D02*
X44348200Y-58750000D01*
X44348200Y-58750000D02*
X45925800Y-60327600D01*
X38750000Y-58800000D02*
X41700000Y-58800000D01*
X41700000Y-58800000D02*
X41750000Y-58750000D01*
D30*
X61168000Y-57125000D02*
X63325000Y-57125000D01*
X75200000Y-66000000D02*
X76031000Y-66000000D01*
X76609000Y-59159200D02*
X75607881Y-58158081D01*
X76031000Y-66000000D02*
X76609000Y-65422000D01*
X75607881Y-58158081D02*
X75607881Y-45783919D01*
X76609000Y-65422000D02*
X76609000Y-59159200D01*
X75607881Y-45783919D02*
X76812200Y-44579600D01*
X76812200Y-44579600D02*
X76834613Y-44579600D01*
X76834613Y-44579600D02*
X77000000Y-44414213D01*
X77000000Y-44414213D02*
X77000000Y-43000000D01*
X69175000Y-57125000D02*
X72695200Y-57125000D01*
X72695200Y-57125000D02*
X73027600Y-57457400D01*
X73027600Y-54917400D02*
X71122600Y-54917400D01*
X71122600Y-54917400D02*
X70640000Y-55400000D01*
X70640000Y-55400000D02*
X68989000Y-55400000D01*
X68525000Y-55864000D02*
X68525000Y-57125000D01*
X68989000Y-55400000D02*
X68525000Y-55864000D01*
X73053000Y-60607000D02*
X72672001Y-60987999D01*
X72672001Y-60987999D02*
X68328601Y-60987999D01*
X68328601Y-60987999D02*
X67871400Y-61445200D01*
X67871400Y-61445200D02*
X67871400Y-61815400D01*
X67871400Y-61815400D02*
X67875000Y-61819000D01*
X67875000Y-61819000D02*
X67875000Y-62875000D01*
D31*
X32250000Y-64500000D02*
X35050000Y-61700000D01*
X35050000Y-61700000D02*
X38750000Y-61700000D01*
D30*
X65275000Y-54981941D02*
X65275000Y-57125000D01*
X64488376Y-54195317D02*
X65275000Y-54981941D01*
X61891517Y-54195317D02*
X64488376Y-54195317D01*
X60937200Y-53241000D02*
X61891517Y-54195317D01*
X64625000Y-57125000D02*
X64625000Y-55367995D01*
X64625000Y-55367995D02*
X64121164Y-54864159D01*
X60907994Y-54536400D02*
X59997400Y-54536400D01*
X64121164Y-54864159D02*
X61235753Y-54864159D01*
X61235753Y-54864159D02*
X60907994Y-54536400D01*
X63975000Y-57125000D02*
X63975000Y-57117000D01*
X63975000Y-57117000D02*
X64031299Y-57060701D01*
X64031299Y-57060701D02*
X64031299Y-55926905D01*
X64031299Y-55926905D02*
X63635657Y-55531263D01*
X63635657Y-55531263D02*
X61023676Y-55531263D01*
X61023676Y-55531263D02*
X60748539Y-55806400D01*
X60748539Y-55806400D02*
X58930600Y-55806400D01*
X62588200Y-37490800D02*
X64104393Y-37490800D01*
X64104393Y-37490800D02*
X64702176Y-38088583D01*
X64702176Y-38088583D02*
X64702176Y-40179854D01*
X67211000Y-56055000D02*
X67225000Y-56069000D01*
X64702176Y-40179854D02*
X66560150Y-42037828D01*
X66560150Y-42037828D02*
X67559781Y-42037828D01*
X67559781Y-42037828D02*
X69798912Y-44276959D01*
X69798912Y-44276959D02*
X69852501Y-51996400D01*
X69852501Y-51996400D02*
X69852501Y-53901499D01*
X69852501Y-53901499D02*
X69674800Y-54079200D01*
X69674800Y-54079200D02*
X68227000Y-54079200D01*
X68227000Y-54079200D02*
X67211000Y-55095200D01*
X67225000Y-56069000D02*
X67225000Y-57125000D01*
X67211000Y-55095200D02*
X67211000Y-56055000D01*
X56308000Y-33000000D02*
X56308000Y-34145129D01*
X56308000Y-34145129D02*
X59653671Y-37490800D01*
X59653671Y-37490800D02*
X62588200Y-37490800D01*
X67875000Y-57125000D02*
X67875000Y-55472600D01*
X67875000Y-55472600D02*
X68608000Y-54739600D01*
X68608000Y-54739600D02*
X70309800Y-54739600D01*
X70309800Y-54739600D02*
X70547175Y-54502225D01*
X70547175Y-54502225D02*
X70547175Y-43809713D01*
X70547175Y-43809713D02*
X67566600Y-40829138D01*
X67566600Y-40829138D02*
X67566600Y-40416200D01*
X67566600Y-40416200D02*
X66207705Y-40416200D01*
X66207705Y-40416200D02*
X65685458Y-39893953D01*
X65685458Y-39893953D02*
X65685458Y-37372672D01*
X65685458Y-37372672D02*
X64440862Y-36128076D01*
X59750076Y-36128076D02*
X58848000Y-35226000D01*
X64440862Y-36128076D02*
X59750076Y-36128076D01*
X58848000Y-35226000D02*
X58848000Y-33000000D01*
X69175000Y-62875000D02*
X72175000Y-62875000D01*
X72175000Y-62875000D02*
X72300000Y-62750000D01*
X68525000Y-65375400D02*
X69149600Y-66000000D01*
X69149600Y-66000000D02*
X72300000Y-66000000D01*
X68525000Y-62875000D02*
X68525000Y-65375400D01*
X38500000Y-64100000D02*
X35500000Y-64100000D01*
X41500000Y-67000000D02*
X38500000Y-67000000D01*
X41500000Y-67000000D02*
X43183157Y-67000000D01*
X43183157Y-67000000D02*
X43988157Y-66195000D01*
X43988157Y-66195000D02*
X62232600Y-66195000D01*
X63325000Y-65102600D02*
X62232600Y-66195000D01*
X63325000Y-62875000D02*
X63325000Y-65102600D01*
X40363200Y-76990000D02*
X40363200Y-70991265D01*
X40363200Y-70991265D02*
X42038728Y-69315737D01*
X42039600Y-78666400D02*
X40363200Y-76990000D01*
X63975000Y-62875000D02*
X63975000Y-65507872D01*
X63975000Y-65507872D02*
X62518363Y-66964509D01*
X62518363Y-66964509D02*
X44392951Y-66964509D01*
X44392951Y-66964509D02*
X42041723Y-69315737D01*
X42041723Y-69315737D02*
X42038728Y-69315737D01*
X45595600Y-77142400D02*
X45595600Y-70919400D01*
X45595600Y-70919400D02*
X43970000Y-69293800D01*
X44046200Y-78691800D02*
X45595600Y-77142400D01*
X62867600Y-67668200D02*
X45595600Y-67668200D01*
X45595600Y-67668200D02*
X43970000Y-69293800D01*
X64625000Y-65910800D02*
X62867600Y-67668200D01*
X64625000Y-62875000D02*
X64625000Y-65910800D01*
X64417000Y-76939200D02*
X64417000Y-71071800D01*
X64417000Y-71071800D02*
X66093400Y-69395400D01*
X66093400Y-78615600D02*
X64417000Y-76939200D01*
X65275000Y-62875000D02*
X65275000Y-66677600D01*
X66093400Y-69395400D02*
X66093400Y-67496000D01*
X66093400Y-67496000D02*
X65275000Y-66677600D01*
X69497000Y-77091600D02*
X69497000Y-70995600D01*
X69497000Y-70995600D02*
X67922200Y-69420800D01*
X67973000Y-78615600D02*
X69497000Y-77091600D01*
X65925000Y-62875000D02*
X65925000Y-66144200D01*
X67922200Y-69420800D02*
X67922200Y-68141400D01*
X67922200Y-68141400D02*
X65925000Y-66144200D01*
X35450000Y-44000000D02*
X35450000Y-42450000D01*
X35450000Y-42450000D02*
X34250000Y-41250000D01*
X34250000Y-41250000D02*
X35950000Y-41250000D01*
X35950000Y-41250000D02*
X37000000Y-40200000D01*
X32817958Y-55888958D02*
X33429000Y-56500000D01*
X32550000Y-44000000D02*
X32113409Y-44000000D01*
X32817958Y-54458758D02*
X32817958Y-55888958D01*
X32113409Y-44000000D02*
X31420569Y-44692840D01*
X31420569Y-44692840D02*
X31420569Y-53061369D01*
X33429000Y-56500000D02*
X35250000Y-56500000D01*
X31420569Y-53061369D02*
X32817958Y-54458758D01*
X32550000Y-59250000D02*
X32550000Y-58019000D01*
X32550000Y-58019000D02*
X32924001Y-57644999D01*
X32924001Y-57644999D02*
X34968601Y-57644999D01*
X34968601Y-57644999D02*
X35250000Y-57363600D01*
X35250000Y-57363600D02*
X35250000Y-56500000D01*
X35450000Y-56700000D02*
X35250000Y-56500000D01*
X35450000Y-47500000D02*
X35450000Y-46269000D01*
X32550000Y-45231000D02*
X32550000Y-44000000D01*
X35450000Y-46269000D02*
X34927531Y-45746531D01*
X34927531Y-45746531D02*
X33065531Y-45746531D01*
X33065531Y-45746531D02*
X32550000Y-45231000D01*
X37864800Y-52800000D02*
X37314800Y-52250000D01*
X37314800Y-52250000D02*
X34300000Y-52250000D01*
X39500000Y-52800000D02*
X37864800Y-52800000D01*
X34300000Y-54500000D02*
X34300000Y-52250000D01*
X32364800Y-51285200D02*
X32195289Y-51285200D01*
X33350000Y-50300000D02*
X32364800Y-51285200D01*
X33350000Y-50250000D02*
X33350000Y-50300000D01*
X32550000Y-47500000D02*
X32550000Y-49450000D01*
X32550000Y-49450000D02*
X33350000Y-50250000D01*
X40744200Y-40744200D02*
X40450000Y-41038400D01*
X40450000Y-41038400D02*
X40450000Y-42750000D01*
X40744200Y-39245600D02*
X40744200Y-40744200D01*
X39000000Y-39250000D02*
X40739800Y-39250000D01*
X40739800Y-39250000D02*
X40744200Y-39245600D01*
X39050000Y-39250000D02*
X39000000Y-39250000D01*
D32*
G36*
X64629670Y-66944905D02*
X64781086Y-67171514D01*
X65394900Y-67785328D01*
X65394900Y-68836542D01*
X65340182Y-68891164D01*
X65204554Y-69217791D01*
X65204485Y-69296487D01*
X63923086Y-70577886D01*
X63771670Y-70804495D01*
X63771670Y-70804496D01*
X63718500Y-71071800D01*
X63718500Y-76939200D01*
X63771670Y-77206505D01*
X63923086Y-77433114D01*
X65204313Y-78714341D01*
X65204246Y-78791657D01*
X65339303Y-79118520D01*
X65589164Y-79368818D01*
X65705199Y-79417000D01*
X44578068Y-79417000D01*
X44799418Y-79196036D01*
X44935046Y-78869409D01*
X44935115Y-78790713D01*
X46089514Y-77636314D01*
X46240929Y-77409705D01*
X46240930Y-77409704D01*
X46294100Y-77142400D01*
X46294100Y-70919400D01*
X46240930Y-70652096D01*
X46089514Y-70425486D01*
X44957828Y-69293800D01*
X45884928Y-68366700D01*
X62867600Y-68366700D01*
X63134905Y-68313530D01*
X63361514Y-68162114D01*
X64621217Y-66902411D01*
X64629670Y-66944905D01*
X64629670Y-66944905D01*
G37*
X64629670Y-66944905D02*
X64781086Y-67171514D01*
X65394900Y-67785328D01*
X65394900Y-68836542D01*
X65340182Y-68891164D01*
X65204554Y-69217791D01*
X65204485Y-69296487D01*
X63923086Y-70577886D01*
X63771670Y-70804495D01*
X63771670Y-70804496D01*
X63718500Y-71071800D01*
X63718500Y-76939200D01*
X63771670Y-77206505D01*
X63923086Y-77433114D01*
X65204313Y-78714341D01*
X65204246Y-78791657D01*
X65339303Y-79118520D01*
X65589164Y-79368818D01*
X65705199Y-79417000D01*
X44578068Y-79417000D01*
X44799418Y-79196036D01*
X44935046Y-78869409D01*
X44935115Y-78790713D01*
X46089514Y-77636314D01*
X46240929Y-77409705D01*
X46240930Y-77409704D01*
X46294100Y-77142400D01*
X46294100Y-70919400D01*
X46240930Y-70652096D01*
X46089514Y-70425486D01*
X44957828Y-69293800D01*
X45884928Y-68366700D01*
X62867600Y-68366700D01*
X63134905Y-68313530D01*
X63361514Y-68162114D01*
X64621217Y-66902411D01*
X64629670Y-66944905D01*
G36*
X77881385Y-30596317D02*
X78528136Y-30724964D01*
X78975871Y-31024131D01*
X79275036Y-31471863D01*
X79403682Y-32118615D01*
X79417000Y-32150768D01*
X79417000Y-77849232D01*
X79403682Y-77881385D01*
X79275036Y-78528137D01*
X78975871Y-78975869D01*
X78528136Y-79275036D01*
X77881385Y-79403683D01*
X77849235Y-79417000D01*
X68361438Y-79417000D01*
X68475920Y-79369697D01*
X68726218Y-79119836D01*
X68861846Y-78793209D01*
X68861915Y-78714513D01*
X69990914Y-77585514D01*
X70108386Y-77409705D01*
X70142330Y-77358904D01*
X70195500Y-77091600D01*
X70195500Y-70995600D01*
X70142330Y-70728296D01*
X69990914Y-70501686D01*
X68811287Y-69322059D01*
X68811354Y-69244743D01*
X68676297Y-68917880D01*
X68620700Y-68862186D01*
X68620700Y-68582493D01*
X69532121Y-69493914D01*
X69758730Y-69645330D01*
X70026035Y-69698500D01*
X71232048Y-69698500D01*
X71232048Y-69800000D01*
X71267470Y-69988253D01*
X71378728Y-70161153D01*
X71548488Y-70277145D01*
X71750000Y-70317952D01*
X72750000Y-70317952D01*
X72938253Y-70282530D01*
X73111153Y-70171272D01*
X73227145Y-70001512D01*
X73267952Y-69800000D01*
X73267952Y-69254000D01*
X74242000Y-69254000D01*
X74242000Y-69901048D01*
X74319339Y-70087759D01*
X74462242Y-70230662D01*
X74648953Y-70308000D01*
X74996000Y-70308000D01*
X75123000Y-70181000D01*
X75123000Y-69127000D01*
X75377000Y-69127000D01*
X75377000Y-70181000D01*
X75504000Y-70308000D01*
X75851047Y-70308000D01*
X76037758Y-70230662D01*
X76180661Y-70087759D01*
X76258000Y-69901048D01*
X76258000Y-69254000D01*
X76131000Y-69127000D01*
X75377000Y-69127000D01*
X75123000Y-69127000D01*
X74369000Y-69127000D01*
X74242000Y-69254000D01*
X73267952Y-69254000D01*
X73267952Y-68200000D01*
X73248939Y-68098952D01*
X74242000Y-68098952D01*
X74242000Y-68746000D01*
X74369000Y-68873000D01*
X75123000Y-68873000D01*
X75123000Y-67819000D01*
X75377000Y-67819000D01*
X75377000Y-68873000D01*
X76131000Y-68873000D01*
X76258000Y-68746000D01*
X76258000Y-68098952D01*
X76180661Y-67912241D01*
X76037758Y-67769338D01*
X75851047Y-67692000D01*
X75504000Y-67692000D01*
X75377000Y-67819000D01*
X75123000Y-67819000D01*
X74996000Y-67692000D01*
X74648953Y-67692000D01*
X74462242Y-67769338D01*
X74319339Y-67912241D01*
X74242000Y-68098952D01*
X73248939Y-68098952D01*
X73232530Y-68011747D01*
X73121272Y-67838847D01*
X72951512Y-67722855D01*
X72750000Y-67682048D01*
X71750000Y-67682048D01*
X71561747Y-67717470D01*
X71388847Y-67828728D01*
X71272855Y-67998488D01*
X71232048Y-68200000D01*
X71232048Y-68301500D01*
X70315363Y-68301500D01*
X67923500Y-65909637D01*
X67923500Y-65708301D01*
X68031086Y-65869314D01*
X68655686Y-66493914D01*
X68882295Y-66645330D01*
X69149600Y-66698500D01*
X71332048Y-66698500D01*
X71332048Y-66850000D01*
X71367470Y-67038253D01*
X71478728Y-67211153D01*
X71648488Y-67327145D01*
X71850000Y-67367952D01*
X72750000Y-67367952D01*
X72938253Y-67332530D01*
X73111153Y-67221272D01*
X73227145Y-67051512D01*
X73267952Y-66850000D01*
X73267952Y-65150000D01*
X73232530Y-64961747D01*
X73121272Y-64788847D01*
X72951512Y-64672855D01*
X72750000Y-64632048D01*
X71850000Y-64632048D01*
X71661747Y-64667470D01*
X71488847Y-64778728D01*
X71372855Y-64948488D01*
X71332048Y-65150000D01*
X71332048Y-65301500D01*
X69438928Y-65301500D01*
X69223500Y-65086072D01*
X69223500Y-64067952D01*
X69375000Y-64067952D01*
X69563253Y-64032530D01*
X69736153Y-63921272D01*
X69852145Y-63751512D01*
X69888193Y-63573500D01*
X71332048Y-63573500D01*
X71332048Y-63600000D01*
X71367470Y-63788253D01*
X71478728Y-63961153D01*
X71648488Y-64077145D01*
X71850000Y-64117952D01*
X72750000Y-64117952D01*
X72938253Y-64082530D01*
X73111153Y-63971272D01*
X73227145Y-63801512D01*
X73267952Y-63600000D01*
X73267952Y-63004000D01*
X74242000Y-63004000D01*
X74242000Y-63701048D01*
X74319339Y-63887759D01*
X74462242Y-64030662D01*
X74648953Y-64108000D01*
X74946000Y-64108000D01*
X75073000Y-63981000D01*
X75073000Y-62877000D01*
X74369000Y-62877000D01*
X74242000Y-63004000D01*
X73267952Y-63004000D01*
X73267952Y-61900000D01*
X73248939Y-61798952D01*
X74242000Y-61798952D01*
X74242000Y-62496000D01*
X74369000Y-62623000D01*
X75073000Y-62623000D01*
X75073000Y-61519000D01*
X74946000Y-61392000D01*
X74648953Y-61392000D01*
X74462242Y-61469338D01*
X74319339Y-61612241D01*
X74242000Y-61798952D01*
X73248939Y-61798952D01*
X73232530Y-61711747D01*
X73121272Y-61538847D01*
X73101216Y-61525144D01*
X73144712Y-61496081D01*
X73229057Y-61496154D01*
X73555920Y-61361097D01*
X73806218Y-61111236D01*
X73941846Y-60784609D01*
X73942154Y-60430943D01*
X73807097Y-60104080D01*
X73557236Y-59853782D01*
X73230609Y-59718154D01*
X72876943Y-59717846D01*
X72550080Y-59852903D01*
X72299782Y-60102764D01*
X72222242Y-60289499D01*
X68328601Y-60289499D01*
X68061296Y-60342669D01*
X67979799Y-60397124D01*
X67979799Y-59770782D01*
X68094558Y-59656023D01*
X74008807Y-59656023D01*
X74276112Y-59602853D01*
X74502721Y-59451437D01*
X75208065Y-58746093D01*
X75910500Y-59448528D01*
X75910500Y-61458047D01*
X75751047Y-61392000D01*
X75454000Y-61392000D01*
X75327000Y-61519000D01*
X75327000Y-62623000D01*
X75347000Y-62623000D01*
X75347000Y-62877000D01*
X75327000Y-62877000D01*
X75327000Y-63981000D01*
X75454000Y-64108000D01*
X75751047Y-64108000D01*
X75910500Y-64041953D01*
X75910500Y-64713160D01*
X75851512Y-64672855D01*
X75650000Y-64632048D01*
X74750000Y-64632048D01*
X74561747Y-64667470D01*
X74388847Y-64778728D01*
X74272855Y-64948488D01*
X74232048Y-65150000D01*
X74232048Y-66850000D01*
X74267470Y-67038253D01*
X74378728Y-67211153D01*
X74548488Y-67327145D01*
X74750000Y-67367952D01*
X75650000Y-67367952D01*
X75838253Y-67332530D01*
X76011153Y-67221272D01*
X76127145Y-67051512D01*
X76167952Y-66850000D01*
X76167952Y-66671259D01*
X76298305Y-66645330D01*
X76524914Y-66493914D01*
X77102914Y-65915914D01*
X77225337Y-65732695D01*
X77254330Y-65689304D01*
X77307500Y-65422000D01*
X77307500Y-59159200D01*
X77269175Y-58966527D01*
X77254330Y-58891895D01*
X77102914Y-58665286D01*
X76306381Y-57868753D01*
X76306381Y-46073247D01*
X77260981Y-45118647D01*
X77328527Y-45073514D01*
X77493914Y-44908127D01*
X77645330Y-44681517D01*
X77698500Y-44414213D01*
X77698500Y-44343043D01*
X77853097Y-44279165D01*
X78277674Y-43855328D01*
X78507737Y-43301276D01*
X78508261Y-42701356D01*
X78279165Y-42146903D01*
X77855328Y-41722326D01*
X77301276Y-41492263D01*
X76701356Y-41491739D01*
X76146903Y-41720835D01*
X75968000Y-41899426D01*
X75968000Y-41898953D01*
X75890662Y-41712242D01*
X75747759Y-41569339D01*
X75561048Y-41492000D01*
X74714000Y-41492000D01*
X74587000Y-41619000D01*
X74587000Y-42873000D01*
X74607000Y-42873000D01*
X74607000Y-43127000D01*
X74587000Y-43127000D01*
X74587000Y-44381000D01*
X74714000Y-44508000D01*
X75561048Y-44508000D01*
X75747759Y-44430661D01*
X75890662Y-44287758D01*
X75968000Y-44101047D01*
X75968000Y-44100694D01*
X76135493Y-44268479D01*
X75113967Y-45290005D01*
X74962551Y-45516614D01*
X74941256Y-45623670D01*
X74909381Y-45783919D01*
X74909381Y-51877383D01*
X74691905Y-51732070D01*
X74424600Y-51678900D01*
X74361047Y-51678900D01*
X74179725Y-51407532D01*
X73734746Y-51110207D01*
X73661565Y-51095650D01*
X73875615Y-51021152D01*
X74275667Y-50664844D01*
X74508913Y-50182565D01*
X74509027Y-50176480D01*
X74418103Y-49964400D01*
X73154600Y-49964400D01*
X73154600Y-49984400D01*
X72900600Y-49984400D01*
X72900600Y-49964400D01*
X71637097Y-49964400D01*
X71546173Y-50176480D01*
X71546287Y-50182565D01*
X71779533Y-50664844D01*
X72179585Y-51021152D01*
X72393635Y-51095650D01*
X72320454Y-51110207D01*
X71875475Y-51407532D01*
X71578150Y-51852511D01*
X71473743Y-52377400D01*
X71578150Y-52902289D01*
X71875475Y-53347268D01*
X72320454Y-53644593D01*
X72334566Y-53647400D01*
X72320454Y-53650207D01*
X71875475Y-53947532D01*
X71694153Y-54218900D01*
X71245675Y-54218900D01*
X71245675Y-45173748D01*
X71991548Y-45919621D01*
X71823347Y-45951270D01*
X71650447Y-46062528D01*
X71534455Y-46232288D01*
X71493648Y-46433800D01*
X71493648Y-48161000D01*
X71529070Y-48349253D01*
X71640328Y-48522153D01*
X71810088Y-48638145D01*
X72011600Y-48678952D01*
X72151174Y-48678952D01*
X71779533Y-49009956D01*
X71546287Y-49492235D01*
X71546173Y-49498320D01*
X71637097Y-49710400D01*
X72900600Y-49710400D01*
X72900600Y-49690400D01*
X73154600Y-49690400D01*
X73154600Y-49710400D01*
X74418103Y-49710400D01*
X74509027Y-49498320D01*
X74508913Y-49492235D01*
X74275667Y-49009956D01*
X73904026Y-48678952D01*
X74043600Y-48678952D01*
X74231853Y-48643530D01*
X74404753Y-48532272D01*
X74520745Y-48362512D01*
X74561552Y-48161000D01*
X74561552Y-46433800D01*
X74526130Y-46245547D01*
X74414872Y-46072647D01*
X74245112Y-45956655D01*
X74043600Y-45915848D01*
X73715757Y-45915848D01*
X73672930Y-45700540D01*
X73521514Y-45473931D01*
X72308996Y-44261413D01*
X72308996Y-43487400D01*
X72262570Y-43254000D01*
X72952000Y-43254000D01*
X72952000Y-44101047D01*
X73029338Y-44287758D01*
X73172241Y-44430661D01*
X73358952Y-44508000D01*
X74206000Y-44508000D01*
X74333000Y-44381000D01*
X74333000Y-43127000D01*
X73079000Y-43127000D01*
X72952000Y-43254000D01*
X72262570Y-43254000D01*
X72255826Y-43220096D01*
X72104410Y-42993486D01*
X71009877Y-41898953D01*
X72952000Y-41898953D01*
X72952000Y-42746000D01*
X73079000Y-42873000D01*
X74333000Y-42873000D01*
X74333000Y-41619000D01*
X74206000Y-41492000D01*
X73358952Y-41492000D01*
X73172241Y-41569339D01*
X73029338Y-41712242D01*
X72952000Y-41898953D01*
X71009877Y-41898953D01*
X70297100Y-41186176D01*
X70297100Y-38317200D01*
X70243930Y-38049896D01*
X70243930Y-38049895D01*
X70092514Y-37823286D01*
X69291514Y-37022286D01*
X69064905Y-36870870D01*
X68869575Y-36832017D01*
X68787872Y-36705047D01*
X68618112Y-36589055D01*
X68416600Y-36548248D01*
X67177547Y-36548248D01*
X65314400Y-34685101D01*
X65087791Y-34533685D01*
X64820486Y-34480515D01*
X61541345Y-34480515D01*
X61508004Y-34447174D01*
X70741609Y-34447174D01*
X71084644Y-35277383D01*
X71719276Y-35913123D01*
X72548886Y-36257607D01*
X73447174Y-36258391D01*
X74277383Y-35915356D01*
X74913123Y-35280724D01*
X75257607Y-34451114D01*
X75258391Y-33552826D01*
X74915356Y-32722617D01*
X74280724Y-32086877D01*
X73451114Y-31742393D01*
X72552826Y-31741609D01*
X71722617Y-32084644D01*
X71086877Y-32719276D01*
X70742393Y-33548886D01*
X70741609Y-34447174D01*
X61508004Y-34447174D01*
X61305155Y-34244325D01*
X61305155Y-31868313D01*
X61251985Y-31601009D01*
X61100569Y-31374399D01*
X60553056Y-30826886D01*
X60326447Y-30675470D01*
X60059142Y-30622300D01*
X51662600Y-30622300D01*
X51395295Y-30675470D01*
X51168686Y-30826886D01*
X50734086Y-31261486D01*
X50582670Y-31488095D01*
X50556741Y-31618448D01*
X50364400Y-31618448D01*
X50176147Y-31653870D01*
X50003247Y-31765128D01*
X49887255Y-31934888D01*
X49846448Y-32136400D01*
X49846448Y-33863600D01*
X49881870Y-34051853D01*
X49993128Y-34224753D01*
X50162888Y-34340745D01*
X50364400Y-34381552D01*
X50556741Y-34381552D01*
X50582670Y-34511905D01*
X50734086Y-34738514D01*
X51288876Y-35293304D01*
X51515486Y-35444720D01*
X51782790Y-35497890D01*
X55154435Y-35497890D01*
X60541259Y-40884714D01*
X60767868Y-41036130D01*
X61035173Y-41089300D01*
X61294438Y-41089300D01*
X61366928Y-41201953D01*
X61536688Y-41317945D01*
X61738200Y-41358752D01*
X61916941Y-41358752D01*
X61942870Y-41489105D01*
X62094286Y-41715714D01*
X63232803Y-42854231D01*
X63232803Y-44448691D01*
X63200000Y-44442048D01*
X60660000Y-44442048D01*
X60471747Y-44477470D01*
X60298847Y-44588728D01*
X60182855Y-44758488D01*
X60142048Y-44960000D01*
X60142048Y-50032802D01*
X58503913Y-51670937D01*
X59459503Y-49520377D01*
X59550667Y-45937932D01*
X58263948Y-42593296D01*
X58004336Y-42204762D01*
X56993777Y-41185828D01*
X50679605Y-47500000D01*
X50693748Y-47514143D01*
X50514143Y-47693748D01*
X50500000Y-47679605D01*
X44185828Y-53993777D01*
X45204762Y-55004336D01*
X48479623Y-56459503D01*
X52062068Y-56550667D01*
X55406704Y-55263948D01*
X55795238Y-55004336D01*
X56130728Y-54671604D01*
X56130728Y-57970446D01*
X56100451Y-58000723D01*
X47135107Y-58000723D01*
X45225914Y-56091530D01*
X44999305Y-55940114D01*
X44732000Y-55886944D01*
X41531884Y-55886944D01*
X42000114Y-55418714D01*
X42103518Y-55263959D01*
X42151530Y-55192104D01*
X42204700Y-54924800D01*
X42204700Y-51618056D01*
X42191265Y-51550514D01*
X42151530Y-51350751D01*
X42000114Y-51124142D01*
X41618052Y-50742080D01*
X41391443Y-50590664D01*
X41124138Y-50537494D01*
X40448726Y-50537494D01*
X40528253Y-50522530D01*
X40701153Y-50411272D01*
X40817145Y-50241512D01*
X40857952Y-50040000D01*
X40857952Y-49062068D01*
X41449333Y-49062068D01*
X42736052Y-52406704D01*
X42995664Y-52795238D01*
X44006223Y-53814172D01*
X50320395Y-47500000D01*
X44006223Y-41185828D01*
X42995664Y-42204762D01*
X41540497Y-45479623D01*
X41449333Y-49062068D01*
X40857952Y-49062068D01*
X40857952Y-44960000D01*
X40822530Y-44771747D01*
X40711272Y-44598847D01*
X40541512Y-44482855D01*
X40340000Y-44442048D01*
X38847199Y-44442048D01*
X38367351Y-43962200D01*
X38477145Y-43801512D01*
X38517952Y-43600000D01*
X38517952Y-41900000D01*
X38482530Y-41711747D01*
X38371272Y-41538847D01*
X38201512Y-41422855D01*
X38000000Y-41382048D01*
X37100000Y-41382048D01*
X36911747Y-41417470D01*
X36738847Y-41528728D01*
X36622855Y-41698488D01*
X36582048Y-41900000D01*
X36582048Y-43600000D01*
X36617470Y-43788253D01*
X36728728Y-43961153D01*
X36851500Y-44045039D01*
X36851500Y-44132677D01*
X36904670Y-44399982D01*
X37056086Y-44626591D01*
X37300142Y-44870647D01*
X37282048Y-44960000D01*
X37282048Y-50040000D01*
X37317470Y-50228253D01*
X37428728Y-50401153D01*
X37598488Y-50517145D01*
X37800000Y-50557952D01*
X38371500Y-50557952D01*
X38371500Y-50674356D01*
X38424670Y-50941661D01*
X38576086Y-51168270D01*
X39137724Y-51729908D01*
X39290587Y-51832048D01*
X38650000Y-51832048D01*
X38461747Y-51867470D01*
X38288847Y-51978728D01*
X38204961Y-52101500D01*
X38154128Y-52101500D01*
X37808714Y-51756086D01*
X37582105Y-51604670D01*
X37314800Y-51551500D01*
X35143762Y-51551500D01*
X35071272Y-51438847D01*
X34901512Y-51322855D01*
X34700000Y-51282048D01*
X33900000Y-51282048D01*
X33711747Y-51317470D01*
X33538847Y-51428728D01*
X33422855Y-51598488D01*
X33382048Y-51800000D01*
X33382048Y-52700000D01*
X33417470Y-52888253D01*
X33528728Y-53061153D01*
X33601500Y-53110876D01*
X33601500Y-53638412D01*
X33538847Y-53678728D01*
X33422855Y-53848488D01*
X33382048Y-54050000D01*
X33382048Y-54069870D01*
X33311872Y-53964844D01*
X32119069Y-52772041D01*
X32119069Y-52174134D01*
X32371346Y-52174354D01*
X32698209Y-52039297D01*
X32948507Y-51789436D01*
X33019598Y-51618230D01*
X33419876Y-51217952D01*
X33750000Y-51217952D01*
X33938253Y-51182530D01*
X34111153Y-51071272D01*
X34227145Y-50901512D01*
X34267952Y-50700000D01*
X34267952Y-50504000D01*
X34342000Y-50504000D01*
X34342000Y-50801047D01*
X34419338Y-50987758D01*
X34562241Y-51130661D01*
X34748952Y-51208000D01*
X34996000Y-51208000D01*
X35123000Y-51081000D01*
X35123000Y-50377000D01*
X35377000Y-50377000D01*
X35377000Y-51081000D01*
X35504000Y-51208000D01*
X35751048Y-51208000D01*
X35937759Y-51130661D01*
X36080662Y-50987758D01*
X36158000Y-50801047D01*
X36158000Y-50504000D01*
X36031000Y-50377000D01*
X35377000Y-50377000D01*
X35123000Y-50377000D01*
X34469000Y-50377000D01*
X34342000Y-50504000D01*
X34267952Y-50504000D01*
X34267952Y-49800000D01*
X34248939Y-49698953D01*
X34342000Y-49698953D01*
X34342000Y-49996000D01*
X34469000Y-50123000D01*
X35123000Y-50123000D01*
X35123000Y-49419000D01*
X35377000Y-49419000D01*
X35377000Y-50123000D01*
X36031000Y-50123000D01*
X36158000Y-49996000D01*
X36158000Y-49698953D01*
X36080662Y-49512242D01*
X35937759Y-49369339D01*
X35751048Y-49292000D01*
X35504000Y-49292000D01*
X35377000Y-49419000D01*
X35123000Y-49419000D01*
X34996000Y-49292000D01*
X34748952Y-49292000D01*
X34562241Y-49369339D01*
X34419338Y-49512242D01*
X34342000Y-49698953D01*
X34248939Y-49698953D01*
X34232530Y-49611747D01*
X34121272Y-49438847D01*
X33951512Y-49322855D01*
X33750000Y-49282048D01*
X33369876Y-49282048D01*
X33248500Y-49160672D01*
X33248500Y-48793762D01*
X33361153Y-48721272D01*
X33477145Y-48551512D01*
X33517952Y-48350000D01*
X33517952Y-46650000D01*
X33482530Y-46461747D01*
X33471774Y-46445031D01*
X34525217Y-46445031D01*
X34522855Y-46448488D01*
X34482048Y-46650000D01*
X34482048Y-48350000D01*
X34517470Y-48538253D01*
X34628728Y-48711153D01*
X34798488Y-48827145D01*
X35000000Y-48867952D01*
X35900000Y-48867952D01*
X36088253Y-48832530D01*
X36261153Y-48721272D01*
X36377145Y-48551512D01*
X36417952Y-48350000D01*
X36417952Y-46650000D01*
X36382530Y-46461747D01*
X36271272Y-46288847D01*
X36133758Y-46194888D01*
X36129376Y-46172855D01*
X36095330Y-46001695D01*
X35943914Y-45775086D01*
X35536780Y-45367952D01*
X35900000Y-45367952D01*
X36088253Y-45332530D01*
X36261153Y-45221272D01*
X36377145Y-45051512D01*
X36417952Y-44850000D01*
X36417952Y-43150000D01*
X36382530Y-42961747D01*
X36271272Y-42788847D01*
X36148500Y-42704961D01*
X36148500Y-42450000D01*
X36095330Y-42182696D01*
X35943914Y-41956086D01*
X35936328Y-41948500D01*
X35950000Y-41948500D01*
X36217305Y-41895330D01*
X36443914Y-41743914D01*
X37069876Y-41117952D01*
X37450000Y-41117952D01*
X37638253Y-41082530D01*
X37811153Y-40971272D01*
X37927145Y-40801512D01*
X37967952Y-40600000D01*
X37967952Y-39800000D01*
X37932530Y-39611747D01*
X37821272Y-39438847D01*
X37651512Y-39322855D01*
X37450000Y-39282048D01*
X36550000Y-39282048D01*
X36361747Y-39317470D01*
X36188847Y-39428728D01*
X36072855Y-39598488D01*
X36032048Y-39800000D01*
X36032048Y-40180124D01*
X35660672Y-40551500D01*
X35525936Y-40551500D01*
X35421272Y-40388847D01*
X35251512Y-40272855D01*
X35050000Y-40232048D01*
X33450000Y-40232048D01*
X33261747Y-40267470D01*
X33088847Y-40378728D01*
X32972855Y-40548488D01*
X32932048Y-40750000D01*
X32932048Y-41750000D01*
X32967470Y-41938253D01*
X33078728Y-42111153D01*
X33248488Y-42227145D01*
X33450000Y-42267952D01*
X34280124Y-42267952D01*
X34731366Y-42719194D01*
X34638847Y-42778728D01*
X34522855Y-42948488D01*
X34482048Y-43150000D01*
X34482048Y-44850000D01*
X34517470Y-45038253D01*
X34523762Y-45048031D01*
X33477850Y-45048031D01*
X33517952Y-44850000D01*
X33517952Y-43150000D01*
X33482530Y-42961747D01*
X33371272Y-42788847D01*
X33201512Y-42672855D01*
X33000000Y-42632048D01*
X32100000Y-42632048D01*
X31911747Y-42667470D01*
X31738847Y-42778728D01*
X31622855Y-42948488D01*
X31582048Y-43150000D01*
X31582048Y-43543533D01*
X30926655Y-44198926D01*
X30775239Y-44425535D01*
X30751623Y-44544263D01*
X30722069Y-44692840D01*
X30722069Y-53061369D01*
X30775239Y-53328674D01*
X30926655Y-53555283D01*
X32119458Y-54748086D01*
X32119458Y-55888958D01*
X32172628Y-56156263D01*
X32324044Y-56382872D01*
X32893699Y-56952527D01*
X32656697Y-56999669D01*
X32599787Y-57037695D01*
X32430087Y-57151085D01*
X32056086Y-57525086D01*
X31904670Y-57751695D01*
X31870624Y-57922855D01*
X31865817Y-57947025D01*
X31738847Y-58028728D01*
X31622855Y-58198488D01*
X31582048Y-58400000D01*
X31582048Y-60100000D01*
X31617470Y-60288253D01*
X31728728Y-60461153D01*
X31898488Y-60577145D01*
X31972082Y-60592048D01*
X31400000Y-60592048D01*
X31211747Y-60627470D01*
X31038847Y-60738728D01*
X30922855Y-60908488D01*
X30882048Y-61110000D01*
X30882048Y-61288741D01*
X30751695Y-61314670D01*
X30583000Y-61427389D01*
X30583000Y-38504000D01*
X32942000Y-38504000D01*
X32942000Y-38851047D01*
X33019338Y-39037758D01*
X33162241Y-39180661D01*
X33348952Y-39258000D01*
X33996000Y-39258000D01*
X34123000Y-39131000D01*
X34123000Y-38377000D01*
X34377000Y-38377000D01*
X34377000Y-39131000D01*
X34504000Y-39258000D01*
X35151048Y-39258000D01*
X35337759Y-39180661D01*
X35480662Y-39037758D01*
X35558000Y-38851047D01*
X35558000Y-38554000D01*
X36042000Y-38554000D01*
X36042000Y-38801048D01*
X36119339Y-38987759D01*
X36262242Y-39130662D01*
X36448953Y-39208000D01*
X36746000Y-39208000D01*
X36873000Y-39081000D01*
X36873000Y-38427000D01*
X37127000Y-38427000D01*
X37127000Y-39081000D01*
X37254000Y-39208000D01*
X37551047Y-39208000D01*
X37737758Y-39130662D01*
X37880661Y-38987759D01*
X37937723Y-38850000D01*
X38032048Y-38850000D01*
X38032048Y-39650000D01*
X38067470Y-39838253D01*
X38178728Y-40011153D01*
X38348488Y-40127145D01*
X38550000Y-40167952D01*
X39450000Y-40167952D01*
X39638253Y-40132530D01*
X39811153Y-40021272D01*
X39860876Y-39948500D01*
X40045700Y-39948500D01*
X40045700Y-40454872D01*
X39956086Y-40544486D01*
X39804670Y-40771095D01*
X39804670Y-40771096D01*
X39751500Y-41038400D01*
X39751500Y-41456238D01*
X39638847Y-41528728D01*
X39522855Y-41698488D01*
X39482048Y-41900000D01*
X39482048Y-43600000D01*
X39517470Y-43788253D01*
X39628728Y-43961153D01*
X39798488Y-44077145D01*
X40000000Y-44117952D01*
X40900000Y-44117952D01*
X41088253Y-44082530D01*
X41261153Y-43971272D01*
X41377145Y-43801512D01*
X41417952Y-43600000D01*
X41417952Y-41900000D01*
X41382530Y-41711747D01*
X41271272Y-41538847D01*
X41148500Y-41454961D01*
X41148500Y-41327728D01*
X41238114Y-41238114D01*
X41389530Y-41011504D01*
X41390580Y-41006223D01*
X44185828Y-41006223D01*
X50500000Y-47320395D01*
X56814172Y-41006223D01*
X55795238Y-39995664D01*
X52520377Y-38540497D01*
X48937932Y-38449333D01*
X45593296Y-39736052D01*
X45204762Y-39995664D01*
X44185828Y-41006223D01*
X41390580Y-41006223D01*
X41442700Y-40744200D01*
X41442700Y-39804458D01*
X41497418Y-39749836D01*
X41633046Y-39423209D01*
X41633354Y-39069543D01*
X41498297Y-38742680D01*
X41248436Y-38492382D01*
X40921809Y-38356754D01*
X40568143Y-38356446D01*
X40241280Y-38491503D01*
X40181178Y-38551500D01*
X39861588Y-38551500D01*
X39821272Y-38488847D01*
X39651512Y-38372855D01*
X39450000Y-38332048D01*
X38550000Y-38332048D01*
X38361747Y-38367470D01*
X38188847Y-38478728D01*
X38072855Y-38648488D01*
X38032048Y-38850000D01*
X37937723Y-38850000D01*
X37958000Y-38801048D01*
X37958000Y-38554000D01*
X37831000Y-38427000D01*
X37127000Y-38427000D01*
X36873000Y-38427000D01*
X36169000Y-38427000D01*
X36042000Y-38554000D01*
X35558000Y-38554000D01*
X35558000Y-38504000D01*
X35431000Y-38377000D01*
X34377000Y-38377000D01*
X34123000Y-38377000D01*
X33069000Y-38377000D01*
X32942000Y-38504000D01*
X30583000Y-38504000D01*
X30583000Y-37648953D01*
X32942000Y-37648953D01*
X32942000Y-37996000D01*
X33069000Y-38123000D01*
X34123000Y-38123000D01*
X34123000Y-37369000D01*
X34377000Y-37369000D01*
X34377000Y-38123000D01*
X35431000Y-38123000D01*
X35558000Y-37996000D01*
X35558000Y-37798952D01*
X36042000Y-37798952D01*
X36042000Y-38046000D01*
X36169000Y-38173000D01*
X36873000Y-38173000D01*
X36873000Y-37519000D01*
X37127000Y-37519000D01*
X37127000Y-38173000D01*
X37831000Y-38173000D01*
X37958000Y-38046000D01*
X37958000Y-37798952D01*
X37880661Y-37612241D01*
X37737758Y-37469338D01*
X37551047Y-37392000D01*
X37254000Y-37392000D01*
X37127000Y-37519000D01*
X36873000Y-37519000D01*
X36746000Y-37392000D01*
X36448953Y-37392000D01*
X36262242Y-37469338D01*
X36119339Y-37612241D01*
X36042000Y-37798952D01*
X35558000Y-37798952D01*
X35558000Y-37648953D01*
X35480662Y-37462242D01*
X35337759Y-37319339D01*
X35151048Y-37242000D01*
X34504000Y-37242000D01*
X34377000Y-37369000D01*
X34123000Y-37369000D01*
X33996000Y-37242000D01*
X33348952Y-37242000D01*
X33162241Y-37319339D01*
X33019338Y-37462242D01*
X32942000Y-37648953D01*
X30583000Y-37648953D01*
X30583000Y-34447174D01*
X34741609Y-34447174D01*
X35084644Y-35277383D01*
X35719276Y-35913123D01*
X36548886Y-36257607D01*
X37447174Y-36258391D01*
X38277383Y-35915356D01*
X38913123Y-35280724D01*
X39257607Y-34451114D01*
X39258391Y-33552826D01*
X38915356Y-32722617D01*
X38280724Y-32086877D01*
X37451114Y-31742393D01*
X36552826Y-31741609D01*
X35722617Y-32084644D01*
X35086877Y-32719276D01*
X34742393Y-33548886D01*
X34741609Y-34447174D01*
X30583000Y-34447174D01*
X30583000Y-32150765D01*
X30596317Y-32118615D01*
X30724964Y-31471864D01*
X31024131Y-31024129D01*
X31471863Y-30724964D01*
X32118615Y-30596318D01*
X32150768Y-30583000D01*
X77849235Y-30583000D01*
X77881385Y-30596317D01*
X77881385Y-30596317D01*
G37*
X77881385Y-30596317D02*
X78528136Y-30724964D01*
X78975871Y-31024131D01*
X79275036Y-31471863D01*
X79403682Y-32118615D01*
X79417000Y-32150768D01*
X79417000Y-77849232D01*
X79403682Y-77881385D01*
X79275036Y-78528137D01*
X78975871Y-78975869D01*
X78528136Y-79275036D01*
X77881385Y-79403683D01*
X77849235Y-79417000D01*
X68361438Y-79417000D01*
X68475920Y-79369697D01*
X68726218Y-79119836D01*
X68861846Y-78793209D01*
X68861915Y-78714513D01*
X69990914Y-77585514D01*
X70108386Y-77409705D01*
X70142330Y-77358904D01*
X70195500Y-77091600D01*
X70195500Y-70995600D01*
X70142330Y-70728296D01*
X69990914Y-70501686D01*
X68811287Y-69322059D01*
X68811354Y-69244743D01*
X68676297Y-68917880D01*
X68620700Y-68862186D01*
X68620700Y-68582493D01*
X69532121Y-69493914D01*
X69758730Y-69645330D01*
X70026035Y-69698500D01*
X71232048Y-69698500D01*
X71232048Y-69800000D01*
X71267470Y-69988253D01*
X71378728Y-70161153D01*
X71548488Y-70277145D01*
X71750000Y-70317952D01*
X72750000Y-70317952D01*
X72938253Y-70282530D01*
X73111153Y-70171272D01*
X73227145Y-70001512D01*
X73267952Y-69800000D01*
X73267952Y-69254000D01*
X74242000Y-69254000D01*
X74242000Y-69901048D01*
X74319339Y-70087759D01*
X74462242Y-70230662D01*
X74648953Y-70308000D01*
X74996000Y-70308000D01*
X75123000Y-70181000D01*
X75123000Y-69127000D01*
X75377000Y-69127000D01*
X75377000Y-70181000D01*
X75504000Y-70308000D01*
X75851047Y-70308000D01*
X76037758Y-70230662D01*
X76180661Y-70087759D01*
X76258000Y-69901048D01*
X76258000Y-69254000D01*
X76131000Y-69127000D01*
X75377000Y-69127000D01*
X75123000Y-69127000D01*
X74369000Y-69127000D01*
X74242000Y-69254000D01*
X73267952Y-69254000D01*
X73267952Y-68200000D01*
X73248939Y-68098952D01*
X74242000Y-68098952D01*
X74242000Y-68746000D01*
X74369000Y-68873000D01*
X75123000Y-68873000D01*
X75123000Y-67819000D01*
X75377000Y-67819000D01*
X75377000Y-68873000D01*
X76131000Y-68873000D01*
X76258000Y-68746000D01*
X76258000Y-68098952D01*
X76180661Y-67912241D01*
X76037758Y-67769338D01*
X75851047Y-67692000D01*
X75504000Y-67692000D01*
X75377000Y-67819000D01*
X75123000Y-67819000D01*
X74996000Y-67692000D01*
X74648953Y-67692000D01*
X74462242Y-67769338D01*
X74319339Y-67912241D01*
X74242000Y-68098952D01*
X73248939Y-68098952D01*
X73232530Y-68011747D01*
X73121272Y-67838847D01*
X72951512Y-67722855D01*
X72750000Y-67682048D01*
X71750000Y-67682048D01*
X71561747Y-67717470D01*
X71388847Y-67828728D01*
X71272855Y-67998488D01*
X71232048Y-68200000D01*
X71232048Y-68301500D01*
X70315363Y-68301500D01*
X67923500Y-65909637D01*
X67923500Y-65708301D01*
X68031086Y-65869314D01*
X68655686Y-66493914D01*
X68882295Y-66645330D01*
X69149600Y-66698500D01*
X71332048Y-66698500D01*
X71332048Y-66850000D01*
X71367470Y-67038253D01*
X71478728Y-67211153D01*
X71648488Y-67327145D01*
X71850000Y-67367952D01*
X72750000Y-67367952D01*
X72938253Y-67332530D01*
X73111153Y-67221272D01*
X73227145Y-67051512D01*
X73267952Y-66850000D01*
X73267952Y-65150000D01*
X73232530Y-64961747D01*
X73121272Y-64788847D01*
X72951512Y-64672855D01*
X72750000Y-64632048D01*
X71850000Y-64632048D01*
X71661747Y-64667470D01*
X71488847Y-64778728D01*
X71372855Y-64948488D01*
X71332048Y-65150000D01*
X71332048Y-65301500D01*
X69438928Y-65301500D01*
X69223500Y-65086072D01*
X69223500Y-64067952D01*
X69375000Y-64067952D01*
X69563253Y-64032530D01*
X69736153Y-63921272D01*
X69852145Y-63751512D01*
X69888193Y-63573500D01*
X71332048Y-63573500D01*
X71332048Y-63600000D01*
X71367470Y-63788253D01*
X71478728Y-63961153D01*
X71648488Y-64077145D01*
X71850000Y-64117952D01*
X72750000Y-64117952D01*
X72938253Y-64082530D01*
X73111153Y-63971272D01*
X73227145Y-63801512D01*
X73267952Y-63600000D01*
X73267952Y-63004000D01*
X74242000Y-63004000D01*
X74242000Y-63701048D01*
X74319339Y-63887759D01*
X74462242Y-64030662D01*
X74648953Y-64108000D01*
X74946000Y-64108000D01*
X75073000Y-63981000D01*
X75073000Y-62877000D01*
X74369000Y-62877000D01*
X74242000Y-63004000D01*
X73267952Y-63004000D01*
X73267952Y-61900000D01*
X73248939Y-61798952D01*
X74242000Y-61798952D01*
X74242000Y-62496000D01*
X74369000Y-62623000D01*
X75073000Y-62623000D01*
X75073000Y-61519000D01*
X74946000Y-61392000D01*
X74648953Y-61392000D01*
X74462242Y-61469338D01*
X74319339Y-61612241D01*
X74242000Y-61798952D01*
X73248939Y-61798952D01*
X73232530Y-61711747D01*
X73121272Y-61538847D01*
X73101216Y-61525144D01*
X73144712Y-61496081D01*
X73229057Y-61496154D01*
X73555920Y-61361097D01*
X73806218Y-61111236D01*
X73941846Y-60784609D01*
X73942154Y-60430943D01*
X73807097Y-60104080D01*
X73557236Y-59853782D01*
X73230609Y-59718154D01*
X72876943Y-59717846D01*
X72550080Y-59852903D01*
X72299782Y-60102764D01*
X72222242Y-60289499D01*
X68328601Y-60289499D01*
X68061296Y-60342669D01*
X67979799Y-60397124D01*
X67979799Y-59770782D01*
X68094558Y-59656023D01*
X74008807Y-59656023D01*
X74276112Y-59602853D01*
X74502721Y-59451437D01*
X75208065Y-58746093D01*
X75910500Y-59448528D01*
X75910500Y-61458047D01*
X75751047Y-61392000D01*
X75454000Y-61392000D01*
X75327000Y-61519000D01*
X75327000Y-62623000D01*
X75347000Y-62623000D01*
X75347000Y-62877000D01*
X75327000Y-62877000D01*
X75327000Y-63981000D01*
X75454000Y-64108000D01*
X75751047Y-64108000D01*
X75910500Y-64041953D01*
X75910500Y-64713160D01*
X75851512Y-64672855D01*
X75650000Y-64632048D01*
X74750000Y-64632048D01*
X74561747Y-64667470D01*
X74388847Y-64778728D01*
X74272855Y-64948488D01*
X74232048Y-65150000D01*
X74232048Y-66850000D01*
X74267470Y-67038253D01*
X74378728Y-67211153D01*
X74548488Y-67327145D01*
X74750000Y-67367952D01*
X75650000Y-67367952D01*
X75838253Y-67332530D01*
X76011153Y-67221272D01*
X76127145Y-67051512D01*
X76167952Y-66850000D01*
X76167952Y-66671259D01*
X76298305Y-66645330D01*
X76524914Y-66493914D01*
X77102914Y-65915914D01*
X77225337Y-65732695D01*
X77254330Y-65689304D01*
X77307500Y-65422000D01*
X77307500Y-59159200D01*
X77269175Y-58966527D01*
X77254330Y-58891895D01*
X77102914Y-58665286D01*
X76306381Y-57868753D01*
X76306381Y-46073247D01*
X77260981Y-45118647D01*
X77328527Y-45073514D01*
X77493914Y-44908127D01*
X77645330Y-44681517D01*
X77698500Y-44414213D01*
X77698500Y-44343043D01*
X77853097Y-44279165D01*
X78277674Y-43855328D01*
X78507737Y-43301276D01*
X78508261Y-42701356D01*
X78279165Y-42146903D01*
X77855328Y-41722326D01*
X77301276Y-41492263D01*
X76701356Y-41491739D01*
X76146903Y-41720835D01*
X75968000Y-41899426D01*
X75968000Y-41898953D01*
X75890662Y-41712242D01*
X75747759Y-41569339D01*
X75561048Y-41492000D01*
X74714000Y-41492000D01*
X74587000Y-41619000D01*
X74587000Y-42873000D01*
X74607000Y-42873000D01*
X74607000Y-43127000D01*
X74587000Y-43127000D01*
X74587000Y-44381000D01*
X74714000Y-44508000D01*
X75561048Y-44508000D01*
X75747759Y-44430661D01*
X75890662Y-44287758D01*
X75968000Y-44101047D01*
X75968000Y-44100694D01*
X76135493Y-44268479D01*
X75113967Y-45290005D01*
X74962551Y-45516614D01*
X74941256Y-45623670D01*
X74909381Y-45783919D01*
X74909381Y-51877383D01*
X74691905Y-51732070D01*
X74424600Y-51678900D01*
X74361047Y-51678900D01*
X74179725Y-51407532D01*
X73734746Y-51110207D01*
X73661565Y-51095650D01*
X73875615Y-51021152D01*
X74275667Y-50664844D01*
X74508913Y-50182565D01*
X74509027Y-50176480D01*
X74418103Y-49964400D01*
X73154600Y-49964400D01*
X73154600Y-49984400D01*
X72900600Y-49984400D01*
X72900600Y-49964400D01*
X71637097Y-49964400D01*
X71546173Y-50176480D01*
X71546287Y-50182565D01*
X71779533Y-50664844D01*
X72179585Y-51021152D01*
X72393635Y-51095650D01*
X72320454Y-51110207D01*
X71875475Y-51407532D01*
X71578150Y-51852511D01*
X71473743Y-52377400D01*
X71578150Y-52902289D01*
X71875475Y-53347268D01*
X72320454Y-53644593D01*
X72334566Y-53647400D01*
X72320454Y-53650207D01*
X71875475Y-53947532D01*
X71694153Y-54218900D01*
X71245675Y-54218900D01*
X71245675Y-45173748D01*
X71991548Y-45919621D01*
X71823347Y-45951270D01*
X71650447Y-46062528D01*
X71534455Y-46232288D01*
X71493648Y-46433800D01*
X71493648Y-48161000D01*
X71529070Y-48349253D01*
X71640328Y-48522153D01*
X71810088Y-48638145D01*
X72011600Y-48678952D01*
X72151174Y-48678952D01*
X71779533Y-49009956D01*
X71546287Y-49492235D01*
X71546173Y-49498320D01*
X71637097Y-49710400D01*
X72900600Y-49710400D01*
X72900600Y-49690400D01*
X73154600Y-49690400D01*
X73154600Y-49710400D01*
X74418103Y-49710400D01*
X74509027Y-49498320D01*
X74508913Y-49492235D01*
X74275667Y-49009956D01*
X73904026Y-48678952D01*
X74043600Y-48678952D01*
X74231853Y-48643530D01*
X74404753Y-48532272D01*
X74520745Y-48362512D01*
X74561552Y-48161000D01*
X74561552Y-46433800D01*
X74526130Y-46245547D01*
X74414872Y-46072647D01*
X74245112Y-45956655D01*
X74043600Y-45915848D01*
X73715757Y-45915848D01*
X73672930Y-45700540D01*
X73521514Y-45473931D01*
X72308996Y-44261413D01*
X72308996Y-43487400D01*
X72262570Y-43254000D01*
X72952000Y-43254000D01*
X72952000Y-44101047D01*
X73029338Y-44287758D01*
X73172241Y-44430661D01*
X73358952Y-44508000D01*
X74206000Y-44508000D01*
X74333000Y-44381000D01*
X74333000Y-43127000D01*
X73079000Y-43127000D01*
X72952000Y-43254000D01*
X72262570Y-43254000D01*
X72255826Y-43220096D01*
X72104410Y-42993486D01*
X71009877Y-41898953D01*
X72952000Y-41898953D01*
X72952000Y-42746000D01*
X73079000Y-42873000D01*
X74333000Y-42873000D01*
X74333000Y-41619000D01*
X74206000Y-41492000D01*
X73358952Y-41492000D01*
X73172241Y-41569339D01*
X73029338Y-41712242D01*
X72952000Y-41898953D01*
X71009877Y-41898953D01*
X70297100Y-41186176D01*
X70297100Y-38317200D01*
X70243930Y-38049896D01*
X70243930Y-38049895D01*
X70092514Y-37823286D01*
X69291514Y-37022286D01*
X69064905Y-36870870D01*
X68869575Y-36832017D01*
X68787872Y-36705047D01*
X68618112Y-36589055D01*
X68416600Y-36548248D01*
X67177547Y-36548248D01*
X65314400Y-34685101D01*
X65087791Y-34533685D01*
X64820486Y-34480515D01*
X61541345Y-34480515D01*
X61508004Y-34447174D01*
X70741609Y-34447174D01*
X71084644Y-35277383D01*
X71719276Y-35913123D01*
X72548886Y-36257607D01*
X73447174Y-36258391D01*
X74277383Y-35915356D01*
X74913123Y-35280724D01*
X75257607Y-34451114D01*
X75258391Y-33552826D01*
X74915356Y-32722617D01*
X74280724Y-32086877D01*
X73451114Y-31742393D01*
X72552826Y-31741609D01*
X71722617Y-32084644D01*
X71086877Y-32719276D01*
X70742393Y-33548886D01*
X70741609Y-34447174D01*
X61508004Y-34447174D01*
X61305155Y-34244325D01*
X61305155Y-31868313D01*
X61251985Y-31601009D01*
X61100569Y-31374399D01*
X60553056Y-30826886D01*
X60326447Y-30675470D01*
X60059142Y-30622300D01*
X51662600Y-30622300D01*
X51395295Y-30675470D01*
X51168686Y-30826886D01*
X50734086Y-31261486D01*
X50582670Y-31488095D01*
X50556741Y-31618448D01*
X50364400Y-31618448D01*
X50176147Y-31653870D01*
X50003247Y-31765128D01*
X49887255Y-31934888D01*
X49846448Y-32136400D01*
X49846448Y-33863600D01*
X49881870Y-34051853D01*
X49993128Y-34224753D01*
X50162888Y-34340745D01*
X50364400Y-34381552D01*
X50556741Y-34381552D01*
X50582670Y-34511905D01*
X50734086Y-34738514D01*
X51288876Y-35293304D01*
X51515486Y-35444720D01*
X51782790Y-35497890D01*
X55154435Y-35497890D01*
X60541259Y-40884714D01*
X60767868Y-41036130D01*
X61035173Y-41089300D01*
X61294438Y-41089300D01*
X61366928Y-41201953D01*
X61536688Y-41317945D01*
X61738200Y-41358752D01*
X61916941Y-41358752D01*
X61942870Y-41489105D01*
X62094286Y-41715714D01*
X63232803Y-42854231D01*
X63232803Y-44448691D01*
X63200000Y-44442048D01*
X60660000Y-44442048D01*
X60471747Y-44477470D01*
X60298847Y-44588728D01*
X60182855Y-44758488D01*
X60142048Y-44960000D01*
X60142048Y-50032802D01*
X58503913Y-51670937D01*
X59459503Y-49520377D01*
X59550667Y-45937932D01*
X58263948Y-42593296D01*
X58004336Y-42204762D01*
X56993777Y-41185828D01*
X50679605Y-47500000D01*
X50693748Y-47514143D01*
X50514143Y-47693748D01*
X50500000Y-47679605D01*
X44185828Y-53993777D01*
X45204762Y-55004336D01*
X48479623Y-56459503D01*
X52062068Y-56550667D01*
X55406704Y-55263948D01*
X55795238Y-55004336D01*
X56130728Y-54671604D01*
X56130728Y-57970446D01*
X56100451Y-58000723D01*
X47135107Y-58000723D01*
X45225914Y-56091530D01*
X44999305Y-55940114D01*
X44732000Y-55886944D01*
X41531884Y-55886944D01*
X42000114Y-55418714D01*
X42103518Y-55263959D01*
X42151530Y-55192104D01*
X42204700Y-54924800D01*
X42204700Y-51618056D01*
X42191265Y-51550514D01*
X42151530Y-51350751D01*
X42000114Y-51124142D01*
X41618052Y-50742080D01*
X41391443Y-50590664D01*
X41124138Y-50537494D01*
X40448726Y-50537494D01*
X40528253Y-50522530D01*
X40701153Y-50411272D01*
X40817145Y-50241512D01*
X40857952Y-50040000D01*
X40857952Y-49062068D01*
X41449333Y-49062068D01*
X42736052Y-52406704D01*
X42995664Y-52795238D01*
X44006223Y-53814172D01*
X50320395Y-47500000D01*
X44006223Y-41185828D01*
X42995664Y-42204762D01*
X41540497Y-45479623D01*
X41449333Y-49062068D01*
X40857952Y-49062068D01*
X40857952Y-44960000D01*
X40822530Y-44771747D01*
X40711272Y-44598847D01*
X40541512Y-44482855D01*
X40340000Y-44442048D01*
X38847199Y-44442048D01*
X38367351Y-43962200D01*
X38477145Y-43801512D01*
X38517952Y-43600000D01*
X38517952Y-41900000D01*
X38482530Y-41711747D01*
X38371272Y-41538847D01*
X38201512Y-41422855D01*
X38000000Y-41382048D01*
X37100000Y-41382048D01*
X36911747Y-41417470D01*
X36738847Y-41528728D01*
X36622855Y-41698488D01*
X36582048Y-41900000D01*
X36582048Y-43600000D01*
X36617470Y-43788253D01*
X36728728Y-43961153D01*
X36851500Y-44045039D01*
X36851500Y-44132677D01*
X36904670Y-44399982D01*
X37056086Y-44626591D01*
X37300142Y-44870647D01*
X37282048Y-44960000D01*
X37282048Y-50040000D01*
X37317470Y-50228253D01*
X37428728Y-50401153D01*
X37598488Y-50517145D01*
X37800000Y-50557952D01*
X38371500Y-50557952D01*
X38371500Y-50674356D01*
X38424670Y-50941661D01*
X38576086Y-51168270D01*
X39137724Y-51729908D01*
X39290587Y-51832048D01*
X38650000Y-51832048D01*
X38461747Y-51867470D01*
X38288847Y-51978728D01*
X38204961Y-52101500D01*
X38154128Y-52101500D01*
X37808714Y-51756086D01*
X37582105Y-51604670D01*
X37314800Y-51551500D01*
X35143762Y-51551500D01*
X35071272Y-51438847D01*
X34901512Y-51322855D01*
X34700000Y-51282048D01*
X33900000Y-51282048D01*
X33711747Y-51317470D01*
X33538847Y-51428728D01*
X33422855Y-51598488D01*
X33382048Y-51800000D01*
X33382048Y-52700000D01*
X33417470Y-52888253D01*
X33528728Y-53061153D01*
X33601500Y-53110876D01*
X33601500Y-53638412D01*
X33538847Y-53678728D01*
X33422855Y-53848488D01*
X33382048Y-54050000D01*
X33382048Y-54069870D01*
X33311872Y-53964844D01*
X32119069Y-52772041D01*
X32119069Y-52174134D01*
X32371346Y-52174354D01*
X32698209Y-52039297D01*
X32948507Y-51789436D01*
X33019598Y-51618230D01*
X33419876Y-51217952D01*
X33750000Y-51217952D01*
X33938253Y-51182530D01*
X34111153Y-51071272D01*
X34227145Y-50901512D01*
X34267952Y-50700000D01*
X34267952Y-50504000D01*
X34342000Y-50504000D01*
X34342000Y-50801047D01*
X34419338Y-50987758D01*
X34562241Y-51130661D01*
X34748952Y-51208000D01*
X34996000Y-51208000D01*
X35123000Y-51081000D01*
X35123000Y-50377000D01*
X35377000Y-50377000D01*
X35377000Y-51081000D01*
X35504000Y-51208000D01*
X35751048Y-51208000D01*
X35937759Y-51130661D01*
X36080662Y-50987758D01*
X36158000Y-50801047D01*
X36158000Y-50504000D01*
X36031000Y-50377000D01*
X35377000Y-50377000D01*
X35123000Y-50377000D01*
X34469000Y-50377000D01*
X34342000Y-50504000D01*
X34267952Y-50504000D01*
X34267952Y-49800000D01*
X34248939Y-49698953D01*
X34342000Y-49698953D01*
X34342000Y-49996000D01*
X34469000Y-50123000D01*
X35123000Y-50123000D01*
X35123000Y-49419000D01*
X35377000Y-49419000D01*
X35377000Y-50123000D01*
X36031000Y-50123000D01*
X36158000Y-49996000D01*
X36158000Y-49698953D01*
X36080662Y-49512242D01*
X35937759Y-49369339D01*
X35751048Y-49292000D01*
X35504000Y-49292000D01*
X35377000Y-49419000D01*
X35123000Y-49419000D01*
X34996000Y-49292000D01*
X34748952Y-49292000D01*
X34562241Y-49369339D01*
X34419338Y-49512242D01*
X34342000Y-49698953D01*
X34248939Y-49698953D01*
X34232530Y-49611747D01*
X34121272Y-49438847D01*
X33951512Y-49322855D01*
X33750000Y-49282048D01*
X33369876Y-49282048D01*
X33248500Y-49160672D01*
X33248500Y-48793762D01*
X33361153Y-48721272D01*
X33477145Y-48551512D01*
X33517952Y-48350000D01*
X33517952Y-46650000D01*
X33482530Y-46461747D01*
X33471774Y-46445031D01*
X34525217Y-46445031D01*
X34522855Y-46448488D01*
X34482048Y-46650000D01*
X34482048Y-48350000D01*
X34517470Y-48538253D01*
X34628728Y-48711153D01*
X34798488Y-48827145D01*
X35000000Y-48867952D01*
X35900000Y-48867952D01*
X36088253Y-48832530D01*
X36261153Y-48721272D01*
X36377145Y-48551512D01*
X36417952Y-48350000D01*
X36417952Y-46650000D01*
X36382530Y-46461747D01*
X36271272Y-46288847D01*
X36133758Y-46194888D01*
X36129376Y-46172855D01*
X36095330Y-46001695D01*
X35943914Y-45775086D01*
X35536780Y-45367952D01*
X35900000Y-45367952D01*
X36088253Y-45332530D01*
X36261153Y-45221272D01*
X36377145Y-45051512D01*
X36417952Y-44850000D01*
X36417952Y-43150000D01*
X36382530Y-42961747D01*
X36271272Y-42788847D01*
X36148500Y-42704961D01*
X36148500Y-42450000D01*
X36095330Y-42182696D01*
X35943914Y-41956086D01*
X35936328Y-41948500D01*
X35950000Y-41948500D01*
X36217305Y-41895330D01*
X36443914Y-41743914D01*
X37069876Y-41117952D01*
X37450000Y-41117952D01*
X37638253Y-41082530D01*
X37811153Y-40971272D01*
X37927145Y-40801512D01*
X37967952Y-40600000D01*
X37967952Y-39800000D01*
X37932530Y-39611747D01*
X37821272Y-39438847D01*
X37651512Y-39322855D01*
X37450000Y-39282048D01*
X36550000Y-39282048D01*
X36361747Y-39317470D01*
X36188847Y-39428728D01*
X36072855Y-39598488D01*
X36032048Y-39800000D01*
X36032048Y-40180124D01*
X35660672Y-40551500D01*
X35525936Y-40551500D01*
X35421272Y-40388847D01*
X35251512Y-40272855D01*
X35050000Y-40232048D01*
X33450000Y-40232048D01*
X33261747Y-40267470D01*
X33088847Y-40378728D01*
X32972855Y-40548488D01*
X32932048Y-40750000D01*
X32932048Y-41750000D01*
X32967470Y-41938253D01*
X33078728Y-42111153D01*
X33248488Y-42227145D01*
X33450000Y-42267952D01*
X34280124Y-42267952D01*
X34731366Y-42719194D01*
X34638847Y-42778728D01*
X34522855Y-42948488D01*
X34482048Y-43150000D01*
X34482048Y-44850000D01*
X34517470Y-45038253D01*
X34523762Y-45048031D01*
X33477850Y-45048031D01*
X33517952Y-44850000D01*
X33517952Y-43150000D01*
X33482530Y-42961747D01*
X33371272Y-42788847D01*
X33201512Y-42672855D01*
X33000000Y-42632048D01*
X32100000Y-42632048D01*
X31911747Y-42667470D01*
X31738847Y-42778728D01*
X31622855Y-42948488D01*
X31582048Y-43150000D01*
X31582048Y-43543533D01*
X30926655Y-44198926D01*
X30775239Y-44425535D01*
X30751623Y-44544263D01*
X30722069Y-44692840D01*
X30722069Y-53061369D01*
X30775239Y-53328674D01*
X30926655Y-53555283D01*
X32119458Y-54748086D01*
X32119458Y-55888958D01*
X32172628Y-56156263D01*
X32324044Y-56382872D01*
X32893699Y-56952527D01*
X32656697Y-56999669D01*
X32599787Y-57037695D01*
X32430087Y-57151085D01*
X32056086Y-57525086D01*
X31904670Y-57751695D01*
X31870624Y-57922855D01*
X31865817Y-57947025D01*
X31738847Y-58028728D01*
X31622855Y-58198488D01*
X31582048Y-58400000D01*
X31582048Y-60100000D01*
X31617470Y-60288253D01*
X31728728Y-60461153D01*
X31898488Y-60577145D01*
X31972082Y-60592048D01*
X31400000Y-60592048D01*
X31211747Y-60627470D01*
X31038847Y-60738728D01*
X30922855Y-60908488D01*
X30882048Y-61110000D01*
X30882048Y-61288741D01*
X30751695Y-61314670D01*
X30583000Y-61427389D01*
X30583000Y-38504000D01*
X32942000Y-38504000D01*
X32942000Y-38851047D01*
X33019338Y-39037758D01*
X33162241Y-39180661D01*
X33348952Y-39258000D01*
X33996000Y-39258000D01*
X34123000Y-39131000D01*
X34123000Y-38377000D01*
X34377000Y-38377000D01*
X34377000Y-39131000D01*
X34504000Y-39258000D01*
X35151048Y-39258000D01*
X35337759Y-39180661D01*
X35480662Y-39037758D01*
X35558000Y-38851047D01*
X35558000Y-38554000D01*
X36042000Y-38554000D01*
X36042000Y-38801048D01*
X36119339Y-38987759D01*
X36262242Y-39130662D01*
X36448953Y-39208000D01*
X36746000Y-39208000D01*
X36873000Y-39081000D01*
X36873000Y-38427000D01*
X37127000Y-38427000D01*
X37127000Y-39081000D01*
X37254000Y-39208000D01*
X37551047Y-39208000D01*
X37737758Y-39130662D01*
X37880661Y-38987759D01*
X37937723Y-38850000D01*
X38032048Y-38850000D01*
X38032048Y-39650000D01*
X38067470Y-39838253D01*
X38178728Y-40011153D01*
X38348488Y-40127145D01*
X38550000Y-40167952D01*
X39450000Y-40167952D01*
X39638253Y-40132530D01*
X39811153Y-40021272D01*
X39860876Y-39948500D01*
X40045700Y-39948500D01*
X40045700Y-40454872D01*
X39956086Y-40544486D01*
X39804670Y-40771095D01*
X39804670Y-40771096D01*
X39751500Y-41038400D01*
X39751500Y-41456238D01*
X39638847Y-41528728D01*
X39522855Y-41698488D01*
X39482048Y-41900000D01*
X39482048Y-43600000D01*
X39517470Y-43788253D01*
X39628728Y-43961153D01*
X39798488Y-44077145D01*
X40000000Y-44117952D01*
X40900000Y-44117952D01*
X41088253Y-44082530D01*
X41261153Y-43971272D01*
X41377145Y-43801512D01*
X41417952Y-43600000D01*
X41417952Y-41900000D01*
X41382530Y-41711747D01*
X41271272Y-41538847D01*
X41148500Y-41454961D01*
X41148500Y-41327728D01*
X41238114Y-41238114D01*
X41389530Y-41011504D01*
X41390580Y-41006223D01*
X44185828Y-41006223D01*
X50500000Y-47320395D01*
X56814172Y-41006223D01*
X55795238Y-39995664D01*
X52520377Y-38540497D01*
X48937932Y-38449333D01*
X45593296Y-39736052D01*
X45204762Y-39995664D01*
X44185828Y-41006223D01*
X41390580Y-41006223D01*
X41442700Y-40744200D01*
X41442700Y-39804458D01*
X41497418Y-39749836D01*
X41633046Y-39423209D01*
X41633354Y-39069543D01*
X41498297Y-38742680D01*
X41248436Y-38492382D01*
X40921809Y-38356754D01*
X40568143Y-38356446D01*
X40241280Y-38491503D01*
X40181178Y-38551500D01*
X39861588Y-38551500D01*
X39821272Y-38488847D01*
X39651512Y-38372855D01*
X39450000Y-38332048D01*
X38550000Y-38332048D01*
X38361747Y-38367470D01*
X38188847Y-38478728D01*
X38072855Y-38648488D01*
X38032048Y-38850000D01*
X37937723Y-38850000D01*
X37958000Y-38801048D01*
X37958000Y-38554000D01*
X37831000Y-38427000D01*
X37127000Y-38427000D01*
X36873000Y-38427000D01*
X36169000Y-38427000D01*
X36042000Y-38554000D01*
X35558000Y-38554000D01*
X35558000Y-38504000D01*
X35431000Y-38377000D01*
X34377000Y-38377000D01*
X34123000Y-38377000D01*
X33069000Y-38377000D01*
X32942000Y-38504000D01*
X30583000Y-38504000D01*
X30583000Y-37648953D01*
X32942000Y-37648953D01*
X32942000Y-37996000D01*
X33069000Y-38123000D01*
X34123000Y-38123000D01*
X34123000Y-37369000D01*
X34377000Y-37369000D01*
X34377000Y-38123000D01*
X35431000Y-38123000D01*
X35558000Y-37996000D01*
X35558000Y-37798952D01*
X36042000Y-37798952D01*
X36042000Y-38046000D01*
X36169000Y-38173000D01*
X36873000Y-38173000D01*
X36873000Y-37519000D01*
X37127000Y-37519000D01*
X37127000Y-38173000D01*
X37831000Y-38173000D01*
X37958000Y-38046000D01*
X37958000Y-37798952D01*
X37880661Y-37612241D01*
X37737758Y-37469338D01*
X37551047Y-37392000D01*
X37254000Y-37392000D01*
X37127000Y-37519000D01*
X36873000Y-37519000D01*
X36746000Y-37392000D01*
X36448953Y-37392000D01*
X36262242Y-37469338D01*
X36119339Y-37612241D01*
X36042000Y-37798952D01*
X35558000Y-37798952D01*
X35558000Y-37648953D01*
X35480662Y-37462242D01*
X35337759Y-37319339D01*
X35151048Y-37242000D01*
X34504000Y-37242000D01*
X34377000Y-37369000D01*
X34123000Y-37369000D01*
X33996000Y-37242000D01*
X33348952Y-37242000D01*
X33162241Y-37319339D01*
X33019338Y-37462242D01*
X32942000Y-37648953D01*
X30583000Y-37648953D01*
X30583000Y-34447174D01*
X34741609Y-34447174D01*
X35084644Y-35277383D01*
X35719276Y-35913123D01*
X36548886Y-36257607D01*
X37447174Y-36258391D01*
X38277383Y-35915356D01*
X38913123Y-35280724D01*
X39257607Y-34451114D01*
X39258391Y-33552826D01*
X38915356Y-32722617D01*
X38280724Y-32086877D01*
X37451114Y-31742393D01*
X36552826Y-31741609D01*
X35722617Y-32084644D01*
X35086877Y-32719276D01*
X34742393Y-33548886D01*
X34741609Y-34447174D01*
X30583000Y-34447174D01*
X30583000Y-32150765D01*
X30596317Y-32118615D01*
X30724964Y-31471864D01*
X31024131Y-31024129D01*
X31471863Y-30724964D01*
X32118615Y-30596318D01*
X32150768Y-30583000D01*
X77849235Y-30583000D01*
X77881385Y-30596317D01*
G36*
X37382048Y-59250000D02*
X37417470Y-59438253D01*
X37528728Y-59611153D01*
X37698488Y-59727145D01*
X37900000Y-59767952D01*
X39600000Y-59767952D01*
X39788253Y-59732530D01*
X39961153Y-59621272D01*
X40001652Y-59562000D01*
X40547099Y-59562000D01*
X40578728Y-59611153D01*
X40748488Y-59727145D01*
X40950000Y-59767952D01*
X42550000Y-59767952D01*
X42738253Y-59732530D01*
X42911153Y-59621272D01*
X42985815Y-59512000D01*
X44032570Y-59512000D01*
X45386984Y-60866415D01*
X45570142Y-60988797D01*
X45634195Y-61031596D01*
X45925800Y-61089600D01*
X47913007Y-61089600D01*
X47872805Y-61148438D01*
X47831998Y-61349950D01*
X47831998Y-62150050D01*
X47867420Y-62338303D01*
X47978678Y-62511203D01*
X48148438Y-62627195D01*
X48349950Y-62668002D01*
X49150050Y-62668002D01*
X49338303Y-62632580D01*
X49511203Y-62521322D01*
X49560960Y-62448500D01*
X49974064Y-62448500D01*
X50078728Y-62611153D01*
X50248488Y-62727145D01*
X50450000Y-62767952D01*
X52050000Y-62767952D01*
X52238253Y-62732530D01*
X52411153Y-62621272D01*
X52527145Y-62451512D01*
X52527755Y-62448500D01*
X52974064Y-62448500D01*
X53078728Y-62611153D01*
X53248488Y-62727145D01*
X53450000Y-62767952D01*
X54980900Y-62767952D01*
X54980900Y-63742000D01*
X54504000Y-63742000D01*
X54377000Y-63869000D01*
X54377000Y-64623000D01*
X54397000Y-64623000D01*
X54397000Y-64877000D01*
X54377000Y-64877000D01*
X54377000Y-64897000D01*
X54123000Y-64897000D01*
X54123000Y-64877000D01*
X53069000Y-64877000D01*
X52942000Y-65004000D01*
X52942000Y-65351047D01*
X53002248Y-65496500D01*
X52497752Y-65496500D01*
X52558000Y-65351047D01*
X52558000Y-65004000D01*
X52431000Y-64877000D01*
X51377000Y-64877000D01*
X51377000Y-64897000D01*
X51123000Y-64897000D01*
X51123000Y-64877000D01*
X50069000Y-64877000D01*
X49942000Y-65004000D01*
X49942000Y-65351047D01*
X50002248Y-65496500D01*
X43988157Y-65496500D01*
X43720852Y-65549670D01*
X43494243Y-65701086D01*
X42893829Y-66301500D01*
X42793762Y-66301500D01*
X42721272Y-66188847D01*
X42551512Y-66072855D01*
X42350000Y-66032048D01*
X40650000Y-66032048D01*
X40461747Y-66067470D01*
X40288847Y-66178728D01*
X40204961Y-66301500D01*
X39793762Y-66301500D01*
X39721272Y-66188847D01*
X39551512Y-66072855D01*
X39350000Y-66032048D01*
X37650000Y-66032048D01*
X37461747Y-66067470D01*
X37288847Y-66178728D01*
X37172855Y-66348488D01*
X37132048Y-66550000D01*
X37132048Y-67450000D01*
X37167470Y-67638253D01*
X37278728Y-67811153D01*
X37448488Y-67927145D01*
X37650000Y-67967952D01*
X39350000Y-67967952D01*
X39538253Y-67932530D01*
X39711153Y-67821272D01*
X39795039Y-67698500D01*
X40206238Y-67698500D01*
X40278728Y-67811153D01*
X40448488Y-67927145D01*
X40650000Y-67967952D01*
X42350000Y-67967952D01*
X42413658Y-67955974D01*
X41942979Y-68426653D01*
X41862671Y-68426583D01*
X41535808Y-68561640D01*
X41285510Y-68811501D01*
X41149882Y-69138128D01*
X41149813Y-69216824D01*
X39869286Y-70497351D01*
X39717870Y-70723960D01*
X39678995Y-70919400D01*
X39664700Y-70991265D01*
X39664700Y-76990000D01*
X39717870Y-77257305D01*
X39869286Y-77483914D01*
X41150513Y-78765141D01*
X41150446Y-78842457D01*
X41285503Y-79169320D01*
X41532751Y-79417000D01*
X32150768Y-79417000D01*
X32118615Y-79403682D01*
X31471863Y-79275036D01*
X31024131Y-78975871D01*
X30724964Y-78528136D01*
X30596317Y-77881385D01*
X30583000Y-77849235D01*
X30583000Y-69264428D01*
X30776086Y-69457514D01*
X31002696Y-69608930D01*
X31270000Y-69662100D01*
X35029200Y-69662100D01*
X35296505Y-69608930D01*
X35523114Y-69457514D01*
X35993914Y-68986714D01*
X36145330Y-68760105D01*
X36198500Y-68492800D01*
X36198500Y-67967952D01*
X36350000Y-67967952D01*
X36538253Y-67932530D01*
X36711153Y-67821272D01*
X36827145Y-67651512D01*
X36867952Y-67450000D01*
X36867952Y-66550000D01*
X36832530Y-66361747D01*
X36721272Y-66188847D01*
X36551512Y-66072855D01*
X36350000Y-66032048D01*
X34650000Y-66032048D01*
X34461747Y-66067470D01*
X34288847Y-66178728D01*
X34172855Y-66348488D01*
X34132048Y-66550000D01*
X34132048Y-67450000D01*
X34167470Y-67638253D01*
X34278728Y-67811153D01*
X34448488Y-67927145D01*
X34650000Y-67967952D01*
X34801500Y-67967952D01*
X34801500Y-68203472D01*
X34739872Y-68265100D01*
X32775585Y-68265100D01*
X33064734Y-68126463D01*
X33418487Y-67731976D01*
X33565535Y-67376943D01*
X33474431Y-67167000D01*
X32377000Y-67167000D01*
X32377000Y-67187000D01*
X32123000Y-67187000D01*
X32123000Y-67167000D01*
X32103000Y-67167000D01*
X32103000Y-66913000D01*
X32123000Y-66913000D01*
X32123000Y-66893000D01*
X32377000Y-66893000D01*
X32377000Y-66913000D01*
X33474431Y-66913000D01*
X33565535Y-66703057D01*
X33418487Y-66348024D01*
X33064734Y-65953537D01*
X32692808Y-65775212D01*
X32796289Y-65754628D01*
X33236856Y-65460251D01*
X33531233Y-65019684D01*
X33634605Y-64500000D01*
X33583674Y-64243956D01*
X34132048Y-63695582D01*
X34132048Y-64550000D01*
X34167470Y-64738253D01*
X34278728Y-64911153D01*
X34448488Y-65027145D01*
X34650000Y-65067952D01*
X36350000Y-65067952D01*
X36538253Y-65032530D01*
X36711153Y-64921272D01*
X36795039Y-64798500D01*
X37206238Y-64798500D01*
X37278728Y-64911153D01*
X37448488Y-65027145D01*
X37650000Y-65067952D01*
X39350000Y-65067952D01*
X39538253Y-65032530D01*
X39711153Y-64921272D01*
X39827145Y-64751512D01*
X39867952Y-64550000D01*
X39867952Y-64354000D01*
X40142000Y-64354000D01*
X40142000Y-64651047D01*
X40219338Y-64837758D01*
X40362241Y-64980661D01*
X40548952Y-65058000D01*
X41246000Y-65058000D01*
X41373000Y-64931000D01*
X41373000Y-64227000D01*
X41627000Y-64227000D01*
X41627000Y-64931000D01*
X41754000Y-65058000D01*
X42451048Y-65058000D01*
X42637759Y-64980661D01*
X42780662Y-64837758D01*
X42858000Y-64651047D01*
X42858000Y-64354000D01*
X42731000Y-64227000D01*
X41627000Y-64227000D01*
X41373000Y-64227000D01*
X40269000Y-64227000D01*
X40142000Y-64354000D01*
X39867952Y-64354000D01*
X39867952Y-63650000D01*
X39848939Y-63548953D01*
X40142000Y-63548953D01*
X40142000Y-63846000D01*
X40269000Y-63973000D01*
X41373000Y-63973000D01*
X41373000Y-63269000D01*
X41627000Y-63269000D01*
X41627000Y-63973000D01*
X42731000Y-63973000D01*
X42800000Y-63904000D01*
X47841950Y-63904000D01*
X47841950Y-64151097D01*
X47919288Y-64337808D01*
X48062191Y-64480711D01*
X48248902Y-64558050D01*
X48496000Y-64558050D01*
X48623000Y-64431050D01*
X48623000Y-63777000D01*
X48877000Y-63777000D01*
X48877000Y-64431050D01*
X49004000Y-64558050D01*
X49251098Y-64558050D01*
X49437809Y-64480711D01*
X49580712Y-64337808D01*
X49658050Y-64151097D01*
X49658050Y-64148953D01*
X49942000Y-64148953D01*
X49942000Y-64496000D01*
X50069000Y-64623000D01*
X51123000Y-64623000D01*
X51123000Y-63869000D01*
X51377000Y-63869000D01*
X51377000Y-64623000D01*
X52431000Y-64623000D01*
X52558000Y-64496000D01*
X52558000Y-64148953D01*
X52942000Y-64148953D01*
X52942000Y-64496000D01*
X53069000Y-64623000D01*
X54123000Y-64623000D01*
X54123000Y-63869000D01*
X53996000Y-63742000D01*
X53348952Y-63742000D01*
X53162241Y-63819339D01*
X53019338Y-63962242D01*
X52942000Y-64148953D01*
X52558000Y-64148953D01*
X52480662Y-63962242D01*
X52337759Y-63819339D01*
X52151048Y-63742000D01*
X51504000Y-63742000D01*
X51377000Y-63869000D01*
X51123000Y-63869000D01*
X50996000Y-63742000D01*
X50348952Y-63742000D01*
X50162241Y-63819339D01*
X50019338Y-63962242D01*
X49942000Y-64148953D01*
X49658050Y-64148953D01*
X49658050Y-63904000D01*
X49531050Y-63777000D01*
X48877000Y-63777000D01*
X48623000Y-63777000D01*
X47968950Y-63777000D01*
X47841950Y-63904000D01*
X42800000Y-63904000D01*
X42858000Y-63846000D01*
X42858000Y-63548953D01*
X42780662Y-63362242D01*
X42637759Y-63219339D01*
X42451048Y-63142000D01*
X41754000Y-63142000D01*
X41627000Y-63269000D01*
X41373000Y-63269000D01*
X41246000Y-63142000D01*
X40548952Y-63142000D01*
X40362241Y-63219339D01*
X40219338Y-63362242D01*
X40142000Y-63548953D01*
X39848939Y-63548953D01*
X39832530Y-63461747D01*
X39721272Y-63288847D01*
X39551512Y-63172855D01*
X39350000Y-63132048D01*
X37650000Y-63132048D01*
X37461747Y-63167470D01*
X37288847Y-63278728D01*
X37204961Y-63401500D01*
X36793762Y-63401500D01*
X36721272Y-63288847D01*
X36551512Y-63172855D01*
X36350000Y-63132048D01*
X34695582Y-63132048D01*
X34873630Y-62954000D01*
X45842970Y-62954000D01*
X45842970Y-63201097D01*
X45920308Y-63387808D01*
X46063211Y-63530711D01*
X46249922Y-63608050D01*
X46497020Y-63608050D01*
X46624020Y-63481050D01*
X46624020Y-62827000D01*
X46878020Y-62827000D01*
X46878020Y-63481050D01*
X47005020Y-63608050D01*
X47252118Y-63608050D01*
X47438829Y-63530711D01*
X47581732Y-63387808D01*
X47659070Y-63201097D01*
X47659070Y-63148903D01*
X47841950Y-63148903D01*
X47841950Y-63396000D01*
X47968950Y-63523000D01*
X48623000Y-63523000D01*
X48623000Y-62868950D01*
X48877000Y-62868950D01*
X48877000Y-63523000D01*
X49531050Y-63523000D01*
X49658050Y-63396000D01*
X49658050Y-63148903D01*
X49580712Y-62962192D01*
X49437809Y-62819289D01*
X49251098Y-62741950D01*
X49004000Y-62741950D01*
X48877000Y-62868950D01*
X48623000Y-62868950D01*
X48496000Y-62741950D01*
X48248902Y-62741950D01*
X48062191Y-62819289D01*
X47919288Y-62962192D01*
X47841950Y-63148903D01*
X47659070Y-63148903D01*
X47659070Y-62954000D01*
X47532070Y-62827000D01*
X46878020Y-62827000D01*
X46624020Y-62827000D01*
X45969970Y-62827000D01*
X45842970Y-62954000D01*
X34873630Y-62954000D01*
X35365630Y-62462000D01*
X37497099Y-62462000D01*
X37528728Y-62511153D01*
X37698488Y-62627145D01*
X37900000Y-62667952D01*
X39600000Y-62667952D01*
X39788253Y-62632530D01*
X39961153Y-62521272D01*
X40077145Y-62351512D01*
X40117952Y-62150000D01*
X40117952Y-62004000D01*
X40442000Y-62004000D01*
X40442000Y-62351047D01*
X40519338Y-62537758D01*
X40662241Y-62680661D01*
X40848952Y-62758000D01*
X41496000Y-62758000D01*
X41623000Y-62631000D01*
X41623000Y-61877000D01*
X41877000Y-61877000D01*
X41877000Y-62631000D01*
X42004000Y-62758000D01*
X42651048Y-62758000D01*
X42837759Y-62680661D01*
X42980662Y-62537758D01*
X43058000Y-62351047D01*
X43058000Y-62198903D01*
X45842970Y-62198903D01*
X45842970Y-62446000D01*
X45969970Y-62573000D01*
X46624020Y-62573000D01*
X46624020Y-61918950D01*
X46878020Y-61918950D01*
X46878020Y-62573000D01*
X47532070Y-62573000D01*
X47659070Y-62446000D01*
X47659070Y-62198903D01*
X47581732Y-62012192D01*
X47438829Y-61869289D01*
X47252118Y-61791950D01*
X47005020Y-61791950D01*
X46878020Y-61918950D01*
X46624020Y-61918950D01*
X46497020Y-61791950D01*
X46249922Y-61791950D01*
X46063211Y-61869289D01*
X45920308Y-62012192D01*
X45842970Y-62198903D01*
X43058000Y-62198903D01*
X43058000Y-62004000D01*
X42931000Y-61877000D01*
X41877000Y-61877000D01*
X41623000Y-61877000D01*
X40569000Y-61877000D01*
X40442000Y-62004000D01*
X40117952Y-62004000D01*
X40117952Y-61250000D01*
X40098939Y-61148953D01*
X40442000Y-61148953D01*
X40442000Y-61496000D01*
X40569000Y-61623000D01*
X41623000Y-61623000D01*
X41623000Y-60869000D01*
X41877000Y-60869000D01*
X41877000Y-61623000D01*
X42931000Y-61623000D01*
X43058000Y-61496000D01*
X43058000Y-61148953D01*
X42980662Y-60962242D01*
X42837759Y-60819339D01*
X42651048Y-60742000D01*
X42004000Y-60742000D01*
X41877000Y-60869000D01*
X41623000Y-60869000D01*
X41496000Y-60742000D01*
X40848952Y-60742000D01*
X40662241Y-60819339D01*
X40519338Y-60962242D01*
X40442000Y-61148953D01*
X40098939Y-61148953D01*
X40082530Y-61061747D01*
X39971272Y-60888847D01*
X39801512Y-60772855D01*
X39600000Y-60732048D01*
X37900000Y-60732048D01*
X37711747Y-60767470D01*
X37538847Y-60878728D01*
X37498348Y-60938000D01*
X35490828Y-60938000D01*
X35810876Y-60617952D01*
X35900000Y-60617952D01*
X36088253Y-60582530D01*
X36261153Y-60471272D01*
X36377145Y-60301512D01*
X36417952Y-60100000D01*
X36417952Y-59921259D01*
X36548305Y-59895330D01*
X36774914Y-59743914D01*
X37382048Y-59136780D01*
X37382048Y-59250000D01*
X37382048Y-59250000D01*
G37*
X37382048Y-59250000D02*
X37417470Y-59438253D01*
X37528728Y-59611153D01*
X37698488Y-59727145D01*
X37900000Y-59767952D01*
X39600000Y-59767952D01*
X39788253Y-59732530D01*
X39961153Y-59621272D01*
X40001652Y-59562000D01*
X40547099Y-59562000D01*
X40578728Y-59611153D01*
X40748488Y-59727145D01*
X40950000Y-59767952D01*
X42550000Y-59767952D01*
X42738253Y-59732530D01*
X42911153Y-59621272D01*
X42985815Y-59512000D01*
X44032570Y-59512000D01*
X45386984Y-60866415D01*
X45570142Y-60988797D01*
X45634195Y-61031596D01*
X45925800Y-61089600D01*
X47913007Y-61089600D01*
X47872805Y-61148438D01*
X47831998Y-61349950D01*
X47831998Y-62150050D01*
X47867420Y-62338303D01*
X47978678Y-62511203D01*
X48148438Y-62627195D01*
X48349950Y-62668002D01*
X49150050Y-62668002D01*
X49338303Y-62632580D01*
X49511203Y-62521322D01*
X49560960Y-62448500D01*
X49974064Y-62448500D01*
X50078728Y-62611153D01*
X50248488Y-62727145D01*
X50450000Y-62767952D01*
X52050000Y-62767952D01*
X52238253Y-62732530D01*
X52411153Y-62621272D01*
X52527145Y-62451512D01*
X52527755Y-62448500D01*
X52974064Y-62448500D01*
X53078728Y-62611153D01*
X53248488Y-62727145D01*
X53450000Y-62767952D01*
X54980900Y-62767952D01*
X54980900Y-63742000D01*
X54504000Y-63742000D01*
X54377000Y-63869000D01*
X54377000Y-64623000D01*
X54397000Y-64623000D01*
X54397000Y-64877000D01*
X54377000Y-64877000D01*
X54377000Y-64897000D01*
X54123000Y-64897000D01*
X54123000Y-64877000D01*
X53069000Y-64877000D01*
X52942000Y-65004000D01*
X52942000Y-65351047D01*
X53002248Y-65496500D01*
X52497752Y-65496500D01*
X52558000Y-65351047D01*
X52558000Y-65004000D01*
X52431000Y-64877000D01*
X51377000Y-64877000D01*
X51377000Y-64897000D01*
X51123000Y-64897000D01*
X51123000Y-64877000D01*
X50069000Y-64877000D01*
X49942000Y-65004000D01*
X49942000Y-65351047D01*
X50002248Y-65496500D01*
X43988157Y-65496500D01*
X43720852Y-65549670D01*
X43494243Y-65701086D01*
X42893829Y-66301500D01*
X42793762Y-66301500D01*
X42721272Y-66188847D01*
X42551512Y-66072855D01*
X42350000Y-66032048D01*
X40650000Y-66032048D01*
X40461747Y-66067470D01*
X40288847Y-66178728D01*
X40204961Y-66301500D01*
X39793762Y-66301500D01*
X39721272Y-66188847D01*
X39551512Y-66072855D01*
X39350000Y-66032048D01*
X37650000Y-66032048D01*
X37461747Y-66067470D01*
X37288847Y-66178728D01*
X37172855Y-66348488D01*
X37132048Y-66550000D01*
X37132048Y-67450000D01*
X37167470Y-67638253D01*
X37278728Y-67811153D01*
X37448488Y-67927145D01*
X37650000Y-67967952D01*
X39350000Y-67967952D01*
X39538253Y-67932530D01*
X39711153Y-67821272D01*
X39795039Y-67698500D01*
X40206238Y-67698500D01*
X40278728Y-67811153D01*
X40448488Y-67927145D01*
X40650000Y-67967952D01*
X42350000Y-67967952D01*
X42413658Y-67955974D01*
X41942979Y-68426653D01*
X41862671Y-68426583D01*
X41535808Y-68561640D01*
X41285510Y-68811501D01*
X41149882Y-69138128D01*
X41149813Y-69216824D01*
X39869286Y-70497351D01*
X39717870Y-70723960D01*
X39678995Y-70919400D01*
X39664700Y-70991265D01*
X39664700Y-76990000D01*
X39717870Y-77257305D01*
X39869286Y-77483914D01*
X41150513Y-78765141D01*
X41150446Y-78842457D01*
X41285503Y-79169320D01*
X41532751Y-79417000D01*
X32150768Y-79417000D01*
X32118615Y-79403682D01*
X31471863Y-79275036D01*
X31024131Y-78975871D01*
X30724964Y-78528136D01*
X30596317Y-77881385D01*
X30583000Y-77849235D01*
X30583000Y-69264428D01*
X30776086Y-69457514D01*
X31002696Y-69608930D01*
X31270000Y-69662100D01*
X35029200Y-69662100D01*
X35296505Y-69608930D01*
X35523114Y-69457514D01*
X35993914Y-68986714D01*
X36145330Y-68760105D01*
X36198500Y-68492800D01*
X36198500Y-67967952D01*
X36350000Y-67967952D01*
X36538253Y-67932530D01*
X36711153Y-67821272D01*
X36827145Y-67651512D01*
X36867952Y-67450000D01*
X36867952Y-66550000D01*
X36832530Y-66361747D01*
X36721272Y-66188847D01*
X36551512Y-66072855D01*
X36350000Y-66032048D01*
X34650000Y-66032048D01*
X34461747Y-66067470D01*
X34288847Y-66178728D01*
X34172855Y-66348488D01*
X34132048Y-66550000D01*
X34132048Y-67450000D01*
X34167470Y-67638253D01*
X34278728Y-67811153D01*
X34448488Y-67927145D01*
X34650000Y-67967952D01*
X34801500Y-67967952D01*
X34801500Y-68203472D01*
X34739872Y-68265100D01*
X32775585Y-68265100D01*
X33064734Y-68126463D01*
X33418487Y-67731976D01*
X33565535Y-67376943D01*
X33474431Y-67167000D01*
X32377000Y-67167000D01*
X32377000Y-67187000D01*
X32123000Y-67187000D01*
X32123000Y-67167000D01*
X32103000Y-67167000D01*
X32103000Y-66913000D01*
X32123000Y-66913000D01*
X32123000Y-66893000D01*
X32377000Y-66893000D01*
X32377000Y-66913000D01*
X33474431Y-66913000D01*
X33565535Y-66703057D01*
X33418487Y-66348024D01*
X33064734Y-65953537D01*
X32692808Y-65775212D01*
X32796289Y-65754628D01*
X33236856Y-65460251D01*
X33531233Y-65019684D01*
X33634605Y-64500000D01*
X33583674Y-64243956D01*
X34132048Y-63695582D01*
X34132048Y-64550000D01*
X34167470Y-64738253D01*
X34278728Y-64911153D01*
X34448488Y-65027145D01*
X34650000Y-65067952D01*
X36350000Y-65067952D01*
X36538253Y-65032530D01*
X36711153Y-64921272D01*
X36795039Y-64798500D01*
X37206238Y-64798500D01*
X37278728Y-64911153D01*
X37448488Y-65027145D01*
X37650000Y-65067952D01*
X39350000Y-65067952D01*
X39538253Y-65032530D01*
X39711153Y-64921272D01*
X39827145Y-64751512D01*
X39867952Y-64550000D01*
X39867952Y-64354000D01*
X40142000Y-64354000D01*
X40142000Y-64651047D01*
X40219338Y-64837758D01*
X40362241Y-64980661D01*
X40548952Y-65058000D01*
X41246000Y-65058000D01*
X41373000Y-64931000D01*
X41373000Y-64227000D01*
X41627000Y-64227000D01*
X41627000Y-64931000D01*
X41754000Y-65058000D01*
X42451048Y-65058000D01*
X42637759Y-64980661D01*
X42780662Y-64837758D01*
X42858000Y-64651047D01*
X42858000Y-64354000D01*
X42731000Y-64227000D01*
X41627000Y-64227000D01*
X41373000Y-64227000D01*
X40269000Y-64227000D01*
X40142000Y-64354000D01*
X39867952Y-64354000D01*
X39867952Y-63650000D01*
X39848939Y-63548953D01*
X40142000Y-63548953D01*
X40142000Y-63846000D01*
X40269000Y-63973000D01*
X41373000Y-63973000D01*
X41373000Y-63269000D01*
X41627000Y-63269000D01*
X41627000Y-63973000D01*
X42731000Y-63973000D01*
X42800000Y-63904000D01*
X47841950Y-63904000D01*
X47841950Y-64151097D01*
X47919288Y-64337808D01*
X48062191Y-64480711D01*
X48248902Y-64558050D01*
X48496000Y-64558050D01*
X48623000Y-64431050D01*
X48623000Y-63777000D01*
X48877000Y-63777000D01*
X48877000Y-64431050D01*
X49004000Y-64558050D01*
X49251098Y-64558050D01*
X49437809Y-64480711D01*
X49580712Y-64337808D01*
X49658050Y-64151097D01*
X49658050Y-64148953D01*
X49942000Y-64148953D01*
X49942000Y-64496000D01*
X50069000Y-64623000D01*
X51123000Y-64623000D01*
X51123000Y-63869000D01*
X51377000Y-63869000D01*
X51377000Y-64623000D01*
X52431000Y-64623000D01*
X52558000Y-64496000D01*
X52558000Y-64148953D01*
X52942000Y-64148953D01*
X52942000Y-64496000D01*
X53069000Y-64623000D01*
X54123000Y-64623000D01*
X54123000Y-63869000D01*
X53996000Y-63742000D01*
X53348952Y-63742000D01*
X53162241Y-63819339D01*
X53019338Y-63962242D01*
X52942000Y-64148953D01*
X52558000Y-64148953D01*
X52480662Y-63962242D01*
X52337759Y-63819339D01*
X52151048Y-63742000D01*
X51504000Y-63742000D01*
X51377000Y-63869000D01*
X51123000Y-63869000D01*
X50996000Y-63742000D01*
X50348952Y-63742000D01*
X50162241Y-63819339D01*
X50019338Y-63962242D01*
X49942000Y-64148953D01*
X49658050Y-64148953D01*
X49658050Y-63904000D01*
X49531050Y-63777000D01*
X48877000Y-63777000D01*
X48623000Y-63777000D01*
X47968950Y-63777000D01*
X47841950Y-63904000D01*
X42800000Y-63904000D01*
X42858000Y-63846000D01*
X42858000Y-63548953D01*
X42780662Y-63362242D01*
X42637759Y-63219339D01*
X42451048Y-63142000D01*
X41754000Y-63142000D01*
X41627000Y-63269000D01*
X41373000Y-63269000D01*
X41246000Y-63142000D01*
X40548952Y-63142000D01*
X40362241Y-63219339D01*
X40219338Y-63362242D01*
X40142000Y-63548953D01*
X39848939Y-63548953D01*
X39832530Y-63461747D01*
X39721272Y-63288847D01*
X39551512Y-63172855D01*
X39350000Y-63132048D01*
X37650000Y-63132048D01*
X37461747Y-63167470D01*
X37288847Y-63278728D01*
X37204961Y-63401500D01*
X36793762Y-63401500D01*
X36721272Y-63288847D01*
X36551512Y-63172855D01*
X36350000Y-63132048D01*
X34695582Y-63132048D01*
X34873630Y-62954000D01*
X45842970Y-62954000D01*
X45842970Y-63201097D01*
X45920308Y-63387808D01*
X46063211Y-63530711D01*
X46249922Y-63608050D01*
X46497020Y-63608050D01*
X46624020Y-63481050D01*
X46624020Y-62827000D01*
X46878020Y-62827000D01*
X46878020Y-63481050D01*
X47005020Y-63608050D01*
X47252118Y-63608050D01*
X47438829Y-63530711D01*
X47581732Y-63387808D01*
X47659070Y-63201097D01*
X47659070Y-63148903D01*
X47841950Y-63148903D01*
X47841950Y-63396000D01*
X47968950Y-63523000D01*
X48623000Y-63523000D01*
X48623000Y-62868950D01*
X48877000Y-62868950D01*
X48877000Y-63523000D01*
X49531050Y-63523000D01*
X49658050Y-63396000D01*
X49658050Y-63148903D01*
X49580712Y-62962192D01*
X49437809Y-62819289D01*
X49251098Y-62741950D01*
X49004000Y-62741950D01*
X48877000Y-62868950D01*
X48623000Y-62868950D01*
X48496000Y-62741950D01*
X48248902Y-62741950D01*
X48062191Y-62819289D01*
X47919288Y-62962192D01*
X47841950Y-63148903D01*
X47659070Y-63148903D01*
X47659070Y-62954000D01*
X47532070Y-62827000D01*
X46878020Y-62827000D01*
X46624020Y-62827000D01*
X45969970Y-62827000D01*
X45842970Y-62954000D01*
X34873630Y-62954000D01*
X35365630Y-62462000D01*
X37497099Y-62462000D01*
X37528728Y-62511153D01*
X37698488Y-62627145D01*
X37900000Y-62667952D01*
X39600000Y-62667952D01*
X39788253Y-62632530D01*
X39961153Y-62521272D01*
X40077145Y-62351512D01*
X40117952Y-62150000D01*
X40117952Y-62004000D01*
X40442000Y-62004000D01*
X40442000Y-62351047D01*
X40519338Y-62537758D01*
X40662241Y-62680661D01*
X40848952Y-62758000D01*
X41496000Y-62758000D01*
X41623000Y-62631000D01*
X41623000Y-61877000D01*
X41877000Y-61877000D01*
X41877000Y-62631000D01*
X42004000Y-62758000D01*
X42651048Y-62758000D01*
X42837759Y-62680661D01*
X42980662Y-62537758D01*
X43058000Y-62351047D01*
X43058000Y-62198903D01*
X45842970Y-62198903D01*
X45842970Y-62446000D01*
X45969970Y-62573000D01*
X46624020Y-62573000D01*
X46624020Y-61918950D01*
X46878020Y-61918950D01*
X46878020Y-62573000D01*
X47532070Y-62573000D01*
X47659070Y-62446000D01*
X47659070Y-62198903D01*
X47581732Y-62012192D01*
X47438829Y-61869289D01*
X47252118Y-61791950D01*
X47005020Y-61791950D01*
X46878020Y-61918950D01*
X46624020Y-61918950D01*
X46497020Y-61791950D01*
X46249922Y-61791950D01*
X46063211Y-61869289D01*
X45920308Y-62012192D01*
X45842970Y-62198903D01*
X43058000Y-62198903D01*
X43058000Y-62004000D01*
X42931000Y-61877000D01*
X41877000Y-61877000D01*
X41623000Y-61877000D01*
X40569000Y-61877000D01*
X40442000Y-62004000D01*
X40117952Y-62004000D01*
X40117952Y-61250000D01*
X40098939Y-61148953D01*
X40442000Y-61148953D01*
X40442000Y-61496000D01*
X40569000Y-61623000D01*
X41623000Y-61623000D01*
X41623000Y-60869000D01*
X41877000Y-60869000D01*
X41877000Y-61623000D01*
X42931000Y-61623000D01*
X43058000Y-61496000D01*
X43058000Y-61148953D01*
X42980662Y-60962242D01*
X42837759Y-60819339D01*
X42651048Y-60742000D01*
X42004000Y-60742000D01*
X41877000Y-60869000D01*
X41623000Y-60869000D01*
X41496000Y-60742000D01*
X40848952Y-60742000D01*
X40662241Y-60819339D01*
X40519338Y-60962242D01*
X40442000Y-61148953D01*
X40098939Y-61148953D01*
X40082530Y-61061747D01*
X39971272Y-60888847D01*
X39801512Y-60772855D01*
X39600000Y-60732048D01*
X37900000Y-60732048D01*
X37711747Y-60767470D01*
X37538847Y-60878728D01*
X37498348Y-60938000D01*
X35490828Y-60938000D01*
X35810876Y-60617952D01*
X35900000Y-60617952D01*
X36088253Y-60582530D01*
X36261153Y-60471272D01*
X36377145Y-60301512D01*
X36417952Y-60100000D01*
X36417952Y-59921259D01*
X36548305Y-59895330D01*
X36774914Y-59743914D01*
X37382048Y-59136780D01*
X37382048Y-59250000D01*
G36*
X65876500Y-60964311D02*
X65876500Y-61682048D01*
X65725000Y-61682048D01*
X65595411Y-61706432D01*
X65475000Y-61682048D01*
X65075000Y-61682048D01*
X64945411Y-61706432D01*
X64825000Y-61682048D01*
X64425000Y-61682048D01*
X64295411Y-61706432D01*
X64175000Y-61682048D01*
X63775000Y-61682048D01*
X63645411Y-61706432D01*
X63525000Y-61682048D01*
X63125000Y-61682048D01*
X62936747Y-61717470D01*
X62763847Y-61828728D01*
X62647855Y-61998488D01*
X62607048Y-62200000D01*
X62607048Y-63550000D01*
X62626500Y-63653379D01*
X62626500Y-64813272D01*
X61943272Y-65496500D01*
X58421948Y-65496500D01*
X58461153Y-65471272D01*
X58545039Y-65348500D01*
X58606274Y-65348500D01*
X58873579Y-65295330D01*
X59100188Y-65143914D01*
X59745673Y-64498429D01*
X59897089Y-64271819D01*
X59950259Y-64004515D01*
X59950259Y-62760092D01*
X61991602Y-60718749D01*
X65630938Y-60718749D01*
X65876500Y-60964311D01*
X65876500Y-60964311D01*
G37*
X65876500Y-60964311D02*
X65876500Y-61682048D01*
X65725000Y-61682048D01*
X65595411Y-61706432D01*
X65475000Y-61682048D01*
X65075000Y-61682048D01*
X64945411Y-61706432D01*
X64825000Y-61682048D01*
X64425000Y-61682048D01*
X64295411Y-61706432D01*
X64175000Y-61682048D01*
X63775000Y-61682048D01*
X63645411Y-61706432D01*
X63525000Y-61682048D01*
X63125000Y-61682048D01*
X62936747Y-61717470D01*
X62763847Y-61828728D01*
X62647855Y-61998488D01*
X62607048Y-62200000D01*
X62607048Y-63550000D01*
X62626500Y-63653379D01*
X62626500Y-64813272D01*
X61943272Y-65496500D01*
X58421948Y-65496500D01*
X58461153Y-65471272D01*
X58545039Y-65348500D01*
X58606274Y-65348500D01*
X58873579Y-65295330D01*
X59100188Y-65143914D01*
X59745673Y-64498429D01*
X59897089Y-64271819D01*
X59950259Y-64004515D01*
X59950259Y-62760092D01*
X61991602Y-60718749D01*
X65630938Y-60718749D01*
X65876500Y-60964311D01*
G36*
X61366928Y-38301953D02*
X61536688Y-38417945D01*
X61738200Y-38458752D01*
X63438200Y-38458752D01*
X63626453Y-38423330D01*
X63799353Y-38312072D01*
X63855566Y-38229801D01*
X64003676Y-38377911D01*
X64003676Y-40179854D01*
X64056846Y-40447159D01*
X64208262Y-40673768D01*
X66066236Y-42531742D01*
X66292845Y-42683158D01*
X66560150Y-42736328D01*
X67270453Y-42736328D01*
X69102418Y-44568293D01*
X69125641Y-47913600D01*
X68633400Y-47913600D01*
X68506400Y-48040600D01*
X68506400Y-48794600D01*
X68526400Y-48794600D01*
X68526400Y-49048600D01*
X68506400Y-49048600D01*
X68506400Y-49802600D01*
X68633400Y-49929600D01*
X69139636Y-49929600D01*
X69146398Y-50903648D01*
X67579400Y-50903648D01*
X67391147Y-50939070D01*
X67218247Y-51050328D01*
X67173398Y-51115967D01*
X67137672Y-51060447D01*
X66967912Y-50944455D01*
X66766400Y-50903648D01*
X65166400Y-50903648D01*
X64978147Y-50939070D01*
X64805247Y-51050328D01*
X64689255Y-51220088D01*
X64648448Y-51421600D01*
X64648448Y-52421600D01*
X64683870Y-52609853D01*
X64795128Y-52782753D01*
X64964888Y-52898745D01*
X65166400Y-52939552D01*
X65267900Y-52939552D01*
X65267900Y-53215600D01*
X65321070Y-53482905D01*
X65382152Y-53574321D01*
X65382046Y-53696457D01*
X65517103Y-54023320D01*
X65766964Y-54273618D01*
X65948236Y-54348889D01*
X65929670Y-54376675D01*
X65895194Y-54550000D01*
X65876500Y-54643980D01*
X65876500Y-54649041D01*
X65768914Y-54488027D01*
X64982290Y-53701403D01*
X64755681Y-53549987D01*
X64488376Y-53496817D01*
X62180845Y-53496817D01*
X61826287Y-53142259D01*
X61826354Y-53064943D01*
X61691297Y-52738080D01*
X61441436Y-52487782D01*
X61114809Y-52352154D01*
X60832919Y-52351909D01*
X61429728Y-51755100D01*
X63064161Y-51755100D01*
X63331466Y-51701930D01*
X63558075Y-51550514D01*
X64425217Y-50683372D01*
X64576633Y-50456763D01*
X64629803Y-50189458D01*
X64629803Y-49175600D01*
X64658400Y-49175600D01*
X64658400Y-49522647D01*
X64735738Y-49709358D01*
X64878641Y-49852261D01*
X65065352Y-49929600D01*
X65712400Y-49929600D01*
X65839400Y-49802600D01*
X65839400Y-49048600D01*
X66093400Y-49048600D01*
X66093400Y-49802600D01*
X66220400Y-49929600D01*
X66867448Y-49929600D01*
X67054159Y-49852261D01*
X67172900Y-49733520D01*
X67291641Y-49852261D01*
X67478352Y-49929600D01*
X68125400Y-49929600D01*
X68252400Y-49802600D01*
X68252400Y-49048600D01*
X67198400Y-49048600D01*
X67172900Y-49074100D01*
X67147400Y-49048600D01*
X66093400Y-49048600D01*
X65839400Y-49048600D01*
X64785400Y-49048600D01*
X64658400Y-49175600D01*
X64629803Y-49175600D01*
X64629803Y-48320553D01*
X64658400Y-48320553D01*
X64658400Y-48667600D01*
X64785400Y-48794600D01*
X65839400Y-48794600D01*
X65839400Y-48040600D01*
X66093400Y-48040600D01*
X66093400Y-48794600D01*
X67147400Y-48794600D01*
X67172900Y-48769100D01*
X67198400Y-48794600D01*
X68252400Y-48794600D01*
X68252400Y-48040600D01*
X68125400Y-47913600D01*
X67478352Y-47913600D01*
X67291641Y-47990939D01*
X67172900Y-48109680D01*
X67054159Y-47990939D01*
X66867448Y-47913600D01*
X66220400Y-47913600D01*
X66093400Y-48040600D01*
X65839400Y-48040600D01*
X65712400Y-47913600D01*
X65065352Y-47913600D01*
X64878641Y-47990939D01*
X64735738Y-48133842D01*
X64658400Y-48320553D01*
X64629803Y-48320553D01*
X64629803Y-42564903D01*
X64576633Y-42297599D01*
X64425217Y-42070989D01*
X63657549Y-41303321D01*
X63799353Y-41212072D01*
X63915345Y-41042312D01*
X63956152Y-40840800D01*
X63956152Y-39940800D01*
X63920730Y-39752547D01*
X63809472Y-39579647D01*
X63639712Y-39463655D01*
X63438200Y-39422848D01*
X61738200Y-39422848D01*
X61549947Y-39458270D01*
X61377047Y-39569528D01*
X61305882Y-39673681D01*
X59821501Y-38189300D01*
X61294438Y-38189300D01*
X61366928Y-38301953D01*
X61366928Y-38301953D01*
G37*
X61366928Y-38301953D02*
X61536688Y-38417945D01*
X61738200Y-38458752D01*
X63438200Y-38458752D01*
X63626453Y-38423330D01*
X63799353Y-38312072D01*
X63855566Y-38229801D01*
X64003676Y-38377911D01*
X64003676Y-40179854D01*
X64056846Y-40447159D01*
X64208262Y-40673768D01*
X66066236Y-42531742D01*
X66292845Y-42683158D01*
X66560150Y-42736328D01*
X67270453Y-42736328D01*
X69102418Y-44568293D01*
X69125641Y-47913600D01*
X68633400Y-47913600D01*
X68506400Y-48040600D01*
X68506400Y-48794600D01*
X68526400Y-48794600D01*
X68526400Y-49048600D01*
X68506400Y-49048600D01*
X68506400Y-49802600D01*
X68633400Y-49929600D01*
X69139636Y-49929600D01*
X69146398Y-50903648D01*
X67579400Y-50903648D01*
X67391147Y-50939070D01*
X67218247Y-51050328D01*
X67173398Y-51115967D01*
X67137672Y-51060447D01*
X66967912Y-50944455D01*
X66766400Y-50903648D01*
X65166400Y-50903648D01*
X64978147Y-50939070D01*
X64805247Y-51050328D01*
X64689255Y-51220088D01*
X64648448Y-51421600D01*
X64648448Y-52421600D01*
X64683870Y-52609853D01*
X64795128Y-52782753D01*
X64964888Y-52898745D01*
X65166400Y-52939552D01*
X65267900Y-52939552D01*
X65267900Y-53215600D01*
X65321070Y-53482905D01*
X65382152Y-53574321D01*
X65382046Y-53696457D01*
X65517103Y-54023320D01*
X65766964Y-54273618D01*
X65948236Y-54348889D01*
X65929670Y-54376675D01*
X65895194Y-54550000D01*
X65876500Y-54643980D01*
X65876500Y-54649041D01*
X65768914Y-54488027D01*
X64982290Y-53701403D01*
X64755681Y-53549987D01*
X64488376Y-53496817D01*
X62180845Y-53496817D01*
X61826287Y-53142259D01*
X61826354Y-53064943D01*
X61691297Y-52738080D01*
X61441436Y-52487782D01*
X61114809Y-52352154D01*
X60832919Y-52351909D01*
X61429728Y-51755100D01*
X63064161Y-51755100D01*
X63331466Y-51701930D01*
X63558075Y-51550514D01*
X64425217Y-50683372D01*
X64576633Y-50456763D01*
X64629803Y-50189458D01*
X64629803Y-49175600D01*
X64658400Y-49175600D01*
X64658400Y-49522647D01*
X64735738Y-49709358D01*
X64878641Y-49852261D01*
X65065352Y-49929600D01*
X65712400Y-49929600D01*
X65839400Y-49802600D01*
X65839400Y-49048600D01*
X66093400Y-49048600D01*
X66093400Y-49802600D01*
X66220400Y-49929600D01*
X66867448Y-49929600D01*
X67054159Y-49852261D01*
X67172900Y-49733520D01*
X67291641Y-49852261D01*
X67478352Y-49929600D01*
X68125400Y-49929600D01*
X68252400Y-49802600D01*
X68252400Y-49048600D01*
X67198400Y-49048600D01*
X67172900Y-49074100D01*
X67147400Y-49048600D01*
X66093400Y-49048600D01*
X65839400Y-49048600D01*
X64785400Y-49048600D01*
X64658400Y-49175600D01*
X64629803Y-49175600D01*
X64629803Y-48320553D01*
X64658400Y-48320553D01*
X64658400Y-48667600D01*
X64785400Y-48794600D01*
X65839400Y-48794600D01*
X65839400Y-48040600D01*
X66093400Y-48040600D01*
X66093400Y-48794600D01*
X67147400Y-48794600D01*
X67172900Y-48769100D01*
X67198400Y-48794600D01*
X68252400Y-48794600D01*
X68252400Y-48040600D01*
X68125400Y-47913600D01*
X67478352Y-47913600D01*
X67291641Y-47990939D01*
X67172900Y-48109680D01*
X67054159Y-47990939D01*
X66867448Y-47913600D01*
X66220400Y-47913600D01*
X66093400Y-48040600D01*
X65839400Y-48040600D01*
X65712400Y-47913600D01*
X65065352Y-47913600D01*
X64878641Y-47990939D01*
X64735738Y-48133842D01*
X64658400Y-48320553D01*
X64629803Y-48320553D01*
X64629803Y-42564903D01*
X64576633Y-42297599D01*
X64425217Y-42070989D01*
X63657549Y-41303321D01*
X63799353Y-41212072D01*
X63915345Y-41042312D01*
X63956152Y-40840800D01*
X63956152Y-39940800D01*
X63920730Y-39752547D01*
X63809472Y-39579647D01*
X63639712Y-39463655D01*
X63438200Y-39422848D01*
X61738200Y-39422848D01*
X61549947Y-39458270D01*
X61377047Y-39569528D01*
X61305882Y-39673681D01*
X59821501Y-38189300D01*
X61294438Y-38189300D01*
X61366928Y-38301953D01*
G36*
X53961748Y-32985858D02*
X53947605Y-33000000D01*
X54752372Y-33804767D01*
X54969360Y-33715859D01*
X55038831Y-33520108D01*
X55144536Y-33775934D01*
X55475160Y-34107135D01*
X55443763Y-34100890D01*
X54525025Y-34100890D01*
X54572767Y-33984372D01*
X53768000Y-33179605D01*
X52963233Y-33984372D01*
X53010975Y-34100890D01*
X52544299Y-34100890D01*
X52568745Y-34065112D01*
X52609552Y-33863600D01*
X52609552Y-33733442D01*
X52783628Y-33804767D01*
X53588395Y-33000000D01*
X53574253Y-32985858D01*
X53753858Y-32806253D01*
X53768000Y-32820395D01*
X53782143Y-32806253D01*
X53961748Y-32985858D01*
X53961748Y-32985858D01*
G37*
X53961748Y-32985858D02*
X53947605Y-33000000D01*
X54752372Y-33804767D01*
X54969360Y-33715859D01*
X55038831Y-33520108D01*
X55144536Y-33775934D01*
X55475160Y-34107135D01*
X55443763Y-34100890D01*
X54525025Y-34100890D01*
X54572767Y-33984372D01*
X53768000Y-33179605D01*
X52963233Y-33984372D01*
X53010975Y-34100890D01*
X52544299Y-34100890D01*
X52568745Y-34065112D01*
X52609552Y-33863600D01*
X52609552Y-33733442D01*
X52783628Y-33804767D01*
X53588395Y-33000000D01*
X53574253Y-32985858D01*
X53753858Y-32806253D01*
X53768000Y-32820395D01*
X53782143Y-32806253D01*
X53961748Y-32985858D01*
M02*
