G04 #@! TF.FileFunction,Copper,L1,Top,Signal*
%FSLAX46Y46*%
G04 Gerber Fmt 4.6, Leading zero omitted, Abs format (unit mm)*
G04 Created by KiCad (PCBNEW 4.0.2+dfsg1-stable) date Seg 16 Out 2017 09:01:32 BRST*
%MOMM*%
G01*
G04 APERTURE LIST*
%ADD10C,0.100000*%
%ADD11R,1.200000X2.400000*%
%ADD12R,2.032000X1.727200*%
%ADD13O,2.032000X1.727200*%
%ADD14C,1.727200*%
%ADD15R,1.727200X1.727200*%
%ADD16R,2.000000X2.000000*%
%ADD17C,2.000000*%
%ADD18C,0.762000*%
%ADD19R,1.700000X1.700000*%
%ADD20O,1.700000X1.700000*%
%ADD21C,0.508000*%
%ADD22C,0.381000*%
%ADD23C,0.254000*%
G04 APERTURE END LIST*
D10*
D11*
X37000000Y-40000000D03*
X33000000Y-40000000D03*
X37000000Y-46000000D03*
X33000000Y-46000000D03*
D12*
X73027600Y-47297400D03*
D13*
X73027600Y-49837400D03*
X73027600Y-52377400D03*
X73027600Y-54917400D03*
X73027600Y-57457400D03*
D14*
X56308000Y-33000000D03*
D15*
X51228000Y-33000000D03*
D14*
X58848000Y-33000000D03*
X53768000Y-33000000D03*
D16*
X74460000Y-43000000D03*
D17*
X77000000Y-43000000D03*
D18*
X60937200Y-53241000D03*
X59997400Y-54536400D03*
X58930600Y-55806400D03*
X73053000Y-60607000D03*
D11*
X39000000Y-71000000D03*
X35000000Y-71000000D03*
X39000000Y-77000000D03*
X35000000Y-77000000D03*
X47000000Y-77000000D03*
X51000000Y-77000000D03*
X47000000Y-71000000D03*
X51000000Y-71000000D03*
X63000000Y-71000000D03*
X59000000Y-71000000D03*
X63000000Y-77000000D03*
X59000000Y-77000000D03*
X71000000Y-77000000D03*
X75000000Y-77000000D03*
X71000000Y-71000000D03*
X75000000Y-71000000D03*
D19*
X32250000Y-61960000D03*
D20*
X32250000Y-64500000D03*
X32250000Y-67040000D03*
D18*
X36959600Y-50726400D03*
X31219200Y-56619200D03*
X67579740Y-44506347D03*
X65633022Y-43583047D03*
X65425000Y-46150000D03*
X64391600Y-32895600D03*
X69333235Y-32992684D03*
X77277181Y-32645407D03*
X77233772Y-37377048D03*
X54942800Y-57000200D03*
X48415000Y-57101800D03*
X43106400Y-54688800D03*
X61597600Y-62385000D03*
X61149686Y-64545425D03*
X44274800Y-61394400D03*
X44299943Y-64084947D03*
X78590200Y-45189200D03*
X78361600Y-51463000D03*
X78463200Y-58092400D03*
X78488600Y-65153600D03*
X49761200Y-37061200D03*
X44097000Y-38153400D03*
X59667200Y-42242800D03*
X55857200Y-38585200D03*
X32448024Y-33970921D03*
X44808200Y-34064000D03*
X68198051Y-47369920D03*
X77904400Y-70995600D03*
X32159000Y-70970200D03*
X77904400Y-77015400D03*
X55146000Y-71000000D03*
X55164908Y-77007313D03*
X32159000Y-77015400D03*
X60530800Y-59700200D03*
X59032200Y-57584400D03*
X66271200Y-53520400D03*
X42039600Y-78666400D03*
X42038728Y-69315737D03*
X44046200Y-78691800D03*
X43970000Y-69293800D03*
X66093400Y-78615600D03*
X66093400Y-69395400D03*
X67973000Y-78615600D03*
X67922200Y-69420800D03*
X32195289Y-51285200D03*
X40744200Y-39245600D03*
D21*
X75000000Y-77000000D02*
X77889000Y-77000000D01*
X77889000Y-77000000D02*
X77904400Y-77015400D01*
X75000000Y-71000000D02*
X77900000Y-71000000D01*
X77900000Y-71000000D02*
X77904400Y-70995600D01*
X51000000Y-77000000D02*
X55157595Y-77000000D01*
X55157595Y-77000000D02*
X55164908Y-77007313D01*
X59000000Y-77000000D02*
X55172221Y-77000000D01*
X55172221Y-77000000D02*
X55164908Y-77007313D01*
X59000000Y-71000000D02*
X55146000Y-71000000D01*
X51000000Y-71000000D02*
X55146000Y-71000000D01*
X35000000Y-77000000D02*
X32174400Y-77000000D01*
X32174400Y-77000000D02*
X32159000Y-77015400D01*
X35000000Y-71000000D02*
X32188800Y-71000000D01*
X32188800Y-71000000D02*
X32159000Y-70970200D01*
D22*
X30762000Y-66754081D02*
X30762000Y-57076400D01*
X30762000Y-57076400D02*
X31219200Y-56619200D01*
X32250000Y-67040000D02*
X31047919Y-67040000D01*
X31047919Y-67040000D02*
X30762000Y-66754081D01*
X65425000Y-46150000D02*
X67068653Y-44506347D01*
X67068653Y-44506347D02*
X67579740Y-44506347D01*
X77233772Y-32688816D02*
X77277181Y-32645407D01*
X77233772Y-37377048D02*
X77233772Y-32688816D01*
X74460000Y-40150820D02*
X76852773Y-37758047D01*
X74460000Y-43000000D02*
X74460000Y-40150820D01*
X76852773Y-37758047D02*
X77233772Y-37377048D01*
X48415000Y-57101800D02*
X54841200Y-57101800D01*
X54841200Y-57101800D02*
X54942800Y-57000200D01*
X44274800Y-61394400D02*
X44274800Y-55857200D01*
X44274800Y-55857200D02*
X43106400Y-54688800D01*
X61149686Y-64545425D02*
X61149686Y-62832914D01*
X61149686Y-62832914D02*
X61597600Y-62385000D01*
X60768687Y-64926424D02*
X61149686Y-64545425D01*
X59000000Y-66695111D02*
X60768687Y-64926424D01*
X59000000Y-71000000D02*
X59000000Y-66695111D01*
X78361600Y-51463000D02*
X78361600Y-45417800D01*
X78361600Y-45417800D02*
X78590200Y-45189200D01*
X78488600Y-65153600D02*
X78488600Y-58117800D01*
X78488600Y-58117800D02*
X78463200Y-58092400D01*
X44097000Y-38153400D02*
X45189200Y-37061200D01*
X45189200Y-37061200D02*
X49761200Y-37061200D01*
X50269200Y-37950200D02*
X55222200Y-37950200D01*
X55222200Y-37950200D02*
X55857200Y-38585200D01*
X46383000Y-34064000D02*
X50269200Y-37950200D01*
X44808200Y-34064000D02*
X46383000Y-34064000D01*
X68579050Y-47750919D02*
X68198051Y-47369920D01*
X70665531Y-49837400D02*
X68579050Y-47750919D01*
X73027600Y-49837400D02*
X70665531Y-49837400D01*
X77904400Y-70995600D02*
X77904400Y-77015400D01*
X32159000Y-70970200D02*
X32159000Y-77015400D01*
X55164908Y-71018908D02*
X55146000Y-71000000D01*
X59032200Y-58201600D02*
X60530800Y-59700200D01*
X59032200Y-57584400D02*
X59032200Y-58201600D01*
X69192200Y-46408400D02*
X70081200Y-47297400D01*
X70081200Y-47297400D02*
X73027600Y-47297400D01*
X66982400Y-46408400D02*
X69192200Y-46408400D01*
X66271200Y-47119600D02*
X66982400Y-46408400D01*
X66271200Y-53520400D02*
X66271200Y-47119600D01*
D21*
X39000000Y-77000000D02*
X40373200Y-77000000D01*
X40373200Y-77000000D02*
X42039600Y-78666400D01*
X39000000Y-71000000D02*
X40354465Y-71000000D01*
X40354465Y-71000000D02*
X42038728Y-69315737D01*
X47000000Y-71000000D02*
X45676200Y-71000000D01*
X45676200Y-71000000D02*
X43970000Y-69293800D01*
X47000000Y-77000000D02*
X45738000Y-77000000D01*
X45738000Y-77000000D02*
X44046200Y-78691800D01*
X63000000Y-77000000D02*
X64477800Y-77000000D01*
X64477800Y-77000000D02*
X66093400Y-78615600D01*
X63000000Y-71000000D02*
X64488800Y-71000000D01*
X64488800Y-71000000D02*
X66093400Y-69395400D01*
X71000000Y-77000000D02*
X69588600Y-77000000D01*
X69588600Y-77000000D02*
X67973000Y-78615600D01*
X71000000Y-71000000D02*
X69501400Y-71000000D01*
X69501400Y-71000000D02*
X67922200Y-69420800D01*
D22*
X31191025Y-40827975D02*
X31191025Y-46002000D01*
X31191025Y-46002000D02*
X31191025Y-50280936D01*
X33000000Y-46000000D02*
X32019000Y-46000000D01*
X32019000Y-46000000D02*
X32017000Y-46002000D01*
X32017000Y-46002000D02*
X31191025Y-46002000D01*
X33000000Y-40000000D02*
X32019000Y-40000000D01*
X32019000Y-40000000D02*
X31191025Y-40827975D01*
X31191025Y-50280936D02*
X32195289Y-51285200D01*
X39989800Y-40000000D02*
X39017000Y-40000000D01*
X39017000Y-40000000D02*
X37000000Y-40000000D01*
X38610600Y-46002000D02*
X39017000Y-45595600D01*
X39017000Y-45595600D02*
X39017000Y-40000000D01*
X37983000Y-46002000D02*
X38610600Y-46002000D01*
X37000000Y-46000000D02*
X37981000Y-46000000D01*
X37981000Y-46000000D02*
X37983000Y-46002000D01*
X40744200Y-39245600D02*
X39989800Y-40000000D01*
D23*
G36*
X77881385Y-30596317D02*
X78528136Y-30724964D01*
X78975871Y-31024131D01*
X79275036Y-31471863D01*
X79403682Y-32118615D01*
X79417000Y-32150768D01*
X79417000Y-77849232D01*
X79403682Y-77881385D01*
X79275036Y-78528137D01*
X78975871Y-78975869D01*
X78528136Y-79275036D01*
X77881385Y-79403683D01*
X77849235Y-79417000D01*
X77127000Y-79417000D01*
X77127000Y-69000000D01*
X77116994Y-68950590D01*
X77088553Y-68908965D01*
X77046159Y-68881685D01*
X77000000Y-68873000D01*
X69000000Y-68873000D01*
X68950590Y-68883006D01*
X68908965Y-68911447D01*
X68881685Y-68953841D01*
X68873000Y-69000000D01*
X68873000Y-69293970D01*
X68802609Y-69223579D01*
X68676297Y-68917880D01*
X68426436Y-68667582D01*
X68099809Y-68531954D01*
X67746143Y-68531646D01*
X67419280Y-68666703D01*
X67168982Y-68916564D01*
X67033354Y-69243191D01*
X67033046Y-69596857D01*
X67168103Y-69923720D01*
X67417964Y-70174018D01*
X67725481Y-70301711D01*
X68873000Y-71449230D01*
X68873000Y-73680187D01*
X68280724Y-73086877D01*
X67451114Y-72742393D01*
X66552826Y-72741609D01*
X65722617Y-73084644D01*
X65127000Y-73679223D01*
X65127000Y-71439430D01*
X66290621Y-70275809D01*
X66596320Y-70149497D01*
X66846618Y-69899636D01*
X66982246Y-69573009D01*
X66982554Y-69219343D01*
X66847497Y-68892480D01*
X66597636Y-68642182D01*
X66271009Y-68506554D01*
X65917343Y-68506246D01*
X65590480Y-68641303D01*
X65340182Y-68891164D01*
X65212489Y-69198681D01*
X65127000Y-69284170D01*
X65127000Y-69000000D01*
X65116994Y-68950590D01*
X65088553Y-68908965D01*
X65046159Y-68881685D01*
X65000000Y-68873000D01*
X57000000Y-68873000D01*
X56950590Y-68883006D01*
X56908965Y-68911447D01*
X56881685Y-68953841D01*
X56873000Y-69000000D01*
X56873000Y-79417000D01*
X53127000Y-79417000D01*
X53127000Y-69000000D01*
X53116994Y-68950590D01*
X53088553Y-68908965D01*
X53046159Y-68881685D01*
X53000000Y-68873000D01*
X45000000Y-68873000D01*
X44950590Y-68883006D01*
X44908965Y-68911447D01*
X44881685Y-68953841D01*
X44873000Y-69000000D01*
X44873000Y-69119170D01*
X44850409Y-69096579D01*
X44724097Y-68790880D01*
X44474236Y-68540582D01*
X44147609Y-68404954D01*
X43793943Y-68404646D01*
X43467080Y-68539703D01*
X43216782Y-68789564D01*
X43081154Y-69116191D01*
X43080846Y-69469857D01*
X43215903Y-69796720D01*
X43465764Y-70047018D01*
X43773281Y-70174711D01*
X44873000Y-71274430D01*
X44873000Y-73680187D01*
X44280724Y-73086877D01*
X43451114Y-72742393D01*
X42552826Y-72741609D01*
X41722617Y-73084644D01*
X41127000Y-73679223D01*
X41127000Y-71305095D01*
X42235950Y-70196146D01*
X42541648Y-70069834D01*
X42791946Y-69819973D01*
X42927574Y-69493346D01*
X42927882Y-69139680D01*
X42792825Y-68812817D01*
X42542964Y-68562519D01*
X42216337Y-68426891D01*
X41862671Y-68426583D01*
X41535808Y-68561640D01*
X41285510Y-68811501D01*
X41157818Y-69119016D01*
X41127000Y-69149834D01*
X41127000Y-69000000D01*
X41116994Y-68950590D01*
X41088553Y-68908965D01*
X41046159Y-68881685D01*
X41000000Y-68873000D01*
X33000000Y-68873000D01*
X32950590Y-68883006D01*
X32908965Y-68911447D01*
X32881685Y-68953841D01*
X32873000Y-69000000D01*
X32873000Y-79417000D01*
X32150768Y-79417000D01*
X32118615Y-79403682D01*
X31471863Y-79275036D01*
X31024131Y-78975871D01*
X30724964Y-78528136D01*
X30596317Y-77881385D01*
X30583000Y-77849235D01*
X30583000Y-67376943D01*
X30934465Y-67376943D01*
X31081513Y-67731976D01*
X31435266Y-68126463D01*
X31913055Y-68355546D01*
X32123000Y-68265059D01*
X32123000Y-67167000D01*
X32377000Y-67167000D01*
X32377000Y-68265059D01*
X32586945Y-68355546D01*
X33064734Y-68126463D01*
X33418487Y-67731976D01*
X33565535Y-67376943D01*
X33474431Y-67167000D01*
X32377000Y-67167000D01*
X32123000Y-67167000D01*
X31025569Y-67167000D01*
X30934465Y-67376943D01*
X30583000Y-67376943D01*
X30583000Y-64500000D01*
X30865395Y-64500000D01*
X30968767Y-65019684D01*
X31263144Y-65460251D01*
X31703711Y-65754628D01*
X31807192Y-65775212D01*
X31435266Y-65953537D01*
X31081513Y-66348024D01*
X30934465Y-66703057D01*
X31025569Y-66913000D01*
X32123000Y-66913000D01*
X32123000Y-66893000D01*
X32377000Y-66893000D01*
X32377000Y-66913000D01*
X33474431Y-66913000D01*
X33565535Y-66703057D01*
X33418487Y-66348024D01*
X33064734Y-65953537D01*
X32692808Y-65775212D01*
X32796289Y-65754628D01*
X33236856Y-65460251D01*
X33531233Y-65019684D01*
X33634605Y-64500000D01*
X33531233Y-63980316D01*
X33236856Y-63539749D01*
X32919879Y-63327952D01*
X33100000Y-63327952D01*
X33288253Y-63292530D01*
X33461153Y-63181272D01*
X33577145Y-63011512D01*
X33617952Y-62810000D01*
X33617952Y-61110000D01*
X33582530Y-60921747D01*
X33493286Y-60783057D01*
X72163846Y-60783057D01*
X72298903Y-61109920D01*
X72548764Y-61360218D01*
X72875391Y-61495846D01*
X73229057Y-61496154D01*
X73555920Y-61361097D01*
X73806218Y-61111236D01*
X73941846Y-60784609D01*
X73942154Y-60430943D01*
X73807097Y-60104080D01*
X73557236Y-59853782D01*
X73230609Y-59718154D01*
X72876943Y-59717846D01*
X72550080Y-59852903D01*
X72299782Y-60102764D01*
X72164154Y-60429391D01*
X72163846Y-60783057D01*
X33493286Y-60783057D01*
X33471272Y-60748847D01*
X33301512Y-60632855D01*
X33100000Y-60592048D01*
X31400000Y-60592048D01*
X31211747Y-60627470D01*
X31038847Y-60738728D01*
X30922855Y-60908488D01*
X30882048Y-61110000D01*
X30882048Y-62810000D01*
X30917470Y-62998253D01*
X31028728Y-63171153D01*
X31198488Y-63287145D01*
X31400000Y-63327952D01*
X31580121Y-63327952D01*
X31263144Y-63539749D01*
X30968767Y-63980316D01*
X30865395Y-64500000D01*
X30583000Y-64500000D01*
X30583000Y-55982457D01*
X58041446Y-55982457D01*
X58176503Y-56309320D01*
X58426364Y-56559618D01*
X58752991Y-56695246D01*
X58855926Y-56695336D01*
X58529280Y-56830303D01*
X58278982Y-57080164D01*
X58143354Y-57406791D01*
X58143046Y-57760457D01*
X58278103Y-58087320D01*
X58333700Y-58143014D01*
X58333700Y-58201600D01*
X58386870Y-58468905D01*
X58538286Y-58695514D01*
X59641713Y-59798941D01*
X59641646Y-59876257D01*
X59776703Y-60203120D01*
X60026564Y-60453418D01*
X60353191Y-60589046D01*
X60706857Y-60589354D01*
X61033720Y-60454297D01*
X61284018Y-60204436D01*
X61419646Y-59877809D01*
X61419954Y-59524143D01*
X61284897Y-59197280D01*
X61035036Y-58946982D01*
X60708409Y-58811354D01*
X60629713Y-58811285D01*
X59821110Y-58002682D01*
X59921046Y-57762009D01*
X59921354Y-57408343D01*
X59786297Y-57081480D01*
X59536436Y-56831182D01*
X59209809Y-56695554D01*
X59106874Y-56695464D01*
X59433520Y-56560497D01*
X59683818Y-56310636D01*
X59819446Y-55984009D01*
X59819754Y-55630343D01*
X59717451Y-55382750D01*
X59819791Y-55425246D01*
X60173457Y-55425554D01*
X60500320Y-55290497D01*
X60750618Y-55040636D01*
X60886246Y-54714009D01*
X60886554Y-54360343D01*
X60791326Y-54129874D01*
X61113257Y-54130154D01*
X61440120Y-53995097D01*
X61690418Y-53745236D01*
X61710672Y-53696457D01*
X65382046Y-53696457D01*
X65517103Y-54023320D01*
X65766964Y-54273618D01*
X66093591Y-54409246D01*
X66447257Y-54409554D01*
X66774120Y-54274497D01*
X67024418Y-54024636D01*
X67160046Y-53698009D01*
X67160354Y-53344343D01*
X67025297Y-53017480D01*
X66969700Y-52961786D01*
X66969700Y-52377400D01*
X71473743Y-52377400D01*
X71578150Y-52902289D01*
X71875475Y-53347268D01*
X72320454Y-53644593D01*
X72334566Y-53647400D01*
X72320454Y-53650207D01*
X71875475Y-53947532D01*
X71578150Y-54392511D01*
X71473743Y-54917400D01*
X71578150Y-55442289D01*
X71875475Y-55887268D01*
X72320454Y-56184593D01*
X72334566Y-56187400D01*
X72320454Y-56190207D01*
X71875475Y-56487532D01*
X71578150Y-56932511D01*
X71473743Y-57457400D01*
X71578150Y-57982289D01*
X71875475Y-58427268D01*
X72320454Y-58724593D01*
X72845343Y-58829000D01*
X73209857Y-58829000D01*
X73734746Y-58724593D01*
X74179725Y-58427268D01*
X74477050Y-57982289D01*
X74581457Y-57457400D01*
X74477050Y-56932511D01*
X74179725Y-56487532D01*
X73734746Y-56190207D01*
X73720634Y-56187400D01*
X73734746Y-56184593D01*
X74179725Y-55887268D01*
X74477050Y-55442289D01*
X74581457Y-54917400D01*
X74477050Y-54392511D01*
X74179725Y-53947532D01*
X73734746Y-53650207D01*
X73720634Y-53647400D01*
X73734746Y-53644593D01*
X74179725Y-53347268D01*
X74477050Y-52902289D01*
X74581457Y-52377400D01*
X74477050Y-51852511D01*
X74179725Y-51407532D01*
X73734746Y-51110207D01*
X73661565Y-51095650D01*
X73875615Y-51021152D01*
X74275667Y-50664844D01*
X74508913Y-50182565D01*
X74509027Y-50176480D01*
X74418103Y-49964400D01*
X73154600Y-49964400D01*
X73154600Y-49984400D01*
X72900600Y-49984400D01*
X72900600Y-49964400D01*
X71637097Y-49964400D01*
X71546173Y-50176480D01*
X71546287Y-50182565D01*
X71779533Y-50664844D01*
X72179585Y-51021152D01*
X72393635Y-51095650D01*
X72320454Y-51110207D01*
X71875475Y-51407532D01*
X71578150Y-51852511D01*
X71473743Y-52377400D01*
X66969700Y-52377400D01*
X66969700Y-47408928D01*
X67271728Y-47106900D01*
X68902872Y-47106900D01*
X69587286Y-47791314D01*
X69813895Y-47942730D01*
X70081200Y-47995900D01*
X71493648Y-47995900D01*
X71493648Y-48161000D01*
X71529070Y-48349253D01*
X71640328Y-48522153D01*
X71810088Y-48638145D01*
X72011600Y-48678952D01*
X72151174Y-48678952D01*
X71779533Y-49009956D01*
X71546287Y-49492235D01*
X71546173Y-49498320D01*
X71637097Y-49710400D01*
X72900600Y-49710400D01*
X72900600Y-49690400D01*
X73154600Y-49690400D01*
X73154600Y-49710400D01*
X74418103Y-49710400D01*
X74509027Y-49498320D01*
X74508913Y-49492235D01*
X74275667Y-49009956D01*
X73904026Y-48678952D01*
X74043600Y-48678952D01*
X74231853Y-48643530D01*
X74404753Y-48532272D01*
X74520745Y-48362512D01*
X74561552Y-48161000D01*
X74561552Y-46433800D01*
X74526130Y-46245547D01*
X74414872Y-46072647D01*
X74245112Y-45956655D01*
X74043600Y-45915848D01*
X72011600Y-45915848D01*
X71823347Y-45951270D01*
X71650447Y-46062528D01*
X71534455Y-46232288D01*
X71493648Y-46433800D01*
X71493648Y-46598900D01*
X70370528Y-46598900D01*
X69686114Y-45914486D01*
X69459505Y-45763070D01*
X69192200Y-45709900D01*
X66982400Y-45709900D01*
X66715095Y-45763070D01*
X66488486Y-45914486D01*
X65777286Y-46625686D01*
X65625870Y-46852295D01*
X65625870Y-46852296D01*
X65572700Y-47119600D01*
X65572700Y-52961542D01*
X65517982Y-53016164D01*
X65382354Y-53342791D01*
X65382046Y-53696457D01*
X61710672Y-53696457D01*
X61826046Y-53418609D01*
X61826354Y-53064943D01*
X61691297Y-52738080D01*
X61441436Y-52487782D01*
X61114809Y-52352154D01*
X60761143Y-52351846D01*
X60434280Y-52486903D01*
X60183982Y-52736764D01*
X60048354Y-53063391D01*
X60048046Y-53417057D01*
X60143274Y-53647526D01*
X59821343Y-53647246D01*
X59494480Y-53782303D01*
X59244182Y-54032164D01*
X59108554Y-54358791D01*
X59108246Y-54712457D01*
X59210549Y-54960050D01*
X59108209Y-54917554D01*
X58754543Y-54917246D01*
X58427680Y-55052303D01*
X58177382Y-55302164D01*
X58041754Y-55628791D01*
X58041446Y-55982457D01*
X30583000Y-55982457D01*
X30583000Y-50604072D01*
X30697111Y-50774850D01*
X31306202Y-51383941D01*
X31306135Y-51461257D01*
X31441192Y-51788120D01*
X31691053Y-52038418D01*
X32017680Y-52174046D01*
X32371346Y-52174354D01*
X32698209Y-52039297D01*
X32948507Y-51789436D01*
X33084135Y-51462809D01*
X33084443Y-51109143D01*
X32949386Y-50782280D01*
X32699525Y-50531982D01*
X32372898Y-50396354D01*
X32294202Y-50396285D01*
X31889525Y-49991608D01*
X31889525Y-47877000D01*
X38750000Y-47877000D01*
X38799410Y-47866994D01*
X38841035Y-47838553D01*
X38868315Y-47796159D01*
X38877000Y-47750000D01*
X38877000Y-46647510D01*
X38877905Y-46647330D01*
X39104514Y-46495914D01*
X39510914Y-46089514D01*
X39570725Y-46000000D01*
X39662330Y-45862904D01*
X39715500Y-45595600D01*
X39715500Y-43254000D01*
X72952000Y-43254000D01*
X72952000Y-44101047D01*
X73029338Y-44287758D01*
X73172241Y-44430661D01*
X73358952Y-44508000D01*
X74206000Y-44508000D01*
X74333000Y-44381000D01*
X74333000Y-43127000D01*
X73079000Y-43127000D01*
X72952000Y-43254000D01*
X39715500Y-43254000D01*
X39715500Y-41898953D01*
X72952000Y-41898953D01*
X72952000Y-42746000D01*
X73079000Y-42873000D01*
X74333000Y-42873000D01*
X74333000Y-41619000D01*
X74587000Y-41619000D01*
X74587000Y-42873000D01*
X74607000Y-42873000D01*
X74607000Y-43127000D01*
X74587000Y-43127000D01*
X74587000Y-44381000D01*
X74714000Y-44508000D01*
X75561048Y-44508000D01*
X75747759Y-44430661D01*
X75890662Y-44287758D01*
X75968000Y-44101047D01*
X75968000Y-44100694D01*
X76144672Y-44277674D01*
X76698724Y-44507737D01*
X77298644Y-44508261D01*
X77853097Y-44279165D01*
X78277674Y-43855328D01*
X78507737Y-43301276D01*
X78508261Y-42701356D01*
X78279165Y-42146903D01*
X77855328Y-41722326D01*
X77301276Y-41492263D01*
X76701356Y-41491739D01*
X76146903Y-41720835D01*
X75968000Y-41899426D01*
X75968000Y-41898953D01*
X75890662Y-41712242D01*
X75747759Y-41569339D01*
X75561048Y-41492000D01*
X74714000Y-41492000D01*
X74587000Y-41619000D01*
X74333000Y-41619000D01*
X74206000Y-41492000D01*
X73358952Y-41492000D01*
X73172241Y-41569339D01*
X73029338Y-41712242D01*
X72952000Y-41898953D01*
X39715500Y-41898953D01*
X39715500Y-40698500D01*
X39989800Y-40698500D01*
X40257105Y-40645330D01*
X40483714Y-40493914D01*
X40842941Y-40134687D01*
X40920257Y-40134754D01*
X41247120Y-39999697D01*
X41497418Y-39749836D01*
X41633046Y-39423209D01*
X41633354Y-39069543D01*
X41498297Y-38742680D01*
X41248436Y-38492382D01*
X40921809Y-38356754D01*
X40568143Y-38356446D01*
X40241280Y-38491503D01*
X39990982Y-38741364D01*
X39855354Y-39067991D01*
X39855285Y-39146687D01*
X39700472Y-39301500D01*
X38877000Y-39301500D01*
X38877000Y-38250000D01*
X38866994Y-38200590D01*
X38838553Y-38158965D01*
X38796159Y-38131685D01*
X38750000Y-38123000D01*
X31250000Y-38123000D01*
X31200590Y-38133006D01*
X31158965Y-38161447D01*
X31131685Y-38203841D01*
X31123000Y-38250000D01*
X31123000Y-39908172D01*
X30697111Y-40334061D01*
X30583000Y-40504839D01*
X30583000Y-34447174D01*
X34741609Y-34447174D01*
X35084644Y-35277383D01*
X35719276Y-35913123D01*
X36548886Y-36257607D01*
X37447174Y-36258391D01*
X38277383Y-35915356D01*
X38913123Y-35280724D01*
X39257607Y-34451114D01*
X39257610Y-34447174D01*
X70741609Y-34447174D01*
X71084644Y-35277383D01*
X71719276Y-35913123D01*
X72548886Y-36257607D01*
X73447174Y-36258391D01*
X74277383Y-35915356D01*
X74913123Y-35280724D01*
X75257607Y-34451114D01*
X75258391Y-33552826D01*
X74915356Y-32722617D01*
X74280724Y-32086877D01*
X73451114Y-31742393D01*
X72552826Y-31741609D01*
X71722617Y-32084644D01*
X71086877Y-32719276D01*
X70742393Y-33548886D01*
X70741609Y-34447174D01*
X39257610Y-34447174D01*
X39258391Y-33552826D01*
X38915356Y-32722617D01*
X38330161Y-32136400D01*
X49846448Y-32136400D01*
X49846448Y-33863600D01*
X49881870Y-34051853D01*
X49993128Y-34224753D01*
X50162888Y-34340745D01*
X50364400Y-34381552D01*
X52091600Y-34381552D01*
X52279853Y-34346130D01*
X52452753Y-34234872D01*
X52568745Y-34065112D01*
X52585095Y-33984372D01*
X52963233Y-33984372D01*
X53052141Y-34201360D01*
X53566373Y-34383859D01*
X54111300Y-34355678D01*
X54483859Y-34201360D01*
X54572767Y-33984372D01*
X53768000Y-33179605D01*
X52963233Y-33984372D01*
X52585095Y-33984372D01*
X52609552Y-33863600D01*
X52609552Y-33733442D01*
X52783628Y-33804767D01*
X53588395Y-33000000D01*
X53947605Y-33000000D01*
X54752372Y-33804767D01*
X54969360Y-33715859D01*
X55038831Y-33520108D01*
X55144536Y-33775934D01*
X55530037Y-34162108D01*
X56033975Y-34371361D01*
X56579631Y-34371837D01*
X57083934Y-34163464D01*
X57470108Y-33777963D01*
X57578007Y-33518113D01*
X57684536Y-33775934D01*
X58070037Y-34162108D01*
X58573975Y-34371361D01*
X59119631Y-34371837D01*
X59623934Y-34163464D01*
X60010108Y-33777963D01*
X60219361Y-33274025D01*
X60219837Y-32728369D01*
X60011464Y-32224066D01*
X59625963Y-31837892D01*
X59122025Y-31628639D01*
X58576369Y-31628163D01*
X58072066Y-31836536D01*
X57685892Y-32222037D01*
X57577993Y-32481887D01*
X57471464Y-32224066D01*
X57085963Y-31837892D01*
X56582025Y-31628639D01*
X56036369Y-31628163D01*
X55532066Y-31836536D01*
X55145892Y-32222037D01*
X55044639Y-32465882D01*
X54969360Y-32284141D01*
X54752372Y-32195233D01*
X53947605Y-33000000D01*
X53588395Y-33000000D01*
X52783628Y-32195233D01*
X52609552Y-32266558D01*
X52609552Y-32136400D01*
X52586828Y-32015628D01*
X52963233Y-32015628D01*
X53768000Y-32820395D01*
X54572767Y-32015628D01*
X54483859Y-31798640D01*
X53969627Y-31616141D01*
X53424700Y-31644322D01*
X53052141Y-31798640D01*
X52963233Y-32015628D01*
X52586828Y-32015628D01*
X52574130Y-31948147D01*
X52462872Y-31775247D01*
X52293112Y-31659255D01*
X52091600Y-31618448D01*
X50364400Y-31618448D01*
X50176147Y-31653870D01*
X50003247Y-31765128D01*
X49887255Y-31934888D01*
X49846448Y-32136400D01*
X38330161Y-32136400D01*
X38280724Y-32086877D01*
X37451114Y-31742393D01*
X36552826Y-31741609D01*
X35722617Y-32084644D01*
X35086877Y-32719276D01*
X34742393Y-33548886D01*
X34741609Y-34447174D01*
X30583000Y-34447174D01*
X30583000Y-32150765D01*
X30596317Y-32118615D01*
X30724964Y-31471864D01*
X31024131Y-31024129D01*
X31471863Y-30724964D01*
X32118615Y-30596318D01*
X32150768Y-30583000D01*
X77849235Y-30583000D01*
X77881385Y-30596317D01*
X77881385Y-30596317D01*
G37*
X77881385Y-30596317D02*
X78528136Y-30724964D01*
X78975871Y-31024131D01*
X79275036Y-31471863D01*
X79403682Y-32118615D01*
X79417000Y-32150768D01*
X79417000Y-77849232D01*
X79403682Y-77881385D01*
X79275036Y-78528137D01*
X78975871Y-78975869D01*
X78528136Y-79275036D01*
X77881385Y-79403683D01*
X77849235Y-79417000D01*
X77127000Y-79417000D01*
X77127000Y-69000000D01*
X77116994Y-68950590D01*
X77088553Y-68908965D01*
X77046159Y-68881685D01*
X77000000Y-68873000D01*
X69000000Y-68873000D01*
X68950590Y-68883006D01*
X68908965Y-68911447D01*
X68881685Y-68953841D01*
X68873000Y-69000000D01*
X68873000Y-69293970D01*
X68802609Y-69223579D01*
X68676297Y-68917880D01*
X68426436Y-68667582D01*
X68099809Y-68531954D01*
X67746143Y-68531646D01*
X67419280Y-68666703D01*
X67168982Y-68916564D01*
X67033354Y-69243191D01*
X67033046Y-69596857D01*
X67168103Y-69923720D01*
X67417964Y-70174018D01*
X67725481Y-70301711D01*
X68873000Y-71449230D01*
X68873000Y-73680187D01*
X68280724Y-73086877D01*
X67451114Y-72742393D01*
X66552826Y-72741609D01*
X65722617Y-73084644D01*
X65127000Y-73679223D01*
X65127000Y-71439430D01*
X66290621Y-70275809D01*
X66596320Y-70149497D01*
X66846618Y-69899636D01*
X66982246Y-69573009D01*
X66982554Y-69219343D01*
X66847497Y-68892480D01*
X66597636Y-68642182D01*
X66271009Y-68506554D01*
X65917343Y-68506246D01*
X65590480Y-68641303D01*
X65340182Y-68891164D01*
X65212489Y-69198681D01*
X65127000Y-69284170D01*
X65127000Y-69000000D01*
X65116994Y-68950590D01*
X65088553Y-68908965D01*
X65046159Y-68881685D01*
X65000000Y-68873000D01*
X57000000Y-68873000D01*
X56950590Y-68883006D01*
X56908965Y-68911447D01*
X56881685Y-68953841D01*
X56873000Y-69000000D01*
X56873000Y-79417000D01*
X53127000Y-79417000D01*
X53127000Y-69000000D01*
X53116994Y-68950590D01*
X53088553Y-68908965D01*
X53046159Y-68881685D01*
X53000000Y-68873000D01*
X45000000Y-68873000D01*
X44950590Y-68883006D01*
X44908965Y-68911447D01*
X44881685Y-68953841D01*
X44873000Y-69000000D01*
X44873000Y-69119170D01*
X44850409Y-69096579D01*
X44724097Y-68790880D01*
X44474236Y-68540582D01*
X44147609Y-68404954D01*
X43793943Y-68404646D01*
X43467080Y-68539703D01*
X43216782Y-68789564D01*
X43081154Y-69116191D01*
X43080846Y-69469857D01*
X43215903Y-69796720D01*
X43465764Y-70047018D01*
X43773281Y-70174711D01*
X44873000Y-71274430D01*
X44873000Y-73680187D01*
X44280724Y-73086877D01*
X43451114Y-72742393D01*
X42552826Y-72741609D01*
X41722617Y-73084644D01*
X41127000Y-73679223D01*
X41127000Y-71305095D01*
X42235950Y-70196146D01*
X42541648Y-70069834D01*
X42791946Y-69819973D01*
X42927574Y-69493346D01*
X42927882Y-69139680D01*
X42792825Y-68812817D01*
X42542964Y-68562519D01*
X42216337Y-68426891D01*
X41862671Y-68426583D01*
X41535808Y-68561640D01*
X41285510Y-68811501D01*
X41157818Y-69119016D01*
X41127000Y-69149834D01*
X41127000Y-69000000D01*
X41116994Y-68950590D01*
X41088553Y-68908965D01*
X41046159Y-68881685D01*
X41000000Y-68873000D01*
X33000000Y-68873000D01*
X32950590Y-68883006D01*
X32908965Y-68911447D01*
X32881685Y-68953841D01*
X32873000Y-69000000D01*
X32873000Y-79417000D01*
X32150768Y-79417000D01*
X32118615Y-79403682D01*
X31471863Y-79275036D01*
X31024131Y-78975871D01*
X30724964Y-78528136D01*
X30596317Y-77881385D01*
X30583000Y-77849235D01*
X30583000Y-67376943D01*
X30934465Y-67376943D01*
X31081513Y-67731976D01*
X31435266Y-68126463D01*
X31913055Y-68355546D01*
X32123000Y-68265059D01*
X32123000Y-67167000D01*
X32377000Y-67167000D01*
X32377000Y-68265059D01*
X32586945Y-68355546D01*
X33064734Y-68126463D01*
X33418487Y-67731976D01*
X33565535Y-67376943D01*
X33474431Y-67167000D01*
X32377000Y-67167000D01*
X32123000Y-67167000D01*
X31025569Y-67167000D01*
X30934465Y-67376943D01*
X30583000Y-67376943D01*
X30583000Y-64500000D01*
X30865395Y-64500000D01*
X30968767Y-65019684D01*
X31263144Y-65460251D01*
X31703711Y-65754628D01*
X31807192Y-65775212D01*
X31435266Y-65953537D01*
X31081513Y-66348024D01*
X30934465Y-66703057D01*
X31025569Y-66913000D01*
X32123000Y-66913000D01*
X32123000Y-66893000D01*
X32377000Y-66893000D01*
X32377000Y-66913000D01*
X33474431Y-66913000D01*
X33565535Y-66703057D01*
X33418487Y-66348024D01*
X33064734Y-65953537D01*
X32692808Y-65775212D01*
X32796289Y-65754628D01*
X33236856Y-65460251D01*
X33531233Y-65019684D01*
X33634605Y-64500000D01*
X33531233Y-63980316D01*
X33236856Y-63539749D01*
X32919879Y-63327952D01*
X33100000Y-63327952D01*
X33288253Y-63292530D01*
X33461153Y-63181272D01*
X33577145Y-63011512D01*
X33617952Y-62810000D01*
X33617952Y-61110000D01*
X33582530Y-60921747D01*
X33493286Y-60783057D01*
X72163846Y-60783057D01*
X72298903Y-61109920D01*
X72548764Y-61360218D01*
X72875391Y-61495846D01*
X73229057Y-61496154D01*
X73555920Y-61361097D01*
X73806218Y-61111236D01*
X73941846Y-60784609D01*
X73942154Y-60430943D01*
X73807097Y-60104080D01*
X73557236Y-59853782D01*
X73230609Y-59718154D01*
X72876943Y-59717846D01*
X72550080Y-59852903D01*
X72299782Y-60102764D01*
X72164154Y-60429391D01*
X72163846Y-60783057D01*
X33493286Y-60783057D01*
X33471272Y-60748847D01*
X33301512Y-60632855D01*
X33100000Y-60592048D01*
X31400000Y-60592048D01*
X31211747Y-60627470D01*
X31038847Y-60738728D01*
X30922855Y-60908488D01*
X30882048Y-61110000D01*
X30882048Y-62810000D01*
X30917470Y-62998253D01*
X31028728Y-63171153D01*
X31198488Y-63287145D01*
X31400000Y-63327952D01*
X31580121Y-63327952D01*
X31263144Y-63539749D01*
X30968767Y-63980316D01*
X30865395Y-64500000D01*
X30583000Y-64500000D01*
X30583000Y-55982457D01*
X58041446Y-55982457D01*
X58176503Y-56309320D01*
X58426364Y-56559618D01*
X58752991Y-56695246D01*
X58855926Y-56695336D01*
X58529280Y-56830303D01*
X58278982Y-57080164D01*
X58143354Y-57406791D01*
X58143046Y-57760457D01*
X58278103Y-58087320D01*
X58333700Y-58143014D01*
X58333700Y-58201600D01*
X58386870Y-58468905D01*
X58538286Y-58695514D01*
X59641713Y-59798941D01*
X59641646Y-59876257D01*
X59776703Y-60203120D01*
X60026564Y-60453418D01*
X60353191Y-60589046D01*
X60706857Y-60589354D01*
X61033720Y-60454297D01*
X61284018Y-60204436D01*
X61419646Y-59877809D01*
X61419954Y-59524143D01*
X61284897Y-59197280D01*
X61035036Y-58946982D01*
X60708409Y-58811354D01*
X60629713Y-58811285D01*
X59821110Y-58002682D01*
X59921046Y-57762009D01*
X59921354Y-57408343D01*
X59786297Y-57081480D01*
X59536436Y-56831182D01*
X59209809Y-56695554D01*
X59106874Y-56695464D01*
X59433520Y-56560497D01*
X59683818Y-56310636D01*
X59819446Y-55984009D01*
X59819754Y-55630343D01*
X59717451Y-55382750D01*
X59819791Y-55425246D01*
X60173457Y-55425554D01*
X60500320Y-55290497D01*
X60750618Y-55040636D01*
X60886246Y-54714009D01*
X60886554Y-54360343D01*
X60791326Y-54129874D01*
X61113257Y-54130154D01*
X61440120Y-53995097D01*
X61690418Y-53745236D01*
X61710672Y-53696457D01*
X65382046Y-53696457D01*
X65517103Y-54023320D01*
X65766964Y-54273618D01*
X66093591Y-54409246D01*
X66447257Y-54409554D01*
X66774120Y-54274497D01*
X67024418Y-54024636D01*
X67160046Y-53698009D01*
X67160354Y-53344343D01*
X67025297Y-53017480D01*
X66969700Y-52961786D01*
X66969700Y-52377400D01*
X71473743Y-52377400D01*
X71578150Y-52902289D01*
X71875475Y-53347268D01*
X72320454Y-53644593D01*
X72334566Y-53647400D01*
X72320454Y-53650207D01*
X71875475Y-53947532D01*
X71578150Y-54392511D01*
X71473743Y-54917400D01*
X71578150Y-55442289D01*
X71875475Y-55887268D01*
X72320454Y-56184593D01*
X72334566Y-56187400D01*
X72320454Y-56190207D01*
X71875475Y-56487532D01*
X71578150Y-56932511D01*
X71473743Y-57457400D01*
X71578150Y-57982289D01*
X71875475Y-58427268D01*
X72320454Y-58724593D01*
X72845343Y-58829000D01*
X73209857Y-58829000D01*
X73734746Y-58724593D01*
X74179725Y-58427268D01*
X74477050Y-57982289D01*
X74581457Y-57457400D01*
X74477050Y-56932511D01*
X74179725Y-56487532D01*
X73734746Y-56190207D01*
X73720634Y-56187400D01*
X73734746Y-56184593D01*
X74179725Y-55887268D01*
X74477050Y-55442289D01*
X74581457Y-54917400D01*
X74477050Y-54392511D01*
X74179725Y-53947532D01*
X73734746Y-53650207D01*
X73720634Y-53647400D01*
X73734746Y-53644593D01*
X74179725Y-53347268D01*
X74477050Y-52902289D01*
X74581457Y-52377400D01*
X74477050Y-51852511D01*
X74179725Y-51407532D01*
X73734746Y-51110207D01*
X73661565Y-51095650D01*
X73875615Y-51021152D01*
X74275667Y-50664844D01*
X74508913Y-50182565D01*
X74509027Y-50176480D01*
X74418103Y-49964400D01*
X73154600Y-49964400D01*
X73154600Y-49984400D01*
X72900600Y-49984400D01*
X72900600Y-49964400D01*
X71637097Y-49964400D01*
X71546173Y-50176480D01*
X71546287Y-50182565D01*
X71779533Y-50664844D01*
X72179585Y-51021152D01*
X72393635Y-51095650D01*
X72320454Y-51110207D01*
X71875475Y-51407532D01*
X71578150Y-51852511D01*
X71473743Y-52377400D01*
X66969700Y-52377400D01*
X66969700Y-47408928D01*
X67271728Y-47106900D01*
X68902872Y-47106900D01*
X69587286Y-47791314D01*
X69813895Y-47942730D01*
X70081200Y-47995900D01*
X71493648Y-47995900D01*
X71493648Y-48161000D01*
X71529070Y-48349253D01*
X71640328Y-48522153D01*
X71810088Y-48638145D01*
X72011600Y-48678952D01*
X72151174Y-48678952D01*
X71779533Y-49009956D01*
X71546287Y-49492235D01*
X71546173Y-49498320D01*
X71637097Y-49710400D01*
X72900600Y-49710400D01*
X72900600Y-49690400D01*
X73154600Y-49690400D01*
X73154600Y-49710400D01*
X74418103Y-49710400D01*
X74509027Y-49498320D01*
X74508913Y-49492235D01*
X74275667Y-49009956D01*
X73904026Y-48678952D01*
X74043600Y-48678952D01*
X74231853Y-48643530D01*
X74404753Y-48532272D01*
X74520745Y-48362512D01*
X74561552Y-48161000D01*
X74561552Y-46433800D01*
X74526130Y-46245547D01*
X74414872Y-46072647D01*
X74245112Y-45956655D01*
X74043600Y-45915848D01*
X72011600Y-45915848D01*
X71823347Y-45951270D01*
X71650447Y-46062528D01*
X71534455Y-46232288D01*
X71493648Y-46433800D01*
X71493648Y-46598900D01*
X70370528Y-46598900D01*
X69686114Y-45914486D01*
X69459505Y-45763070D01*
X69192200Y-45709900D01*
X66982400Y-45709900D01*
X66715095Y-45763070D01*
X66488486Y-45914486D01*
X65777286Y-46625686D01*
X65625870Y-46852295D01*
X65625870Y-46852296D01*
X65572700Y-47119600D01*
X65572700Y-52961542D01*
X65517982Y-53016164D01*
X65382354Y-53342791D01*
X65382046Y-53696457D01*
X61710672Y-53696457D01*
X61826046Y-53418609D01*
X61826354Y-53064943D01*
X61691297Y-52738080D01*
X61441436Y-52487782D01*
X61114809Y-52352154D01*
X60761143Y-52351846D01*
X60434280Y-52486903D01*
X60183982Y-52736764D01*
X60048354Y-53063391D01*
X60048046Y-53417057D01*
X60143274Y-53647526D01*
X59821343Y-53647246D01*
X59494480Y-53782303D01*
X59244182Y-54032164D01*
X59108554Y-54358791D01*
X59108246Y-54712457D01*
X59210549Y-54960050D01*
X59108209Y-54917554D01*
X58754543Y-54917246D01*
X58427680Y-55052303D01*
X58177382Y-55302164D01*
X58041754Y-55628791D01*
X58041446Y-55982457D01*
X30583000Y-55982457D01*
X30583000Y-50604072D01*
X30697111Y-50774850D01*
X31306202Y-51383941D01*
X31306135Y-51461257D01*
X31441192Y-51788120D01*
X31691053Y-52038418D01*
X32017680Y-52174046D01*
X32371346Y-52174354D01*
X32698209Y-52039297D01*
X32948507Y-51789436D01*
X33084135Y-51462809D01*
X33084443Y-51109143D01*
X32949386Y-50782280D01*
X32699525Y-50531982D01*
X32372898Y-50396354D01*
X32294202Y-50396285D01*
X31889525Y-49991608D01*
X31889525Y-47877000D01*
X38750000Y-47877000D01*
X38799410Y-47866994D01*
X38841035Y-47838553D01*
X38868315Y-47796159D01*
X38877000Y-47750000D01*
X38877000Y-46647510D01*
X38877905Y-46647330D01*
X39104514Y-46495914D01*
X39510914Y-46089514D01*
X39570725Y-46000000D01*
X39662330Y-45862904D01*
X39715500Y-45595600D01*
X39715500Y-43254000D01*
X72952000Y-43254000D01*
X72952000Y-44101047D01*
X73029338Y-44287758D01*
X73172241Y-44430661D01*
X73358952Y-44508000D01*
X74206000Y-44508000D01*
X74333000Y-44381000D01*
X74333000Y-43127000D01*
X73079000Y-43127000D01*
X72952000Y-43254000D01*
X39715500Y-43254000D01*
X39715500Y-41898953D01*
X72952000Y-41898953D01*
X72952000Y-42746000D01*
X73079000Y-42873000D01*
X74333000Y-42873000D01*
X74333000Y-41619000D01*
X74587000Y-41619000D01*
X74587000Y-42873000D01*
X74607000Y-42873000D01*
X74607000Y-43127000D01*
X74587000Y-43127000D01*
X74587000Y-44381000D01*
X74714000Y-44508000D01*
X75561048Y-44508000D01*
X75747759Y-44430661D01*
X75890662Y-44287758D01*
X75968000Y-44101047D01*
X75968000Y-44100694D01*
X76144672Y-44277674D01*
X76698724Y-44507737D01*
X77298644Y-44508261D01*
X77853097Y-44279165D01*
X78277674Y-43855328D01*
X78507737Y-43301276D01*
X78508261Y-42701356D01*
X78279165Y-42146903D01*
X77855328Y-41722326D01*
X77301276Y-41492263D01*
X76701356Y-41491739D01*
X76146903Y-41720835D01*
X75968000Y-41899426D01*
X75968000Y-41898953D01*
X75890662Y-41712242D01*
X75747759Y-41569339D01*
X75561048Y-41492000D01*
X74714000Y-41492000D01*
X74587000Y-41619000D01*
X74333000Y-41619000D01*
X74206000Y-41492000D01*
X73358952Y-41492000D01*
X73172241Y-41569339D01*
X73029338Y-41712242D01*
X72952000Y-41898953D01*
X39715500Y-41898953D01*
X39715500Y-40698500D01*
X39989800Y-40698500D01*
X40257105Y-40645330D01*
X40483714Y-40493914D01*
X40842941Y-40134687D01*
X40920257Y-40134754D01*
X41247120Y-39999697D01*
X41497418Y-39749836D01*
X41633046Y-39423209D01*
X41633354Y-39069543D01*
X41498297Y-38742680D01*
X41248436Y-38492382D01*
X40921809Y-38356754D01*
X40568143Y-38356446D01*
X40241280Y-38491503D01*
X39990982Y-38741364D01*
X39855354Y-39067991D01*
X39855285Y-39146687D01*
X39700472Y-39301500D01*
X38877000Y-39301500D01*
X38877000Y-38250000D01*
X38866994Y-38200590D01*
X38838553Y-38158965D01*
X38796159Y-38131685D01*
X38750000Y-38123000D01*
X31250000Y-38123000D01*
X31200590Y-38133006D01*
X31158965Y-38161447D01*
X31131685Y-38203841D01*
X31123000Y-38250000D01*
X31123000Y-39908172D01*
X30697111Y-40334061D01*
X30583000Y-40504839D01*
X30583000Y-34447174D01*
X34741609Y-34447174D01*
X35084644Y-35277383D01*
X35719276Y-35913123D01*
X36548886Y-36257607D01*
X37447174Y-36258391D01*
X38277383Y-35915356D01*
X38913123Y-35280724D01*
X39257607Y-34451114D01*
X39257610Y-34447174D01*
X70741609Y-34447174D01*
X71084644Y-35277383D01*
X71719276Y-35913123D01*
X72548886Y-36257607D01*
X73447174Y-36258391D01*
X74277383Y-35915356D01*
X74913123Y-35280724D01*
X75257607Y-34451114D01*
X75258391Y-33552826D01*
X74915356Y-32722617D01*
X74280724Y-32086877D01*
X73451114Y-31742393D01*
X72552826Y-31741609D01*
X71722617Y-32084644D01*
X71086877Y-32719276D01*
X70742393Y-33548886D01*
X70741609Y-34447174D01*
X39257610Y-34447174D01*
X39258391Y-33552826D01*
X38915356Y-32722617D01*
X38330161Y-32136400D01*
X49846448Y-32136400D01*
X49846448Y-33863600D01*
X49881870Y-34051853D01*
X49993128Y-34224753D01*
X50162888Y-34340745D01*
X50364400Y-34381552D01*
X52091600Y-34381552D01*
X52279853Y-34346130D01*
X52452753Y-34234872D01*
X52568745Y-34065112D01*
X52585095Y-33984372D01*
X52963233Y-33984372D01*
X53052141Y-34201360D01*
X53566373Y-34383859D01*
X54111300Y-34355678D01*
X54483859Y-34201360D01*
X54572767Y-33984372D01*
X53768000Y-33179605D01*
X52963233Y-33984372D01*
X52585095Y-33984372D01*
X52609552Y-33863600D01*
X52609552Y-33733442D01*
X52783628Y-33804767D01*
X53588395Y-33000000D01*
X53947605Y-33000000D01*
X54752372Y-33804767D01*
X54969360Y-33715859D01*
X55038831Y-33520108D01*
X55144536Y-33775934D01*
X55530037Y-34162108D01*
X56033975Y-34371361D01*
X56579631Y-34371837D01*
X57083934Y-34163464D01*
X57470108Y-33777963D01*
X57578007Y-33518113D01*
X57684536Y-33775934D01*
X58070037Y-34162108D01*
X58573975Y-34371361D01*
X59119631Y-34371837D01*
X59623934Y-34163464D01*
X60010108Y-33777963D01*
X60219361Y-33274025D01*
X60219837Y-32728369D01*
X60011464Y-32224066D01*
X59625963Y-31837892D01*
X59122025Y-31628639D01*
X58576369Y-31628163D01*
X58072066Y-31836536D01*
X57685892Y-32222037D01*
X57577993Y-32481887D01*
X57471464Y-32224066D01*
X57085963Y-31837892D01*
X56582025Y-31628639D01*
X56036369Y-31628163D01*
X55532066Y-31836536D01*
X55145892Y-32222037D01*
X55044639Y-32465882D01*
X54969360Y-32284141D01*
X54752372Y-32195233D01*
X53947605Y-33000000D01*
X53588395Y-33000000D01*
X52783628Y-32195233D01*
X52609552Y-32266558D01*
X52609552Y-32136400D01*
X52586828Y-32015628D01*
X52963233Y-32015628D01*
X53768000Y-32820395D01*
X54572767Y-32015628D01*
X54483859Y-31798640D01*
X53969627Y-31616141D01*
X53424700Y-31644322D01*
X53052141Y-31798640D01*
X52963233Y-32015628D01*
X52586828Y-32015628D01*
X52574130Y-31948147D01*
X52462872Y-31775247D01*
X52293112Y-31659255D01*
X52091600Y-31618448D01*
X50364400Y-31618448D01*
X50176147Y-31653870D01*
X50003247Y-31765128D01*
X49887255Y-31934888D01*
X49846448Y-32136400D01*
X38330161Y-32136400D01*
X38280724Y-32086877D01*
X37451114Y-31742393D01*
X36552826Y-31741609D01*
X35722617Y-32084644D01*
X35086877Y-32719276D01*
X34742393Y-33548886D01*
X34741609Y-34447174D01*
X30583000Y-34447174D01*
X30583000Y-32150765D01*
X30596317Y-32118615D01*
X30724964Y-31471864D01*
X31024131Y-31024129D01*
X31471863Y-30724964D01*
X32118615Y-30596318D01*
X32150768Y-30583000D01*
X77849235Y-30583000D01*
X77881385Y-30596317D01*
M02*
