G04 #@! TF.FileFunction,Soldermask,Top*
%FSLAX46Y46*%
G04 Gerber Fmt 4.6, Leading zero omitted, Abs format (unit mm)*
G04 Created by KiCad (PCBNEW 4.0.2+dfsg1-stable) date Seg 16 Out 2017 09:01:32 BRST*
%MOMM*%
G01*
G04 APERTURE LIST*
%ADD10C,0.100000*%
%ADD11R,1.600000X2.800000*%
%ADD12R,2.432000X2.127200*%
%ADD13O,2.432000X2.127200*%
%ADD14C,2.127200*%
%ADD15R,2.127200X2.127200*%
%ADD16R,2.400000X2.400000*%
%ADD17C,2.400000*%
%ADD18C,1.162000*%
%ADD19C,3.900000*%
%ADD20R,2.100000X2.100000*%
%ADD21O,2.100000X2.100000*%
G04 APERTURE END LIST*
D10*
D11*
X37000000Y-40000000D03*
X33000000Y-40000000D03*
X37000000Y-46000000D03*
X33000000Y-46000000D03*
D12*
X73027600Y-47297400D03*
D13*
X73027600Y-49837400D03*
X73027600Y-52377400D03*
X73027600Y-54917400D03*
X73027600Y-57457400D03*
D14*
X56308000Y-33000000D03*
D15*
X51228000Y-33000000D03*
D14*
X58848000Y-33000000D03*
X53768000Y-33000000D03*
D16*
X74460000Y-43000000D03*
D17*
X77000000Y-43000000D03*
D18*
X60937200Y-53241000D03*
X59997400Y-54536400D03*
X58930600Y-55806400D03*
X73053000Y-60607000D03*
D19*
X43000000Y-75000000D03*
X67000000Y-75000000D03*
X37000000Y-34000000D03*
X73000000Y-34000000D03*
D11*
X39000000Y-71000000D03*
X35000000Y-71000000D03*
X39000000Y-77000000D03*
X35000000Y-77000000D03*
X47000000Y-77000000D03*
X51000000Y-77000000D03*
X47000000Y-71000000D03*
X51000000Y-71000000D03*
X63000000Y-71000000D03*
X59000000Y-71000000D03*
X63000000Y-77000000D03*
X59000000Y-77000000D03*
X71000000Y-77000000D03*
X75000000Y-77000000D03*
X71000000Y-71000000D03*
X75000000Y-71000000D03*
D20*
X32250000Y-61960000D03*
D21*
X32250000Y-64500000D03*
X32250000Y-67040000D03*
M02*
