M48
;DRILL file {KiCad 4.0.2+dfsg1-stable} date Seg 16 Out 2017 09:01:34 BRST
;FORMAT={-:-/ absolute / metric / decimal}
FMAT,2
METRIC,TZ
T1C0.381
T2C1.000
T3C1.001
T4C1.016
T5C3.500
%
G90
G05
M71
T1
X31.219Y-56.619
X32.159Y-70.97
X32.159Y-77.015
X32.195Y-51.285
X32.448Y-33.971
X36.96Y-50.726
X40.744Y-39.246
X42.039Y-69.316
X42.04Y-78.666
X43.106Y-54.689
X43.97Y-69.294
X44.046Y-78.692
X44.097Y-38.153
X44.275Y-61.394
X44.3Y-64.085
X44.808Y-34.064
X48.415Y-57.102
X49.761Y-37.061
X54.943Y-57.
X55.146Y-71.
X55.165Y-77.007
X55.857Y-38.585
X58.931Y-55.806
X59.032Y-57.584
X59.667Y-42.243
X59.997Y-54.536
X60.531Y-59.7
X60.937Y-53.241
X61.15Y-64.545
X61.598Y-62.385
X64.392Y-32.896
X65.425Y-46.15
X65.633Y-43.583
X66.093Y-69.395
X66.093Y-78.616
X66.271Y-53.52
X67.58Y-44.506
X67.922Y-69.421
X67.973Y-78.616
X68.198Y-47.37
X69.333Y-32.993
X73.053Y-60.607
X77.234Y-37.377
X77.277Y-32.645
X77.904Y-70.996
X77.904Y-77.015
X78.362Y-51.463
X78.463Y-58.092
X78.489Y-65.154
X78.59Y-45.189
T2
X32.25Y-61.96
X32.25Y-64.5
X32.25Y-67.04
T3
X74.46Y-43.
X77.Y-43.
T4
X51.228Y-33.
X53.768Y-33.
X56.308Y-33.
X58.848Y-33.
X73.028Y-47.297
X73.028Y-49.837
X73.028Y-52.377
X73.028Y-54.917
X73.028Y-57.457
T5
X37.Y-34.
X43.Y-75.
X67.Y-75.
X73.Y-34.
T0
M30
